<?xml version="1.0" standalone="no"?>
<!DOCTYPE svg PUBLIC "-//W3C//DTD SVG 1.1//EN" "http://www.w3.org/Graphics/SVG/1.1/DTD/svg11.dtd" >
<svg xmlns="http://www.w3.org/2000/svg" xmlns:xlink="http://www.w3.org/1999/xlink" version="1.1">
<metadata>
Created by FontForge 20170731 at Tue Dec  5 09:47:31 2017
 By Aleksey,,,
Copyright (c) 2017 Swiss Typefaces Sarl. All rights reserved.
</metadata>
<defs>
<font id="EuclidSquare-Regular" horiz-adv-x="0" >
  <font-face 
    font-family="Euclid Square"
    font-weight="400"
    font-stretch="normal"
    units-per-em="1000"
    panose-1="2 11 5 4 0 0 0 0 0 0"
    ascent="806"
    descent="-194"
    x-height="500"
    cap-height="710"
    bbox="-200 -273 1382 993"
    underline-thickness="75"
    underline-position="-238"
    unicode-range="U+0020-FEFF"
  />
<missing-glyph horiz-adv-x="682" 
d="M91 0v710h500v-710h-500zM557 691h-432l216 -321zM330 355l-220 327v-654zM351 355l221 -327v654zM341 339l-216 -320h432z" />
    <glyph glyph-name="f_f" unicode="ff" horiz-adv-x="802" 
d="M134 0v421h-118v79h118v73q0 74 44 118.5t117 44.5q59 0 105 -25l-33 -72q-36 18 -68 18q-37 0 -58 -24t-21 -65v-68h151v-79h-151v-421h-86zM534 0v421h-107v79h107v73q0 74 44 118.5t117 44.5q59 0 105 -25l-33 -72q-36 18 -68 18q-37 0 -58 -24t-21 -65v-68h170v-79
h-170v-421h-86z" />
    <glyph glyph-name="f_i" unicode="fi" horiz-adv-x="650" 
d="M134 0v421h-118v79h118v73q0 74 43.5 118.5t117.5 44.5q58 0 104 -25l-32 -72q-39 18 -68 18q-38 0 -58.5 -24t-20.5 -65v-68h170v-79h-170v-421h-86zM587 675q0 -25 -17.5 -43t-43.5 -18t-44 18t-18 43t18.5 43t43.5 18t43 -18t18 -43zM482 0v500h86v-500h-86z" />
    <glyph glyph-name="f_l" unicode="fl" horiz-adv-x="650" 
d="M134 0v421h-118v79h118v73q0 74 43.5 118.5t117.5 44.5q58 0 104 -25l-32 -72q-39 18 -68 18q-38 0 -58.5 -24t-20.5 -65v-68h170v-79h-170v-421h-86zM482 0v730h86v-730h-86z" />
    <glyph glyph-name="f_t" unicode="ft" horiz-adv-x="804" 
d="M134 0v421h-118v79h118v73q0 74 43.5 118.5t117.5 44.5q58 0 104 -25l-32 -72q-39 18 -68 18q-38 0 -58.5 -24t-20.5 -65v-68h142v-79h-142v-421h-86zM792 18q-51 -23 -108 -23q-67 0 -111.5 39.5t-44.5 113.5v273h-110v79h110v142h86v-142h155v-79h-155v-262
q0 -87 80 -87q40 0 72 19z" />
    <glyph glyph-name="t_t" unicode="tt" horiz-adv-x="819" 
d="M403 18q-48 -23 -108 -23q-67 0 -111.5 39.5t-44.5 113.5v273h-126v79h126v142h86v-142h145v-79h-145v-262q0 -87 80 -87q40 0 72 19zM807 18q-48 -23 -107 -23q-68 0 -112.5 39.5t-44.5 113.5v273h-117v79h117v142h86v-142h155v-79h-155v-262q0 -87 80 -87q39 0 73 19z
" />
    <glyph glyph-name="f_f_i" unicode="ffi" horiz-adv-x="1050" 
d="M988 675q0 -25 -18 -43t-43 -18q-26 0 -44 18t-18 43t18.5 43t43.5 18t43 -18t18 -43zM134 0v421h-118v79h118v73q0 74 44 118.5t117 44.5q59 0 105 -25l-33 -72q-36 18 -68 18q-37 0 -58 -24t-21 -65v-68h151v-79h-151v-421h-86zM534 0v421h-107v79h107v73
q0 74 44 118.5t117 44.5q59 0 105 -25l-33 -72q-36 18 -68 18q-37 0 -58 -24t-21 -65v-68h170v-79h-170v-421h-86zM883 0v500h86v-500h-86z" />
    <glyph glyph-name="f_f_l" unicode="ffl" horiz-adv-x="1050" 
d="M134 0v421h-118v79h118v73q0 74 44 118.5t117 44.5q59 0 105 -25l-33 -72q-36 18 -68 18q-37 0 -58 -24t-21 -65v-68h151v-79h-151v-421h-86zM534 0v421h-107v79h107v73q0 74 44 118.5t117 44.5q59 0 105 -25l-33 -72q-36 18 -68 18q-37 0 -58 -24t-21 -65v-68h170v-79
h-170v-421h-86zM883 0v730h86v-730h-86z" />
    <glyph glyph-name=".notdef" horiz-adv-x="682" 
d="M91 0v710h500v-710h-500zM557 691h-432l216 -321zM330 355l-220 327v-654zM351 355l221 -327v654zM341 339l-216 -320h432z" />
    <glyph glyph-name=".null" 
 />
    <glyph glyph-name="nonmarkingreturn" horiz-adv-x="333" 
 />
    <glyph glyph-name="space" unicode=" " horiz-adv-x="244" 
 />
    <glyph glyph-name="exclam" unicode="!" horiz-adv-x="272" 
d="M109 222l-16 204v284h86v-284l-16 -204h-54zM198 0h-123v124h123v-124z" />
    <glyph glyph-name="quotedbl" unicode="&#x22;" horiz-adv-x="413" 
d="M66 463v247h78v-247h-78zM268 463v247h78v-247h-78z" />
    <glyph glyph-name="numbersign" unicode="#" horiz-adv-x="737" 
d="M347 0l62 200h-181l-61 -200h-80l62 200h-116v73h139l54 171h-120v73h143l60 193h79l-60 -193h180l61 193h78l-60 -193h116v-73h-139l-53 -171h120v-73h-144l-61 -200h-79zM305 444l-53 -171h180l53 171h-180z" />
    <glyph glyph-name="dollar" unicode="$" horiz-adv-x="511" 
d="M232 -88v79q-121 10 -188 84l57 66q49 -57 131 -66v250l-33 13q-154 60 -154 202q0 77 54 125t133 56v77h54v-77q99 -10 160 -78l-57 -63q-44 47 -103 57v-236l27 -11q160 -62 160 -206q0 -87 -52 -136.5t-135 -56.5v-79h-54zM131 541q0 -42 24 -70t77 -49v215
q-45 -6 -73 -32t-28 -64zM387 178q0 46 -24.5 74.5t-76.5 50.5v-228q45 7 73 35t28 68z" />
    <glyph glyph-name="percent" unicode="%" horiz-adv-x="991" 
d="M426 521q0 -81 -58 -139t-139 -58q-82 0 -139.5 58t-57.5 139q0 82 57.5 139.5t139.5 57.5q81 0 139 -57.5t58 -139.5zM224 0l450 710h93l-450 -710h-93zM111 521q0 -48 34.5 -83.5t83.5 -35.5q48 0 83 35.5t35 83.5t-35 83.5t-83 35.5q-49 0 -83.5 -35.5t-34.5 -83.5z
M959 189q0 -81 -58 -139t-139 -58q-82 0 -139.5 58t-57.5 139q0 82 57.5 139.5t139.5 57.5q81 0 139 -57.5t58 -139.5zM644 189q0 -48 34.5 -83.5t83.5 -35.5q48 0 83 35.5t35 83.5t-35 83.5t-83 35.5q-49 0 -83.5 -35.5t-34.5 -83.5z" />
    <glyph glyph-name="ampersand" unicode="&#x26;" horiz-adv-x="750" 
d="M639 0l-121 118q-58 -67 -110 -97.5t-119 -30.5q-97 0 -157.5 57.5t-60.5 146.5q0 70 41 116.5t110 86.5l5 3q-86 84 -86 161q0 70 52 115.5t129 45.5t126 -48t49 -117q0 -104 -138 -174l152 -148l104 133l61 -48l-109 -140l185 -180h-113zM224 559q0 -23 12.5 -45
t24.5 -35.5t43 -42.5l5 3q51 26 76.5 50.5t25.5 61.5q0 43 -25 69.5t-66 26.5q-40 0 -68 -24t-28 -64zM158 193q0 -57 39.5 -91t94.5 -34q47 0 86 25t84 79l-178 173l-13 -8q-57 -30 -85 -63t-28 -81z" />
    <glyph glyph-name="quotesingle" unicode="'" horiz-adv-x="211" 
d="M66 463v247h78v-247h-78z" />
    <glyph glyph-name="parenleft" unicode="(" horiz-adv-x="264" 
d="M231 770q-107 -218 -107 -450t107 -450l-56 -30q-128 232 -128 480t128 480z" />
    <glyph glyph-name="parenright" unicode=")" horiz-adv-x="264" 
d="M33 770l56 30q128 -232 128 -480t-128 -480l-56 30q107 218 107 450t-107 450z" />
    <glyph glyph-name="asterisk" unicode="*" horiz-adv-x="440" 
d="M142 372l-54 39l77 107l-126 42l19 64l128 -42v128h67v-128l127 41l21 -63l-127 -42l79 -107l-54 -39l-79 107z" />
    <glyph glyph-name="plus" unicode="+" horiz-adv-x="500" 
d="M38 251v77h173v172h78v-172h172v-77h-172v-172h-78v172h-173z" />
    <glyph glyph-name="comma" unicode="," horiz-adv-x="257" 
d="M74 -154l47 154h-55v124h124v-125l-62 -153h-54z" />
    <glyph glyph-name="hyphen" unicode="-" horiz-adv-x="386" 
d="M65 237v86h255v-86h-255z" />
    <glyph glyph-name="period" unicode="." horiz-adv-x="253" 
d="M188 0h-123v124h123v-124z" />
    <glyph glyph-name="slash" unicode="/" horiz-adv-x="509" 
d="M21 -110l386 820h81l-386 -820h-81z" />
    <glyph glyph-name="zero" unicode="0" horiz-adv-x="623" 
d="M563 257q0 -118 -71 -192.5t-181 -74.5t-180.5 74.5t-70.5 192.5v198q0 117 70.5 192t180.5 75t181 -75t71 -192v-198zM146 257q0 -85 46 -134t119 -49q74 0 120 49t46 134v198q0 85 -46 134t-120 49q-73 0 -119 -49t-46 -134v-198z" />
    <glyph glyph-name="one" unicode="1" horiz-adv-x="311" 
d="M131 0v625h-98v85h184v-710h-86z" />
    <glyph glyph-name="two" unicode="2" horiz-adv-x="551" 
d="M39 0v72l274 266q94 90 94 167q0 56 -38.5 94.5t-95.5 38.5q-53 0 -93 -35t-48 -88l-86 18q14 82 78 135.5t152 53.5q94 0 156 -60t62 -153q0 -116 -122 -233l-201 -193h332v-83h-464z" />
    <glyph glyph-name="three" unicode="3" horiz-adv-x="567" 
d="M519 215q0 -98 -67.5 -161.5t-174.5 -63.5q-87 0 -159 48t-91 126l87 30q14 -54 58 -87t106 -33q64 0 109 40t45 101q0 67 -43 105t-114 38h-84v71l180 197h-304v84h419v-71l-182 -200q98 -5 156.5 -68t58.5 -156z" />
    <glyph glyph-name="four" unicode="4" horiz-adv-x="617" 
d="M395 0v193h-378v69l389 448h75v-436h98v-81h-98v-193h-86zM395 274v306l-265 -306h265z" />
    <glyph glyph-name="five" unicode="5" horiz-adv-x="568" 
d="M44 164l87 30q13 -53 57 -86.5t106 -33.5t104 44t42 108q0 65 -42 109t-107 44q-87 0 -127 -61h-88v392h405v-84h-319v-216q21 22 58.5 36.5t81.5 14.5q100 0 163 -70t63 -176q0 -94 -67.5 -159.5t-166.5 -65.5q-87 0 -159 48.5t-91 125.5z" />
    <glyph glyph-name="six" unicode="6" horiz-adv-x="559" 
d="M517 226q0 -99 -68.5 -167.5t-171.5 -68.5t-172 68t-69 166q0 52 20.5 93.5t59.5 87.5l259 305h109l-217 -257q20 2 28 2q89 0 155.5 -68t66.5 -161zM124 226q0 -64 44 -108.5t109 -44.5q64 0 108 45t44 108t-44 108t-108 45q-65 0 -109 -44.5t-44 -108.5z" />
    <glyph glyph-name="seven" unicode="7" horiz-adv-x="509" 
d="M157 0h-96l332 626h-364v84h466v-72z" />
    <glyph glyph-name="eight" unicode="8" horiz-adv-x="571" 
d="M524 213q0 -97 -66.5 -160t-171.5 -63q-104 0 -171.5 63t-67.5 160q0 130 113 186q-74 50 -74 140q0 79 57 131t143 52q87 0 143 -51.5t56 -131.5q0 -90 -72 -140q53 -26 82 -74.5t29 -111.5zM171 537q0 -43 32 -74t83 -31q52 0 83 31t31 74q0 45 -31 74.5t-83 29.5
q-51 0 -83 -29.5t-32 -74.5zM134 213q0 -60 42 -100.5t110 -40.5q69 0 110 40.5t41 100.5q0 62 -40.5 102t-110.5 40q-68 0 -110 -40.5t-42 -101.5z" />
    <glyph glyph-name="nine" unicode="9" horiz-adv-x="558" 
d="M74 0l219 259q-9 -2 -28 -2q-89 0 -155.5 68t-66.5 160q0 100 68.5 168.5t171.5 68.5t172 -68t69 -166q0 -52 -20.5 -93.5t-59.5 -87.5l-260 -307h-110zM131 486q0 -64 43.5 -108.5t108.5 -44.5t109 44.5t44 108.5t-44 108.5t-109 44.5t-108.5 -44.5t-43.5 -108.5z" />
    <glyph glyph-name="colon" unicode=":" horiz-adv-x="254" 
d="M189 368h-123v124h123v-124zM189 0h-123v124h123v-124z" />
    <glyph glyph-name="semicolon" unicode=";" horiz-adv-x="254" 
d="M189 368h-123v124h123v-124zM73 -154l47 154h-55v124h124v-125l-62 -153h-54z" />
    <glyph glyph-name="less" unicode="&#x3c;" horiz-adv-x="444" 
d="M398 -11l-360 235v87l360 234v-94l-282 -184l282 -184v-94z" />
    <glyph glyph-name="equal" unicode="=" horiz-adv-x="560" 
d="M68 360v77h424v-77h-424zM68 143v76h424v-76h-424z" />
    <glyph glyph-name="greater" unicode="&#x3e;" horiz-adv-x="444" 
d="M46 -11v94l282 184l-282 184v94l360 -234v-87z" />
    <glyph glyph-name="question" unicode="?" horiz-adv-x="526" 
d="M202 236v20q0 62 91 130q34 26 50 40t29.5 38t13.5 52q0 51 -38 86.5t-92 35.5q-51 0 -92 -24.5t-65 -67.5l-70 42q32 60 92 97t136 37q92 0 153.5 -60.5t61.5 -143.5q0 -60 -29 -102t-76 -78q-4 -3 -15.5 -12t-16.5 -13t-14.5 -12t-13.5 -13.5t-9.5 -13t-7.5 -15
t-2 -15.5v-8h-86zM306 0h-123v124h123v-124z" />
    <glyph glyph-name="at" unicode="@" horiz-adv-x="812" 
d="M605 34q-94 -44 -210 -44q-159 0 -253.5 99t-94.5 248q0 167 115.5 276t273.5 109q147 0 243.5 -87t96.5 -229q0 -121 -52 -184t-126 -63q-80 0 -105 60q-19 -26 -55 -42.5t-74 -16.5q-65 0 -109 47t-44 126q0 93 59 155.5t143 62.5q45 0 75 -22t41 -45l10 58h76
l-49 -238q-16 -79 38 -79q47 0 74.5 46.5t27.5 136.5q0 112 -76.5 180.5t-194.5 68.5q-130 0 -223.5 -89t-93.5 -231q0 -126 75 -204t202 -78q104 0 182 42zM288 369q-11 -60 14 -100.5t74 -40.5q34 0 63 18t47 48l24 113q-8 30 -33.5 53t-62.5 23q-46 0 -82 -32.5
t-44 -81.5z" />
    <glyph glyph-name="A" unicode="A" horiz-adv-x="718" 
d="M6 0l314 710h77l315 -710h-97l-91 207h-331l-91 -207h-96zM229 291h258l-129 293z" />
    <glyph glyph-name="B" unicode="B" horiz-adv-x="629" 
d="M94 0v710h233q96 0 154 -55t58 -133q0 -98 -76 -145q123 -45 123 -170q0 -90 -65.5 -148.5t-172.5 -58.5h-254zM187 405h140q56 0 88.5 31t32.5 79q0 47 -33 79t-88 32h-140v-221zM187 84h165q69 0 106 33t37 87t-37 87.5t-105 33.5h-166v-241z" />
    <glyph glyph-name="C" unicode="C" horiz-adv-x="755" 
d="M45 355q0 154 107 260.5t260 106.5q100 0 182.5 -46t131.5 -126l-78 -47q-38 61 -99 96t-137 35q-116 0 -194.5 -81t-78.5 -198t78.5 -198t194.5 -81q76 0 137 35t99 96l78 -47q-49 -80 -131.5 -126t-182.5 -46q-153 0 -260 106.5t-107 260.5z" />
    <glyph glyph-name="D" unicode="D" horiz-adv-x="721" 
d="M94 0v710h204q163 0 270.5 -101t107.5 -254t-107.5 -254t-270.5 -101h-204zM187 87h111q127 0 205.5 75.5t78.5 192.5t-78.5 192.5t-205.5 75.5h-111v-536z" />
    <glyph glyph-name="E" unicode="E" horiz-adv-x="557" 
d="M94 0v710h414v-88h-321v-215h261v-88h-261v-231h321v-88h-414z" />
    <glyph glyph-name="F" unicode="F" horiz-adv-x="531" 
d="M94 0v710h413v-88h-320v-215h253v-88h-253v-319h-93z" />
    <glyph glyph-name="G" unicode="G" horiz-adv-x="765" 
d="M707 88q-47 -49 -121.5 -74.5t-157.5 -25.5q-167 0 -274.5 105t-107.5 262q0 155 106 261t264 106q163 0 267 -99l-62 -67q-85 78 -205 78t-198.5 -80.5t-78.5 -198.5q0 -120 79.5 -199.5t209.5 -79.5q123 0 189 53v190h-201v87h291v-318z" />
    <glyph glyph-name="H" unicode="H" horiz-adv-x="763" 
d="M94 0v710h93v-303h389v303h93v-710h-93v320h-389v-320h-93z" />
    <glyph glyph-name="I" unicode="I" horiz-adv-x="281" 
d="M94 0v710h93v-710h-93z" />
    <glyph glyph-name="J" unicode="J" horiz-adv-x="469" 
d="M382 194q0 -102 -54 -154t-142 -52q-113 0 -180 78l61 65q50 -57 117 -57q105 0 105 124v512h93v-516z" />
    <glyph glyph-name="K" unicode="K" horiz-adv-x="671" 
d="M94 0v710h92v-308l310 308h121l-337 -338l414 -372h-131l-377 338v-338h-92z" />
    <glyph glyph-name="L" unicode="L" horiz-adv-x="548" 
d="M94 0v710h93v-622h343v-88h-436z" />
    <glyph glyph-name="M" unicode="M" horiz-adv-x="885" 
d="M94 0v710h85l264 -416l263 416h85v-710h-92v530l-223 -351h-66l-223 352v-531h-93z" />
    <glyph glyph-name="N" unicode="N" horiz-adv-x="794" 
d="M699 0h-80l-432 553v-553h-93v710h81l432 -553v553h92v-710z" />
    <glyph glyph-name="O" unicode="O" horiz-adv-x="825" 
d="M779 355q0 -154 -106.5 -260.5t-260.5 -106.5q-153 0 -260 106.5t-107 260.5t107 260.5t260 106.5q154 0 260.5 -106.5t106.5 -260.5zM139 355q0 -117 78.5 -198t194.5 -81q117 0 195.5 81t78.5 198t-78.5 198t-195.5 81q-116 0 -194.5 -81t-78.5 -198z" />
    <glyph glyph-name="P" unicode="P" horiz-adv-x="586" 
d="M311 710q109 0 176.5 -64t67.5 -162t-67.5 -161.5t-176.5 -63.5h-124v-259h-93v710h217zM311 345q71 0 111.5 39t40.5 100t-40.5 100t-111.5 39h-124v-278h124z" />
    <glyph glyph-name="Q" unicode="Q" horiz-adv-x="832" 
d="M712 -8l-76 70q-100 -74 -224 -74q-153 0 -260 106.5t-107 260.5t107 260.5t260 106.5q154 0 260.5 -106.5t106.5 -260.5q0 -133 -81 -233l71 -66zM139 355q0 -117 78.5 -198t194.5 -81q87 0 157 48l-113 105l57 64l118 -109q55 74 55 171q0 117 -78.5 198t-195.5 81
q-116 0 -194.5 -81t-78.5 -198z" />
    <glyph glyph-name="R" unicode="R" horiz-adv-x="635" 
d="M94 0v710h242q97 0 154.5 -54t57.5 -142q0 -78 -46.5 -128t-128.5 -62l273 -324h-117l-273 323h-69v-323h-93zM187 406h138q62 0 96 27.5t34 80.5t-34 81.5t-96 28.5h-138v-218z" />
    <glyph glyph-name="S" unicode="S" horiz-adv-x="555" 
d="M36 116l75 56q63 -97 176 -97q57 0 94.5 29t37.5 77q0 81 -102 120l-95 36q-84 31 -122.5 77.5t-38.5 118.5q0 86 63 137.5t160 51.5q65 0 119 -26.5t87 -70.5l-68 -60q-59 70 -140 70q-54 0 -91 -27.5t-37 -70.5t24.5 -68t82.5 -46l85 -33q82 -31 124 -80t42 -125
q-1 -90 -64 -143.5t-163 -53.5q-86 0 -153 36t-96 92z" />
    <glyph glyph-name="T" unicode="T" horiz-adv-x="567" 
d="M238 0v622h-221v88h533v-88h-221v-622h-91z" />
    <glyph glyph-name="U" unicode="U" horiz-adv-x="726" 
d="M641 276q0 -131 -77 -209.5t-201 -78.5t-201 78.5t-77 209.5v434h93v-436q0 -94 50 -146t135 -52t135 52t50 146v436h93v-434z" />
    <glyph glyph-name="V" unicode="V" horiz-adv-x="701" 
d="M311 0l-303 710h103l240 -564l239 564h101l-302 -710h-78z" />
    <glyph glyph-name="W" unicode="W" horiz-adv-x="999" 
d="M238 0l-222 710h98l169 -546l176 546h80l177 -548l168 548h99l-222 -710h-82l-180 560l-180 -560h-81z" />
    <glyph glyph-name="X" unicode="X" horiz-adv-x="670" 
d="M553 0l-218 285l-217 -285h-114l274 359l-263 351h111l209 -277l209 277h111l-262 -351l273 -359h-113z" />
    <glyph glyph-name="Y" unicode="Y" horiz-adv-x="674" 
d="M291 0v301l-276 409h111l211 -316l212 316h111l-277 -410v-300h-92z" />
    <glyph glyph-name="Z" unicode="Z" horiz-adv-x="587" 
d="M34 0v62l385 560h-374v88h497v-62l-385 -560h395v-88h-518z" />
    <glyph glyph-name="bracketleft" unicode="[" horiz-adv-x="305" 
d="M92 -160v960h187v-72h-109v-816h109v-72h-187z" />
    <glyph glyph-name="backslash" unicode="\" horiz-adv-x="509" 
d="M488 -110h-81l-386 820h81z" />
    <glyph glyph-name="bracketright" unicode="]" horiz-adv-x="305" 
d="M213 -160h-187v72h109v816h-109v72h187v-960z" />
    <glyph glyph-name="asciicircum" unicode="^" horiz-adv-x="407" 
d="M52 500l126 210h52l126 -210h-73l-79 132l-80 -132h-72z" />
    <glyph glyph-name="underscore" unicode="_" horiz-adv-x="532" 
d="M54 -73v73h424v-73h-424z" />
    <glyph glyph-name="grave" unicode="`" 
d="M98 574h-72l-125 156h109z" />
    <glyph glyph-name="a" unicode="a" horiz-adv-x="623" 
d="M456 55q-60 -65 -163 -65q-110 0 -180.5 75.5t-70.5 184.5t70.5 184.5t180.5 75.5q103 0 163 -65v55h86v-500h-86v55zM130 250q0 -76 47.5 -128.5t122.5 -52.5q105 0 156 83v197q-52 82 -156 82q-75 0 -122.5 -52.5t-47.5 -128.5z" />
    <glyph glyph-name="b" unicode="b" horiz-adv-x="624" 
d="M582 250q0 -109 -71 -184.5t-181 -75.5q-101 0 -163 65v-55h-86v730h86v-285q62 65 163 65q110 0 181 -75.5t71 -184.5zM167 152q51 -83 156 -83q75 0 122.5 52.5t47.5 128.5t-47.5 128.5t-122.5 52.5q-104 0 -156 -82v-197z" />
    <glyph glyph-name="c" unicode="c" horiz-adv-x="565" 
d="M535 124q-34 -61 -94.5 -97.5t-136.5 -36.5q-112 0 -187 75t-75 185t75 185t187 75q76 0 136.5 -36.5t94.5 -97.5l-75 -42q-22 44 -62.5 70t-93.5 26q-77 0 -126 -52t-49 -128t49 -128t126 -52q53 0 93.5 26t62.5 70z" />
    <glyph glyph-name="d" unicode="d" horiz-adv-x="623" 
d="M42 250q0 109 70.5 184.5t180.5 75.5q103 0 163 -65v285h86v-730h-86v55q-60 -65 -163 -65q-110 0 -180.5 75.5t-70.5 184.5zM456 152v197q-52 82 -156 82q-75 0 -122.5 -52.5t-47.5 -128.5t47.5 -128.5t122.5 -52.5q105 0 156 83z" />
    <glyph glyph-name="e" unicode="e" horiz-adv-x="581" 
d="M42 250q0 111 73.5 185.5t186.5 74.5q102 0 169.5 -67.5t68.5 -183.5q0 -15 -1 -26h-410q2 -71 50.5 -117.5t122.5 -46.5q105 0 156 87l68 -47q-73 -119 -225 -119q-115 0 -187 74t-72 186zM299 434q-59 0 -105.5 -35.5t-58.5 -95.5h317q-9 60 -52 95.5t-101 35.5z" />
    <glyph glyph-name="f" unicode="f" horiz-adv-x="401" 
d="M134 0v421h-118v79h118v73q0 74 43.5 118.5t117.5 44.5q58 0 104 -25l-32 -72q-39 18 -68 18q-38 0 -58.5 -24t-20.5 -65v-68h170v-79h-170v-421h-86z" />
    <glyph glyph-name="g" unicode="g" horiz-adv-x="625" 
d="M544 30q0 -114 -71 -174t-179 -60q-74 0 -133 25.5t-92 66.5l59 60q63 -74 166 -74q66 0 115 40.5t49 118.5v38q-60 -66 -163 -66q-109 0 -181.5 73.5t-71.5 179.5t72.5 179t180.5 73q103 0 163 -65v55h86v-470zM131 258q1 -74 49 -123.5t122 -49.5q104 0 156 82v182
q-52 82 -156 82q-74 0 -123 -50t-48 -123z" />
    <glyph glyph-name="h" unicode="h" horiz-adv-x="589" 
d="M81 0v730h86v-293q51 73 158 73q85 0 137.5 -55t52.5 -148v-307h-85v294q0 65 -33.5 101t-91.5 36q-51 0 -86.5 -27t-51.5 -72v-332h-86z" />
    <glyph glyph-name="i" unicode="i" horiz-adv-x="249" 
d="M186 675q0 -25 -18 -43t-43 -18q-26 0 -44 18t-18 43t18.5 43t43.5 18t43 -18t18 -43zM81 0v500h86v-500h-86z" />
    <glyph glyph-name="j" unicode="j" horiz-adv-x="257" 
d="M194 675q0 -25 -18 -43t-43 -18q-26 0 -44 18t-18 43t18.5 43t43.5 18t43 -18t18 -43zM175 -46q0 -74 -40.5 -113.5t-102.5 -39.5q-52 0 -76 14l19 73q25 -9 49 -9q65 0 65 85v536h86v-546z" />
    <glyph glyph-name="k" unicode="k" horiz-adv-x="539" 
d="M81 0v730h86v-425l218 195h114l-246 -221l301 -279h-116l-271 250v-250h-86z" />
    <glyph glyph-name="l" unicode="l" horiz-adv-x="249" 
d="M81 0v730h86v-730h-86z" />
    <glyph glyph-name="m" unicode="m" horiz-adv-x="885" 
d="M725 0v293q0 64 -30.5 101t-83.5 37q-45 0 -77.5 -26.5t-46.5 -71.5q2 -18 2 -26v-307h-86v293q0 64 -30.5 101t-82.5 37q-43 0 -75.5 -24t-47.5 -64v-343h-86v500h86v-53q49 63 143 63q97 0 146 -82q57 82 168 82q87 0 137 -55t50 -148v-307h-86z" />
    <glyph glyph-name="n" unicode="n" horiz-adv-x="589" 
d="M81 0v500h86v-63q51 73 158 73q85 0 137.5 -55t52.5 -148v-307h-85v294q0 65 -33.5 101t-91.5 36q-51 0 -86.5 -27t-51.5 -72v-332h-86z" />
    <glyph glyph-name="o" unicode="o" horiz-adv-x="606" 
d="M564 250q0 -109 -74.5 -184.5t-186.5 -75.5t-187 75.5t-75 184.5t75 184.5t187 75.5t186.5 -75.5t74.5 -184.5zM129 250q0 -76 48.5 -128t125.5 -52t125 52t48 128t-48 128t-125 52t-125.5 -52t-48.5 -128z" />
    <glyph glyph-name="p" unicode="p" horiz-adv-x="624" 
d="M81 -194v694h86v-55q62 65 163 65q110 0 181 -75.5t71 -184.5t-71 -184.5t-181 -75.5q-101 0 -163 65v-249h-86zM167 152q51 -83 156 -83q75 0 122.5 52.5t47.5 128.5t-47.5 128.5t-122.5 52.5q-104 0 -156 -82v-197z" />
    <glyph glyph-name="q" unicode="q" horiz-adv-x="623" 
d="M456 -194v249q-60 -65 -163 -65q-110 0 -180.5 75.5t-70.5 184.5t70.5 184.5t180.5 75.5q103 0 163 -65v55h86v-694h-86zM130 250q0 -76 47.5 -128.5t122.5 -52.5q105 0 156 83v197q-52 82 -156 82q-75 0 -122.5 -52.5t-47.5 -128.5z" />
    <glyph glyph-name="r" unicode="r" horiz-adv-x="359" 
d="M81 0v500h86v-74q16 32 54 55.5t81 23.5q22 0 44 -5l-11 -86q-17 6 -43 6q-39 0 -75 -25.5t-50 -70.5v-324h-86z" />
    <glyph glyph-name="s" unicode="s" horiz-adv-x="447" 
d="M405 139q0 -71 -48 -110t-126 -39q-68 0 -120.5 29.5t-75.5 86.5l70 38q14 -37 49.5 -58t78.5 -21q38 0 63 18.5t25 49.5q0 27 -20.5 46t-68.5 34l-49 16q-124 40 -124 145q0 61 47 98.5t122 37.5q105 0 160 -72l-56 -54q-46 52 -106 52q-36 0 -60 -15.5t-24 -42.5
q0 -25 17 -40.5t60 -29.5l54 -18q132 -43 132 -151z" />
    <glyph glyph-name="t" unicode="t" horiz-adv-x="415" 
d="M403 18q-48 -23 -108 -23q-67 0 -111.5 39.5t-44.5 113.5v273h-126v79h126v142h86v-142h155v-79h-155v-262q0 -87 80 -87q40 0 72 19z" />
    <glyph glyph-name="u" unicode="u" horiz-adv-x="579" 
d="M497 500v-500h-85v63q-25 -36 -66 -54.5t-85 -18.5q-84 0 -136 55t-52 148v307h86v-294q0 -65 32.5 -101t88.5 -36q47 0 81.5 27t50.5 72v332h85z" />
    <glyph glyph-name="v" unicode="v" horiz-adv-x="546" 
d="M237 0l-231 500h96l171 -378l171 378h96l-231 -500h-72z" />
    <glyph glyph-name="w" unicode="w" horiz-adv-x="763" 
d="M505 0l-123 360l-124 -360h-76l-170 500h90l121 -365l125 365h66l125 -365l121 365h91l-170 -500h-76z" />
    <glyph glyph-name="x" unicode="x" horiz-adv-x="530" 
d="M6 0l205 253l-188 247h104l138 -180l137 180h105l-188 -247l204 -253h-106l-152 189l-152 -189h-107z" />
    <glyph glyph-name="y" unicode="y" horiz-adv-x="547" 
d="M221 -194h-96l102 220l-219 474h95l172 -379l171 379h96z" />
    <glyph glyph-name="z" unicode="z" horiz-adv-x="484" 
d="M40 0v68l287 353h-283v79h393v-69l-285 -352h294v-79h-406z" />
    <glyph glyph-name="braceleft" unicode="{" horiz-adv-x="316" 
d="M290 -160h-60q-69 0 -98 35t-29 108v230q0 37 -11.5 54t-46.5 17h-15v72h15q35 0 46.5 16.5t11.5 53.5v231q0 72 29 107.5t97 35.5h61v-72h-48q-37 0 -49 -16.5t-12 -56.5v-225q0 -47 -12 -72t-42 -38q30 -14 42 -39t12 -72v-224q0 -41 12 -57t49 -16h48v-72z" />
    <glyph glyph-name="bar" unicode="|" horiz-adv-x="262" 
d="M92 -110v820h79v-820h-79z" />
    <glyph glyph-name="braceright" unicode="}" horiz-adv-x="316" 
d="M26 -160v72h48q37 0 49 16t12 57v224q0 47 12 72t42 39q-30 13 -42 38t-12 72v225q0 40 -12 56.5t-49 16.5h-48v72h61q68 0 97 -35.5t29 -107.5v-231q0 -37 11.5 -53.5t46.5 -16.5h15v-72h-15q-35 0 -46.5 -17t-11.5 -54v-230q0 -73 -29 -108t-98 -35h-60z" />
    <glyph glyph-name="asciitilde" unicode="~" horiz-adv-x="412" 
d="M69 230l55 119h46l81 -59l27 59h67l-55 -119h-46l-81 59l-27 -59h-67z" />
    <glyph glyph-name="uni00A0" unicode="&#xa0;" horiz-adv-x="244" 
 />
    <glyph glyph-name="exclamdown" unicode="&#xa1;" horiz-adv-x="253" 
d="M188 376h-123v124h123v-124zM153 282l17 -191v-285h-87v285l17 191h53z" />
    <glyph glyph-name="cent" unicode="&#xa2;" horiz-adv-x="572" 
d="M276 -88v79q-102 10 -167.5 83.5t-65.5 175.5t65.5 175.5t167.5 83.5v79h54v-79q68 -6 121.5 -41.5t84.5 -91.5l-75 -42q-41 82 -131 94v-356q90 12 131 94l75 -42q-31 -56 -84.5 -91.5t-121.5 -41.5v-79h-54zM130 250q0 -68 40.5 -118t105.5 -60v356q-65 -10 -105.5 -60
t-40.5 -118z" />
    <glyph glyph-name="sterling" unicode="&#xa3;" horiz-adv-x="562" 
d="M51 0v84h62q47 50 47 119q0 39 -30 133h-79v55h62q-22 79 -22 125q0 90 60 148t158 58q76 0 131.5 -43t77.5 -112l-72 -37q-47 108 -138 108q-59 0 -95 -34t-36 -90q0 -42 25 -123h191v-55h-173q24 -78 24 -128q0 -75 -37 -124h310v-84h-466z" />
    <glyph glyph-name="yen" unicode="&#xa5;" horiz-adv-x="673" 
d="M86 171v54h208v75h-208v54h174l-230 356h103l203 -324l203 324h104l-228 -356h172v-54h-207v-75h207v-54h-207v-171h-86v171h-208z" />
    <glyph glyph-name="brokenbar" unicode="&#xa6;" horiz-adv-x="262" 
d="M92 348v362h79v-362h-79zM92 -110v362h79v-362h-79z" />
    <glyph glyph-name="section" unicode="&#xa7;" horiz-adv-x="458" 
d="M403 -66q1 -69 -46 -111t-118 -42q-66 0 -114.5 34t-56.5 105h80q15 -69 91 -69q37 0 61.5 23t23.5 61q-3 77 -97 122l-63 30q-111 52 -111 164q0 114 108 164q-104 60 -104 161q0 65 42.5 105.5t112.5 40.5q65 0 109.5 -34t52.5 -105h-80q-15 69 -82 69q-35 0 -55.5 -21
t-20.5 -55q0 -22 7.5 -39.5t23 -31t29 -22t36.5 -20.5l63 -30q112 -53 112 -164q0 -115 -108 -164q101 -63 104 -171zM211 151l7 -4q55 21 82.5 47.5t27.5 71.5q0 67 -79 104l-7 4q-55 -21 -82.5 -47.5t-27.5 -71.5q0 -68 79 -104z" />
    <glyph glyph-name="dieresis" unicode="&#xa8;" 
d="M-54 652q0 -24 -17 -41t-41 -17q-25 0 -42 17t-17 41t17 41.5t42 17.5q24 0 41 -17.5t17 -41.5zM171 652q0 -24 -17 -41t-41 -17t-41.5 17t-17.5 41t17.5 41.5t41.5 17.5t41 -17.5t17 -41.5z" />
    <glyph glyph-name="copyright" unicode="&#xa9;" horiz-adv-x="824" 
d="M779 355q0 -151 -108 -259t-260 -108q-151 0 -258.5 108t-107.5 259t107.5 259t258.5 108q152 0 260 -108t108 -259zM116 355q0 -122 87 -209t208 -87q122 0 209.5 87t87.5 209t-87.5 209t-209.5 87q-121 0 -208 -87t-87 -209zM221 355q0 80 56.5 136.5t136.5 56.5
q55 0 100.5 -26.5t69.5 -71.5l-61 -34q-36 64 -109 64q-51 0 -86.5 -37t-35.5 -88t35.5 -87.5t86.5 -36.5q73 0 109 63l61 -34q-24 -44 -69.5 -70.5t-100.5 -26.5q-80 0 -136.5 56t-56.5 136z" />
    <glyph glyph-name="ordfeminine" unicode="&#xaa;" horiz-adv-x="417" 
d="M278 437q-32 -33 -86 -33q-65 0 -107 45.5t-42 110.5t42 110.5t107 45.5q54 0 86 -33v27h70v-300h-70v27zM115 560q0 -39 24 -66t62 -27q48 0 77 40v106q-29 40 -77 40q-38 0 -62 -27t-24 -66z" />
    <glyph glyph-name="guillemotleft" unicode="&#xab;" horiz-adv-x="477" 
d="M311 250l114 -196l-58 -38l-152 234l152 234l58 -38zM138 250l114 -196l-58 -38l-152 234l152 234l58 -38z" />
    <glyph glyph-name="uni00AD" unicode="&#xad;" horiz-adv-x="386" 
d="M65 237v86h255v-86h-255z" />
    <glyph glyph-name="registered" unicode="&#xae;" horiz-adv-x="824" 
d="M779 355q0 -151 -108 -259t-260 -108q-151 0 -258.5 108t-107.5 259t107.5 259t258.5 108q152 0 260 -108t108 -259zM116 355q0 -122 87 -209t208 -87q122 0 209.5 87t87.5 209t-87.5 209t-209.5 87q-121 0 -208 -87t-87 -209zM293 169v373h139q52 0 83 -31t31 -78
q0 -75 -79 -98l135 -166h-85l-131 159h-22v-159h-71zM364 389h60q23 0 37.5 12t14.5 32q0 21 -14 32t-38 11h-60v-87z" />
    <glyph glyph-name="macron" unicode="&#xaf;" 
d="M-161 641v69h322v-69h-322z" />
    <glyph glyph-name="degree" unicode="&#xb0;" horiz-adv-x="347" 
d="M303 584q0 -53 -38.5 -91t-91.5 -38t-91 38t-38 91q0 54 38 92t91 38t91.5 -38t38.5 -92zM106 584q0 -28 19.5 -47.5t47.5 -19.5t48 19.5t20 47.5t-20 48t-48 20t-47.5 -20t-19.5 -48z" />
    <glyph glyph-name="twosuperior" unicode="&#xb2;" horiz-adv-x="351" 
d="M30 410v60l167 162q46 46 46 83q0 27 -18.5 46t-47.5 19t-50.5 -19t-26.5 -48l-69 16q10 55 51 87.5t97 32.5q58 0 96.5 -35.5t38.5 -94.5q0 -40 -18.5 -72.5t-54.5 -66.5l-105 -102h182v-68h-288z" />
    <glyph glyph-name="threesuperior" unicode="&#xb3;" horiz-adv-x="354" 
d="M325 543q0 -62 -42 -101t-108 -39q-53 0 -98 30t-57 78l68 26q9 -29 32 -47.5t56 -18.5q34 0 56.5 20.5t22.5 51.5q0 34 -23 54t-60 20h-54v57l95 100h-167v68h257v-58l-101 -106q57 -5 90 -43t33 -92z" />
    <glyph glyph-name="acute" unicode="&#xb4;" 
d="M-99 574l88 156h109l-125 -156h-72z" />
    <glyph glyph-name="paragraph" unicode="&#xb6;" horiz-adv-x="624" 
d="M255 -184v444q-93 0 -159 66t-66 159t66 159t159 66h265v-894h-79v815h-107v-815h-79z" />
    <glyph glyph-name="periodcentered" unicode="&#xb7;" horiz-adv-x="253" 
d="M188 205h-123v124h123v-124z" />
    <glyph glyph-name="cedilla" unicode="&#xb8;" 
d="M-105 -187l13 50q33 -14 69 -14q57 0 57 33q0 27 -39 27q-23 0 -46 -9l-31 22l49 81h55l-32 -52q16 7 38 7q32 0 54 -19.5t22 -52.5q0 -42 -34 -66t-88 -24q-50 0 -87 17z" />
    <glyph glyph-name="onesuperior" unicode="&#xb9;" horiz-adv-x="214" 
d="M86 410v366h-67v66h134v-432h-67z" />
    <glyph glyph-name="ordmasculine" unicode="&#xba;" horiz-adv-x="398" 
d="M356 560q0 -65 -45.5 -110.5t-111.5 -45.5q-67 0 -112 45t-45 111t45 111t112 45q66 0 111.5 -45.5t45.5 -110.5zM113 560q0 -39 24 -65t62 -26t62.5 26t24.5 65t-24.5 65t-62.5 26t-62 -26t-24 -65z" />
    <glyph glyph-name="guillemotright" unicode="&#xbb;" horiz-adv-x="477" 
d="M338 250l-114 196l58 38l152 -234l-152 -234l-58 38zM165 250l-114 196l58 38l152 -234l-152 -234l-58 38z" />
    <glyph glyph-name="onequarter" unicode="&#xbc;" horiz-adv-x="769" 
d="M85 278v366h-67v66h134v-432h-67zM22 0l500 710h81l-500 -710h-81zM618 0v107h-221v56l228 269h63v-261h58v-64h-58v-107h-70zM618 171v157l-134 -157h134z" />
    <glyph glyph-name="onehalf" unicode="&#xbd;" horiz-adv-x="753" 
d="M85 278v366h-67v66h134v-432h-67zM22 0l500 710h81l-500 -710h-81zM432 0v60l167 162q46 46 46 83q0 27 -18.5 46t-47.5 19t-50.5 -19t-26.5 -48l-69 16q10 55 51 87.5t97 32.5q58 0 96.5 -35.5t38.5 -94.5q0 -40 -18.5 -72.5t-54.5 -66.5l-105 -102h182v-68h-288z" />
    <glyph glyph-name="threequarters" unicode="&#xbe;" horiz-adv-x="901" 
d="M325 411q0 -62 -42 -101t-108 -39q-53 0 -98 30t-57 78l68 26q9 -29 32 -47.5t56 -18.5q34 0 56.5 20.5t22.5 51.5q0 34 -23 54t-60 20h-54v57l95 100h-167v68h257v-58l-101 -106q57 -5 90 -43t33 -92zM154 0l500 710h81l-500 -710h-81zM751 0v107h-221v56l228 269h63
v-261h58v-64h-58v-107h-70zM751 171v157l-134 -157h134z" />
    <glyph glyph-name="questiondown" unicode="&#xbf;" horiz-adv-x="518" 
d="M337 376h-123v124h123v-124zM492 -70q-32 -60 -92 -97t-136 -37q-92 0 -153.5 60.5t-61.5 143.5q0 60 29 101.5t75 78.5q2 2 15.5 12t17.5 13t14 12t14 13.5t9.5 12.5t7.5 15.5t2 15.5v8h86v-20q0 -62 -92 -130q-34 -25 -50 -39.5t-29 -38t-13 -52.5q0 -51 38 -86.5
t91 -35.5q52 0 93 24.5t65 67.5z" />
    <glyph glyph-name="Agrave" unicode="&#xc0;" horiz-adv-x="718" 
d="M391 768h-72l-115 137h109zM6 0l314 710h77l315 -710h-97l-91 207h-331l-91 -207h-96zM229 291h258l-129 293z" />
    <glyph glyph-name="Aacute" unicode="&#xc1;" horiz-adv-x="718" 
d="M325 768l78 137h109l-115 -137h-72zM6 0l314 710h77l315 -710h-97l-91 207h-331l-91 -207h-96zM229 291h258l-129 293z" />
    <glyph glyph-name="Acircumflex" unicode="&#xc2;" horiz-adv-x="718" 
d="M185 768l127 137h93l127 -137h-93l-81 83l-80 -83h-93zM6 0l314 710h77l315 -710h-97l-91 207h-331l-91 -207h-96zM229 291h258l-129 293z" />
    <glyph glyph-name="Atilde" unicode="&#xc3;" horiz-adv-x="718" 
d="M185 786l3 18q7 43 36.5 69t69.5 26q28 0 72 -22t57 -22q33 0 43 44h66l-4 -19q-8 -42 -37 -68t-69 -26q-29 0 -72 22t-56 22q-32 0 -44 -44h-65zM6 0l314 710h77l315 -710h-97l-91 207h-331l-91 -207h-96zM229 291h258l-129 293z" />
    <glyph glyph-name="Adieresis" unicode="&#xc4;" horiz-adv-x="718" 
d="M304 843q0 -24 -17 -41t-41 -17q-25 0 -42 17t-17 41t17 41.5t42 17.5q24 0 41 -17.5t17 -41.5zM529 843q0 -24 -17 -41t-41 -17t-41.5 17t-17.5 41t17.5 41.5t41.5 17.5t41 -17.5t17 -41.5zM6 0l314 710h77l315 -710h-97l-91 207h-331l-91 -207h-96zM229 291h258
l-129 293z" />
    <glyph glyph-name="Aring" unicode="&#xc5;" horiz-adv-x="718" 
d="M480 872q0 -50 -35.5 -85.5t-85.5 -35.5t-86 35.5t-36 85.5t36 85.5t86 35.5q49 0 85 -35.5t36 -85.5zM348 813q23 -5 44.5 9.5t25.5 38.5t-10.5 44.5t-37.5 25.5q-24 4 -44.5 -10t-25.5 -38t9.5 -44.5t38.5 -25.5zM6 0l314 710h77l315 -710h-97l-91 207h-331l-91 -207
h-96zM229 291h258l-129 293z" />
    <glyph glyph-name="AE" unicode="&#xc6;" horiz-adv-x="914" 
d="M-23 0l425 710h463v-88h-321v-215h261v-88h-261v-231h321v-88h-414v207h-248l-123 -207h-103zM253 291h198v331h-1z" />
    <glyph glyph-name="Ccedilla" unicode="&#xc7;" horiz-adv-x="755" 
d="M322 -137q33 -14 68 -14q57 0 57 33q0 27 -39 27q-23 0 -46 -9l-30 22l40 68q-140 14 -233.5 118t-93.5 247q0 154 107 260.5t260 106.5q100 0 182.5 -46t131.5 -126l-78 -47q-38 61 -99 96t-137 35q-116 0 -194.5 -81t-78.5 -198t78.5 -198t194.5 -81q76 0 137 35t99 96
l78 -47q-47 -77 -125.5 -122.5t-174.5 -49.5l-23 -37q16 7 38 7q33 0 54.5 -19.5t21.5 -52.5q0 -42 -34 -66t-88 -24q-50 0 -87 17z" />
    <glyph glyph-name="Egrave" unicode="&#xc8;" horiz-adv-x="557" 
d="M334 768h-72l-115 137h109zM94 0v710h414v-88h-321v-215h261v-88h-261v-231h321v-88h-414z" />
    <glyph glyph-name="Eacute" unicode="&#xc9;" horiz-adv-x="557" 
d="M267 768l78 137h109l-115 -137h-72zM94 0v710h414v-88h-321v-215h261v-88h-261v-231h321v-88h-414z" />
    <glyph glyph-name="Ecircumflex" unicode="&#xca;" horiz-adv-x="557" 
d="M128 768l127 137h93l127 -137h-93l-81 83l-80 -83h-93zM94 0v710h414v-88h-321v-215h261v-88h-261v-231h321v-88h-414z" />
    <glyph glyph-name="Edieresis" unicode="&#xcb;" horiz-adv-x="557" 
d="M247 843q0 -24 -17 -41t-41 -17q-25 0 -42 17t-17 41t17 41.5t42 17.5q24 0 41 -17.5t17 -41.5zM472 843q0 -24 -17 -41t-41 -17t-41.5 17t-17.5 41t17.5 41.5t41.5 17.5t41 -17.5t17 -41.5zM94 0v710h414v-88h-321v-215h261v-88h-261v-231h321v-88h-414z" />
    <glyph glyph-name="Igrave" unicode="&#xcc;" horiz-adv-x="281" 
d="M174 768h-72l-115 137h109zM94 0v710h93v-710h-93z" />
    <glyph glyph-name="Iacute" unicode="&#xcd;" horiz-adv-x="281" 
d="M107 768l78 137h109l-115 -137h-72zM94 0v710h93v-710h-93z" />
    <glyph glyph-name="Icircumflex" unicode="&#xce;" horiz-adv-x="281" 
d="M-32 768l127 137h93l127 -137h-93l-81 83l-80 -83h-93zM94 0v710h93v-710h-93z" />
    <glyph glyph-name="Idieresis" unicode="&#xcf;" horiz-adv-x="281" 
d="M87 843q0 -24 -17 -41t-41 -17q-25 0 -42 17t-17 41t17 41.5t42 17.5q24 0 41 -17.5t17 -41.5zM312 843q0 -24 -17 -41t-41 -17t-41.5 17t-17.5 41t17.5 41.5t41.5 17.5t41 -17.5t17 -41.5zM94 0v710h93v-710h-93z" />
    <glyph glyph-name="Eth" unicode="&#xd0;" horiz-adv-x="729" 
d="M101 0v319h-73v82h73v309h204q163 0 270.5 -101t107.5 -254t-107.5 -254t-270.5 -101h-204zM194 87h111q127 0 205.5 75.5t78.5 192.5t-78.5 192.5t-205.5 75.5h-111v-222h160v-82h-160v-232z" />
    <glyph glyph-name="Ntilde" unicode="&#xd1;" horiz-adv-x="794" 
d="M220 786l3 18q7 43 36.5 69t69.5 26q29 0 72 -22t57 -22q33 0 43 44h66l-4 -19q-8 -42 -37 -68t-69 -26q-29 0 -72 22t-56 22q-32 0 -44 -44h-65zM699 0h-80l-432 553v-553h-93v710h81l432 -553v553h92v-710z" />
    <glyph glyph-name="Ograve" unicode="&#xd2;" horiz-adv-x="825" 
d="M445 768h-72l-115 137h109zM779 355q0 -154 -106.5 -260.5t-260.5 -106.5q-153 0 -260 106.5t-107 260.5t107 260.5t260 106.5q154 0 260.5 -106.5t106.5 -260.5zM139 355q0 -117 78.5 -198t194.5 -81q117 0 195.5 81t78.5 198t-78.5 198t-195.5 81q-116 0 -194.5 -81
t-78.5 -198z" />
    <glyph glyph-name="Oacute" unicode="&#xd3;" horiz-adv-x="825" 
d="M379 768l78 137h109l-115 -137h-72zM779 355q0 -154 -106.5 -260.5t-260.5 -106.5q-153 0 -260 106.5t-107 260.5t107 260.5t260 106.5q154 0 260.5 -106.5t106.5 -260.5zM139 355q0 -117 78.5 -198t194.5 -81q117 0 195.5 81t78.5 198t-78.5 198t-195.5 81
q-116 0 -194.5 -81t-78.5 -198z" />
    <glyph glyph-name="Ocircumflex" unicode="&#xd4;" horiz-adv-x="825" 
d="M239 768l127 137h93l127 -137h-93l-81 83l-80 -83h-93zM779 355q0 -154 -106.5 -260.5t-260.5 -106.5q-153 0 -260 106.5t-107 260.5t107 260.5t260 106.5q154 0 260.5 -106.5t106.5 -260.5zM139 355q0 -117 78.5 -198t194.5 -81q117 0 195.5 81t78.5 198t-78.5 198
t-195.5 81q-116 0 -194.5 -81t-78.5 -198z" />
    <glyph glyph-name="Otilde" unicode="&#xd5;" horiz-adv-x="825" 
d="M239 786l3 18q7 43 36.5 69t69.5 26q28 0 72 -22t57 -22q33 0 43 44h66l-4 -19q-8 -42 -37 -68t-69 -26q-29 0 -72 22t-56 22q-32 0 -44 -44h-65zM779 355q0 -154 -106.5 -260.5t-260.5 -106.5q-153 0 -260 106.5t-107 260.5t107 260.5t260 106.5q154 0 260.5 -106.5
t106.5 -260.5zM139 355q0 -117 78.5 -198t194.5 -81q117 0 195.5 81t78.5 198t-78.5 198t-195.5 81q-116 0 -194.5 -81t-78.5 -198z" />
    <glyph glyph-name="Odieresis" unicode="&#xd6;" horiz-adv-x="825" 
d="M358 843q0 -24 -17 -41t-41 -17q-25 0 -42 17t-17 41t17 41.5t42 17.5q24 0 41 -17.5t17 -41.5zM583 843q0 -24 -17 -41t-41 -17t-41.5 17t-17.5 41t17.5 41.5t41.5 17.5t41 -17.5t17 -41.5zM779 355q0 -154 -106.5 -260.5t-260.5 -106.5q-153 0 -260 106.5t-107 260.5
t107 260.5t260 106.5q154 0 260.5 -106.5t106.5 -260.5zM139 355q0 -117 78.5 -198t194.5 -81q117 0 195.5 81t78.5 198t-78.5 198t-195.5 81q-116 0 -194.5 -81t-78.5 -198z" />
    <glyph glyph-name="multiply" unicode="&#xd7;" horiz-adv-x="503" 
d="M109 94l-56 55l143 141l-143 140l56 56l143 -140l142 140l56 -56l-143 -140l143 -141l-56 -55l-142 140z" />
    <glyph glyph-name="Oslash" unicode="&#xd8;" horiz-adv-x="826" 
d="M780 355q0 -154 -106.5 -260.5t-260.5 -106.5q-120 0 -215 68l-68 -76l-56 52l67 75q-95 105 -95 248q0 154 107 260.5t260 106.5q120 0 216 -68l68 76l55 -51l-67 -75q95 -105 95 -249zM140 355q0 -102 62 -180l367 411q-68 48 -156 48q-116 0 -194.5 -81t-78.5 -198z
M687 355q0 104 -63 180l-366 -411q67 -48 155 -48q117 0 195.5 81t78.5 198z" />
    <glyph glyph-name="Ugrave" unicode="&#xd9;" horiz-adv-x="726" 
d="M396 768h-72l-115 137h109zM641 276q0 -131 -77 -209.5t-201 -78.5t-201 78.5t-77 209.5v434h93v-436q0 -94 50 -146t135 -52t135 52t50 146v436h93v-434z" />
    <glyph glyph-name="Uacute" unicode="&#xda;" horiz-adv-x="726" 
d="M329 768l78 137h109l-115 -137h-72zM641 276q0 -131 -77 -209.5t-201 -78.5t-201 78.5t-77 209.5v434h93v-436q0 -94 50 -146t135 -52t135 52t50 146v436h93v-434z" />
    <glyph glyph-name="Ucircumflex" unicode="&#xdb;" horiz-adv-x="726" 
d="M190 768l127 137h93l127 -137h-93l-81 83l-80 -83h-93zM641 276q0 -131 -77 -209.5t-201 -78.5t-201 78.5t-77 209.5v434h93v-436q0 -94 50 -146t135 -52t135 52t50 146v436h93v-434z" />
    <glyph glyph-name="Udieresis" unicode="&#xdc;" horiz-adv-x="726" 
d="M309 843q0 -24 -17 -41t-41 -17q-25 0 -42 17t-17 41t17 41.5t42 17.5q24 0 41 -17.5t17 -41.5zM534 843q0 -24 -17 -41t-41 -17t-41.5 17t-17.5 41t17.5 41.5t41.5 17.5t41 -17.5t17 -41.5zM641 276q0 -131 -77 -209.5t-201 -78.5t-201 78.5t-77 209.5v434h93v-436
q0 -94 50 -146t135 -52t135 52t50 146v436h93v-434z" />
    <glyph glyph-name="Yacute" unicode="&#xdd;" horiz-adv-x="674" 
d="M303 768l78 137h109l-115 -137h-72zM291 0v301l-276 409h111l211 -316l212 316h111l-277 -410v-300h-92z" />
    <glyph glyph-name="Thorn" unicode="&#xde;" horiz-adv-x="595" 
d="M311 581q109 0 176.5 -64t67.5 -162q0 -97 -67.5 -161t-176.5 -64h-124v-130h-93v710h93v-129h124zM311 216q71 0 111.5 39t40.5 100t-40.5 100.5t-111.5 39.5h-124v-279h124z" />
    <glyph glyph-name="germandbls" unicode="&#xdf;" horiz-adv-x="573" 
d="M81 0v527q0 93 59 151t146 58q84 0 144.5 -55.5t60.5 -135.5q0 -48 -23 -89.5t-64 -67.5q60 -25 94 -74.5t34 -105.5q0 -86 -63.5 -147t-166.5 -61h-51v81h47q64 0 106 36t42 93t-42 93.5t-106 36.5h-45v80h26q55 0 90.5 34t35.5 83q0 50 -34 84t-84 34
q-51 0 -85.5 -36.5t-34.5 -92.5v-526h-86z" />
    <glyph glyph-name="agrave" unicode="&#xe0;" horiz-adv-x="623" 
d="M368 574h-72l-125 156h109zM456 55q-60 -65 -163 -65q-110 0 -180.5 75.5t-70.5 184.5t70.5 184.5t180.5 75.5q103 0 163 -65v55h86v-500h-86v55zM130 250q0 -76 47.5 -128.5t122.5 -52.5q105 0 156 83v197q-52 82 -156 82q-75 0 -122.5 -52.5t-47.5 -128.5z" />
    <glyph glyph-name="aacute" unicode="&#xe1;" horiz-adv-x="623" 
d="M295 574l88 156h109l-125 -156h-72zM456 55q-60 -65 -163 -65q-110 0 -180.5 75.5t-70.5 184.5t70.5 184.5t180.5 75.5q103 0 163 -65v55h86v-500h-86v55zM130 250q0 -76 47.5 -128.5t122.5 -52.5q105 0 156 83v197q-52 82 -156 82q-75 0 -122.5 -52.5t-47.5 -128.5z" />
    <glyph glyph-name="acircumflex" unicode="&#xe2;" horiz-adv-x="623" 
d="M161 578l127 152h88l127 -152h-90l-81 94l-81 -94h-90zM456 55q-60 -65 -163 -65q-110 0 -180.5 75.5t-70.5 184.5t70.5 184.5t180.5 75.5q103 0 163 -65v55h86v-500h-86v55zM130 250q0 -76 47.5 -128.5t122.5 -52.5q105 0 156 83v197q-52 82 -156 82q-75 0 -122.5 -52.5
t-47.5 -128.5z" />
    <glyph glyph-name="atilde" unicode="&#xe3;" horiz-adv-x="623" 
d="M158 593l3 18q8 43 37 69t69 26q29 0 72.5 -22t56.5 -22q33 0 43 44h66l-3 -18q-8 -43 -37 -69t-69 -26q-29 0 -72.5 22t-56.5 22q-33 0 -43 -44h-66zM456 55q-60 -65 -163 -65q-110 0 -180.5 75.5t-70.5 184.5t70.5 184.5t180.5 75.5q103 0 163 -65v55h86v-500h-86v55z
M130 250q0 -76 47.5 -128.5t122.5 -52.5q105 0 156 83v197q-52 82 -156 82q-75 0 -122.5 -52.5t-47.5 -128.5z" />
    <glyph glyph-name="adieresis" unicode="&#xe4;" horiz-adv-x="623" 
d="M278 652q0 -24 -17 -41t-41 -17q-25 0 -42 17t-17 41t17 41.5t42 17.5q24 0 41 -17.5t17 -41.5zM503 652q0 -24 -17 -41t-41 -17t-41.5 17t-17.5 41t17.5 41.5t41.5 17.5t41 -17.5t17 -41.5zM456 55q-60 -65 -163 -65q-110 0 -180.5 75.5t-70.5 184.5t70.5 184.5
t180.5 75.5q103 0 163 -65v55h86v-500h-86v55zM130 250q0 -76 47.5 -128.5t122.5 -52.5q105 0 156 83v197q-52 82 -156 82q-75 0 -122.5 -52.5t-47.5 -128.5z" />
    <glyph glyph-name="aring" unicode="&#xe5;" horiz-adv-x="623" 
d="M454 662q0 -50 -35.5 -85.5t-85.5 -35.5t-86 35.5t-36 85.5t36 85.5t86 35.5q49 0 85 -35.5t36 -85.5zM322 603q23 -5 44.5 9.5t25.5 38.5t-10.5 44.5t-37.5 25.5q-24 4 -44.5 -10t-25.5 -38t9.5 -44.5t38.5 -25.5zM456 55q-60 -65 -163 -65q-110 0 -180.5 75.5
t-70.5 184.5t70.5 184.5t180.5 75.5q103 0 163 -65v55h86v-500h-86v55zM130 250q0 -76 47.5 -128.5t122.5 -52.5q105 0 156 83v197q-52 82 -156 82q-75 0 -122.5 -52.5t-47.5 -128.5z" />
    <glyph glyph-name="ae" unicode="&#xe6;" horiz-adv-x="925" 
d="M870 109q-73 -119 -222 -119q-129 0 -202 91q-79 -91 -208 -91q-87 0 -141 46.5t-54 121.5q0 71 57.5 116.5t143.5 45.5q75 0 144 -38v23q-1 64 -38.5 95t-93.5 31q-82 0 -143 -56l-39 72q33 28 83 45.5t101 17.5q132 0 185 -97q74 97 205 97q100 0 167.5 -67.5
t68.5 -183.5v-26h-411q2 -71 50.5 -117.5t122.5 -46.5q105 0 156 87zM643 434q-59 0 -105.5 -35.5t-58.5 -95.5h317q-9 60 -52 95.5t-101 35.5zM129 158q0 -46 32.5 -68.5t79.5 -22.5q107 0 147 68v68q-60 47 -138 47q-52 0 -86.5 -23t-34.5 -69z" />
    <glyph glyph-name="ccedilla" unicode="&#xe7;" horiz-adv-x="565" 
d="M200 -187l13 50q33 -14 69 -14q57 0 57 33q0 27 -39 27q-23 0 -46 -9l-31 22l43 71q-98 13 -161 85.5t-63 171.5q0 110 75 185t187 75q76 0 136.5 -36.5t94.5 -97.5l-75 -42q-22 44 -62.5 70t-93.5 26q-77 0 -126 -52t-49 -128t49 -128t126 -52q53 0 93.5 26t62.5 70
l75 -42q-32 -58 -88.5 -94t-127.5 -40l-24 -39q16 7 38 7q33 0 54.5 -19.5t21.5 -52.5q0 -42 -34 -66t-88 -24q-50 0 -87 17z" />
    <glyph glyph-name="egrave" unicode="&#xe8;" horiz-adv-x="581" 
d="M340 574h-72l-125 156h109zM42 250q0 111 73.5 185.5t186.5 74.5q102 0 169.5 -67.5t68.5 -183.5q0 -15 -1 -26h-410q2 -71 50.5 -117.5t122.5 -46.5q105 0 156 87l68 -47q-73 -119 -225 -119q-115 0 -187 74t-72 186zM299 434q-59 0 -105.5 -35.5t-58.5 -95.5h317
q-9 60 -52 95.5t-101 35.5z" />
    <glyph glyph-name="eacute" unicode="&#xe9;" horiz-adv-x="581" 
d="M267 574l88 156h109l-125 -156h-72zM42 250q0 111 73.5 185.5t186.5 74.5q102 0 169.5 -67.5t68.5 -183.5q0 -15 -1 -26h-410q2 -71 50.5 -117.5t122.5 -46.5q105 0 156 87l68 -47q-73 -119 -225 -119q-115 0 -187 74t-72 186zM299 434q-59 0 -105.5 -35.5t-58.5 -95.5
h317q-9 60 -52 95.5t-101 35.5z" />
    <glyph glyph-name="ecircumflex" unicode="&#xea;" horiz-adv-x="581" 
d="M132 578l127 152h88l127 -152h-90l-81 94l-81 -94h-90zM42 250q0 111 73.5 185.5t186.5 74.5q102 0 169.5 -67.5t68.5 -183.5q0 -15 -1 -26h-410q2 -71 50.5 -117.5t122.5 -46.5q105 0 156 87l68 -47q-73 -119 -225 -119q-115 0 -187 74t-72 186zM299 434
q-59 0 -105.5 -35.5t-58.5 -95.5h317q-9 60 -52 95.5t-101 35.5z" />
    <glyph glyph-name="edieresis" unicode="&#xeb;" horiz-adv-x="581" 
d="M249 652q0 -24 -17 -41t-41 -17q-25 0 -42 17t-17 41t17 41.5t42 17.5q24 0 41 -17.5t17 -41.5zM474 652q0 -24 -17 -41t-41 -17t-41.5 17t-17.5 41t17.5 41.5t41.5 17.5t41 -17.5t17 -41.5zM42 250q0 111 73.5 185.5t186.5 74.5q102 0 169.5 -67.5t68.5 -183.5
q0 -15 -1 -26h-410q2 -71 50.5 -117.5t122.5 -46.5q105 0 156 87l68 -47q-73 -119 -225 -119q-115 0 -187 74t-72 186zM299 434q-59 0 -105.5 -35.5t-58.5 -95.5h317q-9 60 -52 95.5t-101 35.5z" />
    <glyph glyph-name="igrave" unicode="&#xec;" horiz-adv-x="249" 
d="M161 574h-72l-125 156h109zM81 0v500h86v-500h-86z" />
    <glyph glyph-name="iacute" unicode="&#xed;" horiz-adv-x="249" 
d="M88 574l88 156h109l-125 -156h-72zM81 0v500h86v-500h-86z" />
    <glyph glyph-name="icircumflex" unicode="&#xee;" horiz-adv-x="249" 
d="M-47 578l127 152h88l127 -152h-90l-81 94l-81 -94h-90zM81 0v500h86v-500h-86z" />
    <glyph glyph-name="idieresis" unicode="&#xef;" horiz-adv-x="249" 
d="M87 657q0 -25 -18 -43t-43 -18q-26 0 -43.5 18t-17.5 43t18 42.5t43 17.5t43 -17.5t18 -42.5zM283 657q0 -25 -18 -43t-43 -18q-26 0 -43.5 18t-17.5 43t18 42.5t43 17.5t43 -17.5t18 -42.5zM81 0v500h86v-500h-86z" />
    <glyph glyph-name="eth" unicode="&#xf0;" horiz-adv-x="607" 
d="M478 574h-78l111 -164q54 -80 54 -160q0 -108 -75 -184t-187 -76q-111 0 -186 76t-75 184q0 110 75.5 184.5t182.5 74.5q27 0 53 -5l-47 70h-143v68h97l-60 88h95l59 -88h124v-68zM129 250q0 -76 48.5 -128t125.5 -52t125.5 52t48.5 128t-48.5 128t-125.5 52t-125.5 -52
t-48.5 -128z" />
    <glyph glyph-name="ntilde" unicode="&#xf1;" horiz-adv-x="589" 
d="M124 593l3 18q8 43 37 69t69 26q29 0 72.5 -22t56.5 -22q33 0 43 44h66l-3 -18q-8 -43 -37 -69t-69 -26q-29 0 -72.5 22t-56.5 22q-33 0 -43 -44h-66zM81 0v500h86v-63q51 73 158 73q85 0 137.5 -55t52.5 -148v-307h-85v294q0 65 -33.5 101t-91.5 36q-51 0 -86.5 -27
t-51.5 -72v-332h-86z" />
    <glyph glyph-name="ograve" unicode="&#xf2;" horiz-adv-x="606" 
d="M339 574h-72l-125 156h109zM564 250q0 -109 -74.5 -184.5t-186.5 -75.5t-187 75.5t-75 184.5t75 184.5t187 75.5t186.5 -75.5t74.5 -184.5zM129 250q0 -76 48.5 -128t125.5 -52t125 52t48 128t-48 128t-125 52t-125.5 -52t-48.5 -128z" />
    <glyph glyph-name="oacute" unicode="&#xf3;" horiz-adv-x="606" 
d="M266 574l88 156h109l-125 -156h-72zM564 250q0 -109 -74.5 -184.5t-186.5 -75.5t-187 75.5t-75 184.5t75 184.5t187 75.5t186.5 -75.5t74.5 -184.5zM129 250q0 -76 48.5 -128t125.5 -52t125 52t48 128t-48 128t-125 52t-125.5 -52t-48.5 -128z" />
    <glyph glyph-name="ocircumflex" unicode="&#xf4;" horiz-adv-x="606" 
d="M132 578l127 152h88l127 -152h-90l-81 94l-81 -94h-90zM564 250q0 -109 -74.5 -184.5t-186.5 -75.5t-187 75.5t-75 184.5t75 184.5t187 75.5t186.5 -75.5t74.5 -184.5zM129 250q0 -76 48.5 -128t125.5 -52t125 52t48 128t-48 128t-125 52t-125.5 -52t-48.5 -128z" />
    <glyph glyph-name="otilde" unicode="&#xf5;" horiz-adv-x="606" 
d="M129 593l3 18q8 43 37 69t69 26q29 0 72.5 -22t56.5 -22q33 0 43 44h66l-3 -18q-8 -43 -37 -69t-69 -26q-29 0 -72.5 22t-56.5 22q-33 0 -43 -44h-66zM564 250q0 -109 -74.5 -184.5t-186.5 -75.5t-187 75.5t-75 184.5t75 184.5t187 75.5t186.5 -75.5t74.5 -184.5z
M129 250q0 -76 48.5 -128t125.5 -52t125 52t48 128t-48 128t-125 52t-125.5 -52t-48.5 -128z" />
    <glyph glyph-name="odieresis" unicode="&#xf6;" horiz-adv-x="606" 
d="M249 652q0 -24 -17 -41t-41 -17q-25 0 -42 17t-17 41t17 41.5t42 17.5q24 0 41 -17.5t17 -41.5zM474 652q0 -24 -17 -41t-41 -17t-41.5 17t-17.5 41t17.5 41.5t41.5 17.5t41 -17.5t17 -41.5zM564 250q0 -109 -74.5 -184.5t-186.5 -75.5t-187 75.5t-75 184.5t75 184.5
t187 75.5t186.5 -75.5t74.5 -184.5zM129 250q0 -76 48.5 -128t125.5 -52t125 52t48 128t-48 128t-125 52t-125.5 -52t-48.5 -128z" />
    <glyph glyph-name="oslash" unicode="&#xf8;" horiz-adv-x="616" 
d="M569 250q0 -109 -74.5 -184.5t-186.5 -75.5q-94 0 -162 54l-53 -54l-40 40l52 53q-59 72 -59 167q0 109 75 184.5t187 75.5q93 0 163 -54l53 54l39 -39l-53 -54q59 -72 59 -167zM134 250q0 -60 31 -106l248 252q-43 34 -105 34q-77 0 -125.5 -52t-48.5 -128zM481 250
q0 59 -30 106l-247 -253q44 -33 104 -33q77 0 125 52t48 128z" />
    <glyph glyph-name="ugrave" unicode="&#xf9;" horiz-adv-x="579" 
d="M321 574h-72l-125 156h109zM497 500v-500h-85v63q-25 -36 -66 -54.5t-85 -18.5q-84 0 -136 55t-52 148v307h86v-294q0 -65 32.5 -101t88.5 -36q47 0 81.5 27t50.5 72v332h85z" />
    <glyph glyph-name="uacute" unicode="&#xfa;" horiz-adv-x="579" 
d="M248 574l88 156h109l-125 -156h-72zM497 500v-500h-85v63q-25 -36 -66 -54.5t-85 -18.5q-84 0 -136 55t-52 148v307h86v-294q0 -65 32.5 -101t88.5 -36q47 0 81.5 27t50.5 72v332h85z" />
    <glyph glyph-name="ucircumflex" unicode="&#xfb;" horiz-adv-x="579" 
d="M114 578l127 152h88l127 -152h-90l-81 94l-81 -94h-90zM497 500v-500h-85v63q-25 -36 -66 -54.5t-85 -18.5q-84 0 -136 55t-52 148v307h86v-294q0 -65 32.5 -101t88.5 -36q47 0 81.5 27t50.5 72v332h85z" />
    <glyph glyph-name="udieresis" unicode="&#xfc;" horiz-adv-x="579" 
d="M231 652q0 -24 -17 -41t-41 -17q-25 0 -42 17t-17 41t17 41.5t42 17.5q24 0 41 -17.5t17 -41.5zM456 652q0 -24 -17 -41t-41 -17t-41.5 17t-17.5 41t17.5 41.5t41.5 17.5t41 -17.5t17 -41.5zM497 500v-500h-85v63q-25 -36 -66 -54.5t-85 -18.5q-84 0 -136 55t-52 148v307
h86v-294q0 -65 32.5 -101t88.5 -36q47 0 81.5 27t50.5 72v332h85z" />
    <glyph glyph-name="yacute" unicode="&#xfd;" horiz-adv-x="547" 
d="M238 574l88 156h109l-125 -156h-72zM221 -194h-96l102 220l-219 474h95l172 -379l171 379h96z" />
    <glyph glyph-name="thorn" unicode="&#xfe;" horiz-adv-x="624" 
d="M81 -194v924h86v-285q62 65 163 65q110 0 181 -75.5t71 -184.5t-71 -184.5t-181 -75.5q-101 0 -163 65v-249h-86zM167 152q51 -83 156 -83q75 0 122.5 52.5t47.5 128.5t-47.5 128.5t-122.5 52.5q-104 0 -156 -82v-197z" />
    <glyph glyph-name="ydieresis" unicode="&#xff;" horiz-adv-x="547" 
d="M221 652q0 -24 -17 -41t-41 -17q-25 0 -42 17t-17 41t17 41.5t42 17.5q24 0 41 -17.5t17 -41.5zM446 652q0 -24 -17 -41t-41 -17t-41.5 17t-17.5 41t17.5 41.5t41.5 17.5t41 -17.5t17 -41.5zM221 -194h-96l102 220l-219 474h95l172 -379l171 379h96z" />
    <glyph glyph-name="Amacron" unicode="&#x100;" horiz-adv-x="718" 
d="M197 805v69h322v-69h-322zM6 0l314 710h77l315 -710h-97l-91 207h-331l-91 -207h-96zM229 291h258l-129 293z" />
    <glyph glyph-name="amacron" unicode="&#x101;" horiz-adv-x="623" 
d="M171 641v69h322v-69h-322zM456 55q-60 -65 -163 -65q-110 0 -180.5 75.5t-70.5 184.5t70.5 184.5t180.5 75.5q103 0 163 -65v55h86v-500h-86v55zM130 250q0 -76 47.5 -128.5t122.5 -52.5q105 0 156 83v197q-52 82 -156 82q-75 0 -122.5 -52.5t-47.5 -128.5z" />
    <glyph glyph-name="Abreve" unicode="&#x102;" horiz-adv-x="718" 
d="M199 917h58q0 -47 28.5 -74t72.5 -27t72.5 27t28.5 74h58q0 -71 -45.5 -114.5t-113.5 -43.5t-113.5 43.5t-45.5 114.5zM6 0l314 710h77l315 -710h-97l-91 207h-331l-91 -207h-96zM229 291h258l-129 293z" />
    <glyph glyph-name="abreve" unicode="&#x103;" horiz-adv-x="623" 
d="M491 720q0 -72 -45.5 -115.5t-113.5 -43.5t-113.5 43.5t-45.5 115.5v10h58v-10q0 -48 28.5 -75t72.5 -27t72.5 27t28.5 75v10h58v-10zM456 55q-60 -65 -163 -65q-110 0 -180.5 75.5t-70.5 184.5t70.5 184.5t180.5 75.5q103 0 163 -65v55h86v-500h-86v55zM130 250
q0 -76 47.5 -128.5t122.5 -52.5q105 0 156 83v197q-52 82 -156 82q-75 0 -122.5 -52.5t-47.5 -128.5z" />
    <glyph glyph-name="Aogonek" unicode="&#x104;" horiz-adv-x="718" 
d="M6 0l314 710h77l315 -710q-84 -53 -84 -100q0 -32 36 -32q19 0 34 9l28 -56q-33 -25 -81 -25q-43 0 -70.5 24t-27.5 62q0 63 68 118l-91 207h-331l-91 -207h-96zM229 291h258l-129 293z" />
    <glyph glyph-name="aogonek" unicode="&#x105;" horiz-adv-x="623" 
d="M456 55q-60 -65 -163 -65q-110 0 -180.5 75.5t-70.5 184.5t70.5 184.5t180.5 75.5q103 0 163 -65v55h86v-500q-84 -53 -84 -101q0 -16 10.5 -25t25.5 -9q21 0 36 9l27 -53q-33 -25 -81 -25q-43 0 -68.5 24t-25.5 62q0 59 74 118v55zM130 250q0 -76 47.5 -128.5
t122.5 -52.5q105 0 156 83v197q-52 82 -156 82q-75 0 -122.5 -52.5t-47.5 -128.5z" />
    <glyph glyph-name="Cacute" unicode="&#x106;" horiz-adv-x="755" 
d="M379 768l78 137h109l-115 -137h-72zM45 355q0 154 107 260.5t260 106.5q100 0 182.5 -46t131.5 -126l-78 -47q-38 61 -99 96t-137 35q-116 0 -194.5 -81t-78.5 -198t78.5 -198t194.5 -81q76 0 137 35t99 96l78 -47q-49 -80 -131.5 -126t-182.5 -46q-153 0 -260 106.5
t-107 260.5z" />
    <glyph glyph-name="cacute" unicode="&#x107;" horiz-adv-x="565" 
d="M267 574l88 156h109l-125 -156h-72zM535 124q-34 -61 -94.5 -97.5t-136.5 -36.5q-112 0 -187 75t-75 185t75 185t187 75q76 0 136.5 -36.5t94.5 -97.5l-75 -42q-22 44 -62.5 70t-93.5 26q-77 0 -126 -52t-49 -128t49 -128t126 -52q53 0 93.5 26t62.5 70z" />
    <glyph glyph-name="Ccircumflex" unicode="&#x108;" horiz-adv-x="755" 
d="M239 768l127 137h93l127 -137h-93l-81 83l-80 -83h-93zM45 355q0 154 107 260.5t260 106.5q100 0 182.5 -46t131.5 -126l-78 -47q-38 61 -99 96t-137 35q-116 0 -194.5 -81t-78.5 -198t78.5 -198t194.5 -81q76 0 137 35t99 96l78 -47q-49 -80 -131.5 -126t-182.5 -46
q-153 0 -260 106.5t-107 260.5z" />
    <glyph glyph-name="ccircumflex" unicode="&#x109;" horiz-adv-x="565" 
d="M133 578l127 152h88l127 -152h-90l-81 94l-81 -94h-90zM535 124q-34 -61 -94.5 -97.5t-136.5 -36.5q-112 0 -187 75t-75 185t75 185t187 75q76 0 136.5 -36.5t94.5 -97.5l-75 -42q-22 44 -62.5 70t-93.5 26q-77 0 -126 -52t-49 -128t49 -128t126 -52q53 0 93.5 26
t62.5 70z" />
    <glyph glyph-name="Cdotaccent" unicode="&#x10a;" horiz-adv-x="755" 
d="M470 843q0 -24 -17 -41t-41 -17q-25 0 -42 17t-17 41t17 41.5t42 17.5q24 0 41 -17.5t17 -41.5zM45 355q0 154 107 260.5t260 106.5q100 0 182.5 -46t131.5 -126l-78 -47q-38 61 -99 96t-137 35q-116 0 -194.5 -81t-78.5 -198t78.5 -198t194.5 -81q76 0 137 35t99 96
l78 -47q-49 -80 -131.5 -126t-182.5 -46q-153 0 -260 106.5t-107 260.5z" />
    <glyph glyph-name="cdotaccent" unicode="&#x10b;" horiz-adv-x="565" 
d="M362 652q0 -24 -17 -41t-41 -17q-25 0 -42 17t-17 41t17 41.5t42 17.5q24 0 41 -17.5t17 -41.5zM535 124q-34 -61 -94.5 -97.5t-136.5 -36.5q-112 0 -187 75t-75 185t75 185t187 75q76 0 136.5 -36.5t94.5 -97.5l-75 -42q-22 44 -62.5 70t-93.5 26q-77 0 -126 -52
t-49 -128t49 -128t126 -52q53 0 93.5 26t62.5 70z" />
    <glyph glyph-name="Ccaron" unicode="&#x10c;" horiz-adv-x="755" 
d="M366 768l-127 137h93l80 -83l81 83h93l-127 -137h-93zM45 355q0 154 107 260.5t260 106.5q100 0 182.5 -46t131.5 -126l-78 -47q-38 61 -99 96t-137 35q-116 0 -194.5 -81t-78.5 -198t78.5 -198t194.5 -81q76 0 137 35t99 96l78 -47q-49 -80 -131.5 -126t-182.5 -46
q-153 0 -260 106.5t-107 260.5z" />
    <glyph glyph-name="ccaron" unicode="&#x10d;" horiz-adv-x="565" 
d="M133 730h90l81 -94l81 94h90l-127 -152h-88zM535 124q-34 -61 -94.5 -97.5t-136.5 -36.5q-112 0 -187 75t-75 185t75 185t187 75q76 0 136.5 -36.5t94.5 -97.5l-75 -42q-22 44 -62.5 70t-93.5 26q-77 0 -126 -52t-49 -128t49 -128t126 -52q53 0 93.5 26t62.5 70z" />
    <glyph glyph-name="Dcaron" unicode="&#x10e;" horiz-adv-x="721" 
d="M295 768l-127 137h93l80 -83l81 83h93l-127 -137h-93zM94 0v710h204q163 0 270.5 -101t107.5 -254t-107.5 -254t-270.5 -101h-204zM187 87h111q127 0 205.5 75.5t78.5 192.5t-78.5 192.5t-205.5 75.5h-111v-536z" />
    <glyph glyph-name="dcaron" unicode="&#x10f;" horiz-adv-x="623" 
d="M42 250q0 109 70.5 184.5t180.5 75.5q103 0 163 -65v285h86v-730h-86v55q-60 -65 -163 -65q-110 0 -180.5 75.5t-70.5 184.5zM578 565l24 165h86l-50 -165h-60zM456 152v197q-52 82 -156 82q-75 0 -122.5 -52.5t-47.5 -128.5t47.5 -128.5t122.5 -52.5q105 0 156 83z" />
    <glyph glyph-name="Dcroat" unicode="&#x110;" horiz-adv-x="729" 
d="M101 0v319h-73v82h73v309h204q163 0 270.5 -101t107.5 -254t-107.5 -254t-270.5 -101h-204zM194 87h111q127 0 205.5 75.5t78.5 192.5t-78.5 192.5t-205.5 75.5h-111v-222h160v-82h-160v-232z" />
    <glyph glyph-name="dcroat" unicode="&#x111;" horiz-adv-x="623" 
d="M42 250q0 109 70.5 184.5t180.5 75.5q103 0 163 -65v132h-159v68h159v85h86v-85h78v-68h-78v-577h-86v55q-60 -65 -163 -65q-110 0 -180.5 75.5t-70.5 184.5zM456 152v197q-52 82 -156 82q-75 0 -122.5 -52.5t-47.5 -128.5t47.5 -128.5t122.5 -52.5q105 0 156 83z" />
    <glyph glyph-name="Emacron" unicode="&#x112;" horiz-adv-x="557" 
d="M140 805v69h322v-69h-322zM94 0v710h414v-88h-321v-215h261v-88h-261v-231h321v-88h-414z" />
    <glyph glyph-name="emacron" unicode="&#x113;" horiz-adv-x="581" 
d="M142 641v69h322v-69h-322zM42 250q0 111 73.5 185.5t186.5 74.5q102 0 169.5 -67.5t68.5 -183.5q0 -15 -1 -26h-410q2 -71 50.5 -117.5t122.5 -46.5q105 0 156 87l68 -47q-73 -119 -225 -119q-115 0 -187 74t-72 186zM299 434q-59 0 -105.5 -35.5t-58.5 -95.5h317
q-9 60 -52 95.5t-101 35.5z" />
    <glyph glyph-name="Ebreve" unicode="&#x114;" horiz-adv-x="557" 
d="M142 917h58q0 -47 28.5 -74t72.5 -27t72.5 27t28.5 74h58q0 -71 -45.5 -114.5t-113.5 -43.5t-113.5 43.5t-45.5 114.5zM94 0v710h414v-88h-321v-215h261v-88h-261v-231h321v-88h-414z" />
    <glyph glyph-name="ebreve" unicode="&#x115;" horiz-adv-x="581" 
d="M462 720q0 -72 -45.5 -115.5t-113.5 -43.5t-113.5 43.5t-45.5 115.5v10h58v-10q0 -48 28.5 -75t72.5 -27t72.5 27t28.5 75v10h58v-10zM42 250q0 111 73.5 185.5t186.5 74.5q102 0 169.5 -67.5t68.5 -183.5q0 -15 -1 -26h-410q2 -71 50.5 -117.5t122.5 -46.5q105 0 156 87
l68 -47q-73 -119 -225 -119q-115 0 -187 74t-72 186zM299 434q-59 0 -105.5 -35.5t-58.5 -95.5h317q-9 60 -52 95.5t-101 35.5z" />
    <glyph glyph-name="Edotaccent" unicode="&#x116;" horiz-adv-x="557" 
d="M359 843q0 -24 -17 -41t-41 -17q-25 0 -42 17t-17 41t17 41.5t42 17.5q24 0 41 -17.5t17 -41.5zM94 0v710h414v-88h-321v-215h261v-88h-261v-231h321v-88h-414z" />
    <glyph glyph-name="edotaccent" unicode="&#x117;" horiz-adv-x="581" 
d="M361 652q0 -24 -17 -41t-41 -17q-25 0 -42 17t-17 41t17 41.5t42 17.5q24 0 41 -17.5t17 -41.5zM42 250q0 111 73.5 185.5t186.5 74.5q102 0 169.5 -67.5t68.5 -183.5q0 -15 -1 -26h-410q2 -71 50.5 -117.5t122.5 -46.5q105 0 156 87l68 -47q-73 -119 -225 -119
q-115 0 -187 74t-72 186zM299 434q-59 0 -105.5 -35.5t-58.5 -95.5h317q-9 60 -52 95.5t-101 35.5z" />
    <glyph glyph-name="Eogonek" unicode="&#x118;" horiz-adv-x="557" 
d="M94 0v710h414v-88h-321v-215h261v-88h-261v-231h321v-88q-84 -53 -84 -99q0 -31 36 -31q19 0 34 9l29 -58q-33 -25 -82 -25q-43 0 -71 24.5t-28 61.5q0 59 74 118h-322z" />
    <glyph glyph-name="eogonek" unicode="&#x119;" horiz-adv-x="581" 
d="M533 -179q-38 -25 -88 -25q-41 0 -69 23.5t-28 64.5q0 56 58 128q-39 -22 -105 -22q-115 0 -187 74t-72 186q0 111 73.5 185.5t186.5 74.5q102 0 169.5 -67.5t68.5 -183.5q0 -15 -1 -26h-410q2 -71 50.5 -117.5t122.5 -46.5q105 0 156 87l68 -47q-100 -140 -100 -198
q0 -46 45 -46q20 0 34 9zM299 434q-59 0 -105.5 -35.5t-58.5 -95.5h317q-9 60 -52 95.5t-101 35.5z" />
    <glyph glyph-name="Ecaron" unicode="&#x11a;" horiz-adv-x="557" 
d="M255 768l-127 137h93l80 -83l81 83h93l-127 -137h-93zM94 0v710h414v-88h-321v-215h261v-88h-261v-231h321v-88h-414z" />
    <glyph glyph-name="ecaron" unicode="&#x11b;" horiz-adv-x="581" 
d="M132 730h90l81 -94l81 94h90l-127 -152h-88zM42 250q0 111 73.5 185.5t186.5 74.5q102 0 169.5 -67.5t68.5 -183.5q0 -15 -1 -26h-410q2 -71 50.5 -117.5t122.5 -46.5q105 0 156 87l68 -47q-73 -119 -225 -119q-115 0 -187 74t-72 186zM299 434q-59 0 -105.5 -35.5
t-58.5 -95.5h317q-9 60 -52 95.5t-101 35.5z" />
    <glyph glyph-name="Gcircumflex" unicode="&#x11c;" horiz-adv-x="765" 
d="M244 768l127 137h93l127 -137h-93l-81 83l-80 -83h-93zM707 88q-47 -49 -121.5 -74.5t-157.5 -25.5q-167 0 -274.5 105t-107.5 262q0 155 106 261t264 106q163 0 267 -99l-62 -67q-85 78 -205 78t-198.5 -80.5t-78.5 -198.5q0 -120 79.5 -199.5t209.5 -79.5q123 0 189 53
v190h-201v87h291v-318z" />
    <glyph glyph-name="gcircumflex" unicode="&#x11d;" horiz-adv-x="625" 
d="M152 578l127 152h88l127 -152h-90l-81 94l-81 -94h-90zM544 30q0 -114 -71 -174t-179 -60q-74 0 -133 25.5t-92 66.5l59 60q63 -74 166 -74q66 0 115 40.5t49 118.5v38q-60 -66 -163 -66q-109 0 -181.5 73.5t-71.5 179.5t72.5 179t180.5 73q103 0 163 -65v55h86v-470z
M131 258q1 -74 49 -123.5t122 -49.5q104 0 156 82v182q-52 82 -156 82q-74 0 -123 -50t-48 -123z" />
    <glyph glyph-name="Gbreve" unicode="&#x11e;" horiz-adv-x="765" 
d="M258 917h58q0 -47 28.5 -74t72.5 -27t72.5 27t28.5 74h58q0 -71 -45.5 -114.5t-113.5 -43.5t-113.5 43.5t-45.5 114.5zM707 88q-47 -49 -121.5 -74.5t-157.5 -25.5q-167 0 -274.5 105t-107.5 262q0 155 106 261t264 106q163 0 267 -99l-62 -67q-85 78 -205 78
t-198.5 -80.5t-78.5 -198.5q0 -120 79.5 -199.5t209.5 -79.5q123 0 189 53v190h-201v87h291v-318z" />
    <glyph glyph-name="gbreve" unicode="&#x11f;" horiz-adv-x="625" 
d="M482 720q0 -72 -45.5 -115.5t-113.5 -43.5t-113.5 43.5t-45.5 115.5v10h58v-10q0 -48 28.5 -75t72.5 -27t72.5 27t28.5 75v10h58v-10zM544 30q0 -114 -71 -174t-179 -60q-74 0 -133 25.5t-92 66.5l59 60q63 -74 166 -74q66 0 115 40.5t49 118.5v38q-60 -66 -163 -66
q-109 0 -181.5 73.5t-71.5 179.5t72.5 179t180.5 73q103 0 163 -65v55h86v-470zM131 258q1 -74 49 -123.5t122 -49.5q104 0 156 82v182q-52 82 -156 82q-74 0 -123 -50t-48 -123z" />
    <glyph glyph-name="Gdotaccent" unicode="&#x120;" horiz-adv-x="765" 
d="M475 843q0 -24 -17 -41t-41 -17q-25 0 -42 17t-17 41t17 41.5t42 17.5q24 0 41 -17.5t17 -41.5zM707 88q-47 -49 -121.5 -74.5t-157.5 -25.5q-167 0 -274.5 105t-107.5 262q0 155 106 261t264 106q163 0 267 -99l-62 -67q-85 78 -205 78t-198.5 -80.5t-78.5 -198.5
q0 -120 79.5 -199.5t209.5 -79.5q123 0 189 53v190h-201v87h291v-318z" />
    <glyph glyph-name="gdotaccent" unicode="&#x121;" horiz-adv-x="625" 
d="M381 652q0 -24 -17 -41t-41 -17q-25 0 -42 17t-17 41t17 41.5t42 17.5q24 0 41 -17.5t17 -41.5zM544 30q0 -114 -71 -174t-179 -60q-74 0 -133 25.5t-92 66.5l59 60q63 -74 166 -74q66 0 115 40.5t49 118.5v38q-60 -66 -163 -66q-109 0 -181.5 73.5t-71.5 179.5t72.5 179
t180.5 73q103 0 163 -65v55h86v-470zM131 258q1 -74 49 -123.5t122 -49.5q104 0 156 82v182q-52 82 -156 82q-74 0 -123 -50t-48 -123z" />
    <glyph glyph-name="Gcommaaccent" unicode="&#x122;" horiz-adv-x="765" 
d="M707 88q-47 -49 -121.5 -74.5t-157.5 -25.5q-167 0 -274.5 105t-107.5 262q0 155 106 261t264 106q163 0 267 -99l-62 -67q-85 78 -205 78t-198.5 -80.5t-78.5 -198.5q0 -120 79.5 -199.5t209.5 -79.5q123 0 189 53v190h-201v87h291v-318zM432 -273h-47l26 93h-47v104
h106v-104z" />
    <glyph glyph-name="gcommaaccent" unicode="&#x123;" horiz-adv-x="625" 
d="M308 797h47l-26 -93h47v-105h-106v105zM544 30q0 -114 -71 -174t-179 -60q-74 0 -133 25.5t-92 66.5l59 60q63 -74 166 -74q66 0 115 40.5t49 118.5v38q-60 -66 -163 -66q-109 0 -181.5 73.5t-71.5 179.5t72.5 179t180.5 73q103 0 163 -65v55h86v-470zM131 258
q1 -74 49 -123.5t122 -49.5q104 0 156 82v182q-52 82 -156 82q-74 0 -123 -50t-48 -123z" />
    <glyph glyph-name="Hcircumflex" unicode="&#x124;" horiz-adv-x="763" 
d="M208 768l127 137h93l127 -137h-93l-81 83l-80 -83h-93zM94 0v710h93v-303h389v303h93v-710h-93v320h-389v-320h-93z" />
    <glyph glyph-name="hcircumflex" unicode="&#x125;" horiz-adv-x="589" 
d="M128 768l127 137h93l127 -137h-93l-81 83l-80 -83h-93zM81 0v730h86v-293q51 73 158 73q85 0 137.5 -55t52.5 -148v-307h-85v294q0 65 -33.5 101t-91.5 36q-51 0 -86.5 -27t-51.5 -72v-332h-86z" />
    <glyph glyph-name="Hbar" unicode="&#x126;" horiz-adv-x="776" 
d="M101 0v522h-73v72h73v116h93v-116h389v116h93v-116h73v-72h-73v-522h-93v320h-389v-320h-93zM194 407h389v115h-389v-115z" />
    <glyph glyph-name="hbar" unicode="&#x127;" horiz-adv-x="589" 
d="M81 0v577h-70v68h70v85h86v-85h167v-68h-167v-140q51 73 158 73q85 0 137.5 -55t52.5 -148v-307h-85v294q0 65 -33.5 101t-91.5 36q-51 0 -86.5 -27t-51.5 -72v-332h-86z" />
    <glyph glyph-name="Itilde" unicode="&#x128;" horiz-adv-x="281" 
d="M-32 786l3 18q7 43 36.5 69t69.5 26q29 0 72 -22t57 -22q33 0 43 44h66l-4 -19q-8 -42 -37 -68t-69 -26q-29 0 -72 22t-56 22q-32 0 -44 -44h-65zM94 0v710h93v-710h-93z" />
    <glyph glyph-name="itilde" unicode="&#x129;" horiz-adv-x="249" 
d="M-50 593l3 18q8 43 37 69t69 26q29 0 72.5 -22t56.5 -22q33 0 43 44h66l-3 -18q-8 -43 -37 -69t-69 -26q-29 0 -72.5 22t-56.5 22q-33 0 -43 -44h-66zM81 0v500h86v-500h-86z" />
    <glyph glyph-name="Imacron" unicode="&#x12a;" horiz-adv-x="281" 
d="M-20 805v69h322v-69h-322zM94 0v710h93v-710h-93z" />
    <glyph glyph-name="imacron" unicode="&#x12b;" horiz-adv-x="249" 
d="M-37 641v69h322v-69h-322zM81 0v500h86v-500h-86z" />
    <glyph glyph-name="Ibreve" unicode="&#x12c;" horiz-adv-x="281" 
d="M-18 917h58q0 -47 28.5 -74t72.5 -27t72.5 27t28.5 74h58q0 -71 -45.5 -114.5t-113.5 -43.5t-113.5 43.5t-45.5 114.5zM94 0v710h93v-710h-93z" />
    <glyph glyph-name="ibreve" unicode="&#x12d;" horiz-adv-x="249" 
d="M283 720q0 -72 -45.5 -115.5t-113.5 -43.5t-113.5 43.5t-45.5 115.5v10h58v-10q0 -48 28.5 -75t72.5 -27t72.5 27t28.5 75v10h58v-10zM81 0v500h86v-500h-86z" />
    <glyph glyph-name="Iogonek" unicode="&#x12e;" horiz-adv-x="281" 
d="M94 0v710h93v-710q-84 -53 -84 -99q0 -31 36 -31q19 0 34 9l29 -58q-33 -25 -82 -25q-43 0 -71 24.5t-28 61.5q0 59 74 118h-1z" />
    <glyph glyph-name="iogonek" unicode="&#x12f;" horiz-adv-x="249" 
d="M186 675q0 -25 -18 -43t-43 -18q-26 0 -44 18t-18 43t18.5 43t43.5 18t43 -18t18 -43zM182 -179q-33 -25 -81 -25q-43 0 -68.5 24t-25.5 62q0 59 74 118v500h86v-500q-84 -53 -84 -101q0 -16 10.5 -25t25.5 -9q21 0 36 9z" />
    <glyph glyph-name="Idotaccent" unicode="&#x130;" horiz-adv-x="281" 
d="M199 843q0 -24 -17 -41t-41 -17q-25 0 -42 17t-17 41t17 41.5t42 17.5q24 0 41 -17.5t17 -41.5zM94 0v710h93v-710h-93z" />
    <glyph glyph-name="dotlessi" unicode="&#x131;" horiz-adv-x="249" 
d="M81 0v500h86v-500h-86z" />
    <glyph glyph-name="Jcircumflex" unicode="&#x134;" horiz-adv-x="469" 
d="M162 768l127 137h93l127 -137h-93l-81 83l-80 -83h-93zM382 194q0 -102 -54 -154t-142 -52q-113 0 -180 78l61 65q50 -57 117 -57q105 0 105 124v512h93v-516z" />
    <glyph glyph-name="jcircumflex" unicode="&#x135;" horiz-adv-x="257" 
d="M-39 578l127 152h88l127 -152h-90l-81 94l-81 -94h-90zM175 -46q0 -74 -40.5 -113.5t-102.5 -39.5q-52 0 -76 14l19 73q25 -9 49 -9q65 0 65 85v536h86v-546z" />
    <glyph glyph-name="Kcommaaccent" unicode="&#x136;" horiz-adv-x="671" 
d="M94 0v710h92v-308l310 308h121l-337 -338l414 -372h-131l-377 338v-338h-92zM389 -273h-47l26 93h-47v104h106v-104z" />
    <glyph glyph-name="kcommaaccent" unicode="&#x137;" horiz-adv-x="539" 
d="M81 0v730h86v-425l218 195h114l-246 -221l301 -279h-116l-271 250v-250h-86zM316 -273h-47l26 93h-47v104h106v-104z" />
    <glyph glyph-name="Lacute" unicode="&#x139;" horiz-adv-x="548" 
d="M107 768l78 137h109l-115 -137h-72zM94 0v710h93v-622h343v-88h-436z" />
    <glyph glyph-name="lacute" unicode="&#x13a;" horiz-adv-x="249" 
d="M88 804l88 156h109l-125 -156h-72zM81 0v730h86v-730h-86z" />
    <glyph glyph-name="Lcommaaccent" unicode="&#x13b;" horiz-adv-x="548" 
d="M94 0v710h93v-622h343v-88h-436zM321 -273h-47l26 93h-47v104h106v-104z" />
    <glyph glyph-name="lcommaaccent" unicode="&#x13c;" horiz-adv-x="249" 
d="M81 0v730h86v-730h-86zM139 -273h-47l26 93h-47v104h106v-104z" />
    <glyph glyph-name="Lcaron" unicode="&#x13d;" horiz-adv-x="548" 
d="M287 565l24 165h86l-50 -165h-60zM94 0v710h93v-622h343v-88h-436z" />
    <glyph glyph-name="lcaron" unicode="&#x13e;" horiz-adv-x="249" 
d="M81 0v730h86v-730h-86zM204 565l24 165h86l-50 -165h-60z" />
    <glyph glyph-name="Ldot" unicode="&#x13f;" horiz-adv-x="553" 
d="M94 0v710h93v-622h343v-88h-436zM475 399q0 -24 -17 -41t-41 -17q-25 0 -42 17t-17 41t17 41.5t42 17.5q24 0 41 -17.5t17 -41.5z" />
    <glyph glyph-name="ldot" unicode="&#x140;" horiz-adv-x="366" 
d="M81 0v730h86v-730h-86zM375 375q0 -24 -17 -41t-41 -17q-25 0 -42 17t-17 41t17 41.5t42 17.5q24 0 41 -17.5t17 -41.5z" />
    <glyph glyph-name="Lslash" unicode="&#x141;" horiz-adv-x="558" 
d="M104 0v260l-73 -47v84l73 47v366h93v-306l159 103v-84l-159 -103v-232h343v-88h-436z" />
    <glyph glyph-name="lslash" unicode="&#x142;" horiz-adv-x="319" 
d="M118 0v308l-79 -51v78l79 51v344h86v-290l79 51v-77l-79 -51v-363h-86z" />
    <glyph glyph-name="Nacute" unicode="&#x143;" horiz-adv-x="794" 
d="M359 768l78 137h109l-115 -137h-72zM699 0h-80l-432 553v-553h-93v710h81l432 -553v553h92v-710z" />
    <glyph glyph-name="nacute" unicode="&#x144;" horiz-adv-x="589" 
d="M262 574l88 156h109l-125 -156h-72zM81 0v500h86v-63q51 73 158 73q85 0 137.5 -55t52.5 -148v-307h-85v294q0 65 -33.5 101t-91.5 36q-51 0 -86.5 -27t-51.5 -72v-332h-86z" />
    <glyph glyph-name="Ncommaaccent" unicode="&#x145;" horiz-adv-x="794" 
d="M699 0h-80l-432 553v-553h-93v710h81l432 -553v553h92v-710zM415 -273h-47l26 93h-47v104h106v-104z" />
    <glyph glyph-name="ncommaaccent" unicode="&#x146;" horiz-adv-x="589" 
d="M81 0v500h86v-63q51 73 158 73q85 0 137.5 -55t52.5 -148v-307h-85v294q0 65 -33.5 101t-91.5 36q-51 0 -86.5 -27t-51.5 -72v-332h-86zM313 -273h-47l26 93h-47v104h106v-104z" />
    <glyph glyph-name="Ncaron" unicode="&#x147;" horiz-adv-x="794" 
d="M347 768l-127 137h93l80 -83l81 83h93l-127 -137h-93zM699 0h-80l-432 553v-553h-93v710h81l432 -553v553h92v-710z" />
    <glyph glyph-name="ncaron" unicode="&#x148;" horiz-adv-x="589" 
d="M127 730h90l81 -94l81 94h90l-127 -152h-88zM81 0v500h86v-63q51 73 158 73q85 0 137.5 -55t52.5 -148v-307h-85v294q0 65 -33.5 101t-91.5 36q-51 0 -86.5 -27t-51.5 -72v-332h-86z" />
    <glyph glyph-name="Eng" unicode="&#x14a;" horiz-adv-x="794" 
d="M505 -194v78h26q76 0 76 76v55l-420 538v-553h-93v710h81l432 -553v553h92v-750q0 -154 -153 -154h-41z" />
    <glyph glyph-name="eng" unicode="&#x14b;" horiz-adv-x="589" 
d="M81 0v500h86v-63q51 73 158 73q85 0 137.5 -55t52.5 -148v-355q0 -75 -45 -115.5t-112 -40.5q-36 0 -71 11l19 74q17 -7 44 -7q35 0 57.5 21t22.5 65v334q0 65 -33.5 101t-91.5 36q-51 0 -86.5 -27t-51.5 -72v-332h-86z" />
    <glyph glyph-name="Omacron" unicode="&#x14c;" horiz-adv-x="825" 
d="M251 805v69h322v-69h-322zM779 355q0 -154 -106.5 -260.5t-260.5 -106.5q-153 0 -260 106.5t-107 260.5t107 260.5t260 106.5q154 0 260.5 -106.5t106.5 -260.5zM139 355q0 -117 78.5 -198t194.5 -81q117 0 195.5 81t78.5 198t-78.5 198t-195.5 81q-116 0 -194.5 -81
t-78.5 -198z" />
    <glyph glyph-name="omacron" unicode="&#x14d;" horiz-adv-x="606" 
d="M142 641v69h322v-69h-322zM564 250q0 -109 -74.5 -184.5t-186.5 -75.5t-187 75.5t-75 184.5t75 184.5t187 75.5t186.5 -75.5t74.5 -184.5zM129 250q0 -76 48.5 -128t125.5 -52t125 52t48 128t-48 128t-125 52t-125.5 -52t-48.5 -128z" />
    <glyph glyph-name="Obreve" unicode="&#x14e;" horiz-adv-x="825" 
d="M253 917h58q0 -47 28.5 -74t72.5 -27t72.5 27t28.5 74h58q0 -71 -45.5 -114.5t-113.5 -43.5t-113.5 43.5t-45.5 114.5zM779 355q0 -154 -106.5 -260.5t-260.5 -106.5q-153 0 -260 106.5t-107 260.5t107 260.5t260 106.5q154 0 260.5 -106.5t106.5 -260.5zM139 355
q0 -117 78.5 -198t194.5 -81q117 0 195.5 81t78.5 198t-78.5 198t-195.5 81q-116 0 -194.5 -81t-78.5 -198z" />
    <glyph glyph-name="obreve" unicode="&#x14f;" horiz-adv-x="606" 
d="M462 720q0 -72 -45.5 -115.5t-113.5 -43.5t-113.5 43.5t-45.5 115.5v10h58v-10q0 -48 28.5 -75t72.5 -27t72.5 27t28.5 75v10h58v-10zM564 250q0 -109 -74.5 -184.5t-186.5 -75.5t-187 75.5t-75 184.5t75 184.5t187 75.5t186.5 -75.5t74.5 -184.5zM129 250
q0 -76 48.5 -128t125.5 -52t125 52t48 128t-48 128t-125 52t-125.5 -52t-48.5 -128z" />
    <glyph glyph-name="Ohungarumlaut" unicode="&#x150;" horiz-adv-x="825" 
d="M305 768l55 137h99l-91 -137h-63zM473 768l54 137h100l-92 -137h-62zM779 355q0 -154 -106.5 -260.5t-260.5 -106.5q-153 0 -260 106.5t-107 260.5t107 260.5t260 106.5q154 0 260.5 -106.5t106.5 -260.5zM139 355q0 -117 78.5 -198t194.5 -81q117 0 195.5 81t78.5 198
t-78.5 198t-195.5 81q-116 0 -194.5 -81t-78.5 -198z" />
    <glyph glyph-name="ohungarumlaut" unicode="&#x151;" horiz-adv-x="606" 
d="M195 574l55 156h99l-91 -156h-63zM363 574l54 156h100l-92 -156h-62zM564 250q0 -109 -74.5 -184.5t-186.5 -75.5t-187 75.5t-75 184.5t75 184.5t187 75.5t186.5 -75.5t74.5 -184.5zM129 250q0 -76 48.5 -128t125.5 -52t125 52t48 128t-48 128t-125 52t-125.5 -52
t-48.5 -128z" />
    <glyph glyph-name="OE" unicode="&#x152;" horiz-adv-x="1149" 
d="M686 0v118q-100 -130 -274 -130q-153 0 -260 106.5t-107 260.5t107 260.5t260 106.5q174 0 274 -130v118h414v-88h-322v-215h262v-88h-262v-231h322v-88h-414zM139 355q0 -117 78.5 -198t194.5 -81q117 0 195.5 81t78.5 198t-78.5 198t-195.5 81q-116 0 -194.5 -81
t-78.5 -198z" />
    <glyph glyph-name="oe" unicode="&#x153;" horiz-adv-x="1015" 
d="M960 109q-73 -119 -225 -119q-144 0 -216 111q-35 -51 -91.5 -81t-124.5 -30q-112 0 -187 75.5t-75 184.5t75 184.5t187 75.5q68 0 124.5 -30t91.5 -82q35 52 91.5 82t125.5 30q102 0 169.5 -67.5t68.5 -183.5q0 -15 -1 -26h-410q2 -71 50.5 -117.5t122.5 -46.5
q105 0 156 87zM733 434q-59 0 -105.5 -35.5t-58.5 -95.5h317q-9 60 -52 95.5t-101 35.5zM129 250q0 -76 48.5 -128t125.5 -52t125 52t48 128t-48 128t-125 52t-125.5 -52t-48.5 -128z" />
    <glyph glyph-name="Racute" unicode="&#x154;" horiz-adv-x="635" 
d="M266 768l78 137h109l-115 -137h-72zM94 0v710h242q97 0 154.5 -54t57.5 -142q0 -78 -46.5 -128t-128.5 -62l273 -324h-117l-273 323h-69v-323h-93zM187 406h138q62 0 96 27.5t34 80.5t-34 81.5t-96 28.5h-138v-218z" />
    <glyph glyph-name="racute" unicode="&#x155;" horiz-adv-x="359" 
d="M176 574l88 156h109l-125 -156h-72zM81 0v500h86v-74q16 32 54 55.5t81 23.5q22 0 44 -5l-11 -86q-17 6 -43 6q-39 0 -75 -25.5t-50 -70.5v-324h-86z" />
    <glyph glyph-name="Rcommaaccent" unicode="&#x156;" horiz-adv-x="635" 
d="M94 0v710h242q97 0 154.5 -54t57.5 -142q0 -78 -46.5 -128t-128.5 -62l273 -324h-117l-273 323h-69v-323h-93zM187 406h138q62 0 96 27.5t34 80.5t-34 81.5t-96 28.5h-138v-218zM373 -273h-47l26 93h-47v104h106v-104z" />
    <glyph glyph-name="rcommaaccent" unicode="&#x157;" horiz-adv-x="359" 
d="M81 0v500h86v-74q16 32 54 55.5t81 23.5q22 0 44 -5l-11 -86q-17 6 -43 6q-39 0 -75 -25.5t-50 -70.5v-324h-86zM140 -273h-47l26 93h-47v104h106v-104z" />
    <glyph glyph-name="Rcaron" unicode="&#x158;" horiz-adv-x="635" 
d="M253 768l-127 137h93l80 -83l81 83h93l-127 -137h-93zM94 0v710h242q97 0 154.5 -54t57.5 -142q0 -78 -46.5 -128t-128.5 -62l273 -324h-117l-273 323h-69v-323h-93zM187 406h138q62 0 96 27.5t34 80.5t-34 81.5t-96 28.5h-138v-218z" />
    <glyph glyph-name="rcaron" unicode="&#x159;" horiz-adv-x="359" 
d="M42 730h90l81 -94l81 94h90l-127 -152h-88zM81 0v500h86v-74q16 32 54 55.5t81 23.5q22 0 44 -5l-11 -86q-17 6 -43 6q-39 0 -75 -25.5t-50 -70.5v-324h-86z" />
    <glyph glyph-name="Sacute" unicode="&#x15a;" horiz-adv-x="555" 
d="M250 768l78 137h109l-115 -137h-72zM36 116l75 56q63 -97 176 -97q57 0 94.5 29t37.5 77q0 81 -102 120l-95 36q-84 31 -122.5 77.5t-38.5 118.5q0 86 63 137.5t160 51.5q65 0 119 -26.5t87 -70.5l-68 -60q-59 70 -140 70q-54 0 -91 -27.5t-37 -70.5t24.5 -68t82.5 -46
l85 -33q82 -31 124 -80t42 -125q-1 -90 -64 -143.5t-163 -53.5q-86 0 -153 36t-96 92z" />
    <glyph glyph-name="sacute" unicode="&#x15b;" horiz-adv-x="447" 
d="M196 574l88 156h109l-125 -156h-72zM405 139q0 -71 -48 -110t-126 -39q-68 0 -120.5 29.5t-75.5 86.5l70 38q14 -37 49.5 -58t78.5 -21q38 0 63 18.5t25 49.5q0 27 -20.5 46t-68.5 34l-49 16q-124 40 -124 145q0 61 47 98.5t122 37.5q105 0 160 -72l-56 -54
q-46 52 -106 52q-36 0 -60 -15.5t-24 -42.5q0 -25 17 -40.5t60 -29.5l54 -18q132 -43 132 -151z" />
    <glyph glyph-name="Scircumflex" unicode="&#x15c;" horiz-adv-x="555" 
d="M111 768l127 137h93l127 -137h-93l-81 83l-80 -83h-93zM36 116l75 56q63 -97 176 -97q57 0 94.5 29t37.5 77q0 81 -102 120l-95 36q-84 31 -122.5 77.5t-38.5 118.5q0 86 63 137.5t160 51.5q65 0 119 -26.5t87 -70.5l-68 -60q-59 70 -140 70q-54 0 -91 -27.5t-37 -70.5
t24.5 -68t82.5 -46l85 -33q82 -31 124 -80t42 -125q-1 -90 -64 -143.5t-163 -53.5q-86 0 -153 36t-96 92z" />
    <glyph glyph-name="scircumflex" unicode="&#x15d;" horiz-adv-x="447" 
d="M61 578l127 152h88l127 -152h-90l-81 94l-81 -94h-90zM405 139q0 -71 -48 -110t-126 -39q-68 0 -120.5 29.5t-75.5 86.5l70 38q14 -37 49.5 -58t78.5 -21q38 0 63 18.5t25 49.5q0 27 -20.5 46t-68.5 34l-49 16q-124 40 -124 145q0 61 47 98.5t122 37.5q105 0 160 -72
l-56 -54q-46 52 -106 52q-36 0 -60 -15.5t-24 -42.5q0 -25 17 -40.5t60 -29.5l54 -18q132 -43 132 -151z" />
    <glyph glyph-name="Scedilla" unicode="&#x15e;" horiz-adv-x="555" 
d="M36 116l75 56q63 -97 176 -97q57 0 94.5 29t37.5 77q0 81 -102 120l-95 36q-84 31 -122.5 77.5t-38.5 118.5q0 86 63 137.5t160 51.5q65 0 119 -26.5t87 -70.5l-68 -60q-59 70 -140 70q-54 0 -91 -27.5t-37 -70.5t24.5 -68t82.5 -46l85 -33q82 -31 124 -80t42 -125
q-1 -87 -59.5 -140t-153.5 -57l-23 -37q16 7 38 7q33 0 54.5 -19.5t21.5 -52.5q0 -42 -34 -66t-88 -24q-50 0 -87 17l14 50q33 -14 68 -14q57 0 57 33q0 27 -39 27q-23 0 -46 -9l-30 22l40 68q-72 8 -128 42t-81 84z" />
    <glyph glyph-name="scedilla" unicode="&#x15f;" horiz-adv-x="447" 
d="M126 -187l13 50q33 -14 69 -14q57 0 57 33q0 27 -39 27q-23 0 -46 -9l-31 22l43 71q-119 17 -157 113l70 38q14 -37 49.5 -58t78.5 -21q38 0 63 18.5t25 49.5q0 27 -20.5 46t-68.5 34l-49 16q-124 40 -124 145q0 61 47 98.5t122 37.5q105 0 160 -72l-56 -54
q-46 52 -106 52q-36 0 -60 -15.5t-24 -42.5q0 -25 17 -40.5t60 -29.5l54 -18q132 -43 132 -151q0 -68 -43.5 -106.5t-116.5 -42.5l-24 -39q16 7 38 7q33 0 54.5 -19.5t21.5 -52.5q0 -42 -34 -66t-88 -24q-50 0 -87 17z" />
    <glyph glyph-name="Scaron" unicode="&#x160;" horiz-adv-x="555" 
d="M238 768l-127 137h93l80 -83l81 83h93l-127 -137h-93zM36 116l75 56q63 -97 176 -97q57 0 94.5 29t37.5 77q0 81 -102 120l-95 36q-84 31 -122.5 77.5t-38.5 118.5q0 86 63 137.5t160 51.5q65 0 119 -26.5t87 -70.5l-68 -60q-59 70 -140 70q-54 0 -91 -27.5t-37 -70.5
t24.5 -68t82.5 -46l85 -33q82 -31 124 -80t42 -125q-1 -90 -64 -143.5t-163 -53.5q-86 0 -153 36t-96 92z" />
    <glyph glyph-name="scaron" unicode="&#x161;" horiz-adv-x="447" 
d="M61 730h90l81 -94l81 94h90l-127 -152h-88zM405 139q0 -71 -48 -110t-126 -39q-68 0 -120.5 29.5t-75.5 86.5l70 38q14 -37 49.5 -58t78.5 -21q38 0 63 18.5t25 49.5q0 27 -20.5 46t-68.5 34l-49 16q-124 40 -124 145q0 61 47 98.5t122 37.5q105 0 160 -72l-56 -54
q-46 52 -106 52q-36 0 -60 -15.5t-24 -42.5q0 -25 17 -40.5t60 -29.5l54 -18q132 -43 132 -151z" />
    <glyph glyph-name="uni0162" unicode="&#x162;" horiz-adv-x="567" 
d="M238 0v622h-221v88h533v-88h-221v-622h-91zM298 -273h-47l26 93h-47v104h106v-104z" />
    <glyph glyph-name="uni0163" unicode="&#x163;" horiz-adv-x="415" 
d="M403 18q-48 -23 -108 -23q-67 0 -111.5 39.5t-44.5 113.5v273h-126v79h126v142h86v-142h155v-79h-155v-262q0 -87 80 -87q40 0 72 19zM285 -273h-47l26 93h-47v104h106v-104z" />
    <glyph glyph-name="Tcaron" unicode="&#x164;" horiz-adv-x="567" 
d="M237 768l-127 137h93l80 -83l81 83h93l-127 -137h-93zM238 0v622h-221v88h533v-88h-221v-622h-91z" />
    <glyph glyph-name="tcaron" unicode="&#x165;" horiz-adv-x="415" 
d="M260 545l24 165h86l-50 -165h-60zM403 18q-48 -23 -108 -23q-67 0 -111.5 39.5t-44.5 113.5v273h-126v79h126v142h86v-142h155v-79h-155v-262q0 -87 80 -87q40 0 72 19z" />
    <glyph glyph-name="Tbar" unicode="&#x166;" horiz-adv-x="594" 
d="M248 0v323h-157v81h157v218h-221v88h533v-88h-221v-218h157v-81h-157v-323h-91z" />
    <glyph glyph-name="tbar" unicode="&#x167;" horiz-adv-x="429" 
d="M24 266v68h126v87h-126v79h126v142h86v-142h155v-79h-155v-87h155v-68h-155v-107q0 -87 80 -87q40 0 72 19l26 -73q-48 -23 -108 -23q-67 0 -111.5 39.5t-44.5 113.5v118h-126z" />
    <glyph glyph-name="Utilde" unicode="&#x168;" horiz-adv-x="726" 
d="M190 786l3 18q7 43 36.5 69t69.5 26q29 0 72 -22t57 -22q33 0 43 44h66l-4 -19q-8 -42 -37 -68t-69 -26q-29 0 -72 22t-56 22q-32 0 -44 -44h-65zM641 276q0 -131 -77 -209.5t-201 -78.5t-201 78.5t-77 209.5v434h93v-436q0 -94 50 -146t135 -52t135 52t50 146v436h93
v-434z" />
    <glyph glyph-name="utilde" unicode="&#x169;" horiz-adv-x="579" 
d="M111 593l3 18q8 43 37 69t69 26q29 0 72.5 -22t56.5 -22q33 0 43 44h66l-3 -18q-8 -43 -37 -69t-69 -26q-29 0 -72.5 22t-56.5 22q-33 0 -43 -44h-66zM497 500v-500h-85v63q-25 -36 -66 -54.5t-85 -18.5q-84 0 -136 55t-52 148v307h86v-294q0 -65 32.5 -101t88.5 -36
q47 0 81.5 27t50.5 72v332h85z" />
    <glyph glyph-name="Umacron" unicode="&#x16a;" horiz-adv-x="726" 
d="M202 805v69h322v-69h-322zM641 276q0 -131 -77 -209.5t-201 -78.5t-201 78.5t-77 209.5v434h93v-436q0 -94 50 -146t135 -52t135 52t50 146v436h93v-434z" />
    <glyph glyph-name="umacron" unicode="&#x16b;" horiz-adv-x="579" 
d="M124 641v69h322v-69h-322zM497 500v-500h-85v63q-25 -36 -66 -54.5t-85 -18.5q-84 0 -136 55t-52 148v307h86v-294q0 -65 32.5 -101t88.5 -36q47 0 81.5 27t50.5 72v332h85z" />
    <glyph glyph-name="Ubreve" unicode="&#x16c;" horiz-adv-x="726" 
d="M204 917h58q0 -47 28.5 -74t72.5 -27t72.5 27t28.5 74h58q0 -71 -45.5 -114.5t-113.5 -43.5t-113.5 43.5t-45.5 114.5zM641 276q0 -131 -77 -209.5t-201 -78.5t-201 78.5t-77 209.5v434h93v-436q0 -94 50 -146t135 -52t135 52t50 146v436h93v-434z" />
    <glyph glyph-name="ubreve" unicode="&#x16d;" horiz-adv-x="579" 
d="M444 720q0 -72 -45.5 -115.5t-113.5 -43.5t-113.5 43.5t-45.5 115.5v10h58v-10q0 -48 28.5 -75t72.5 -27t72.5 27t28.5 75v10h58v-10zM497 500v-500h-85v63q-25 -36 -66 -54.5t-85 -18.5q-84 0 -136 55t-52 148v307h86v-294q0 -65 32.5 -101t88.5 -36q47 0 81.5 27
t50.5 72v332h85z" />
    <glyph glyph-name="Uring" unicode="&#x16e;" horiz-adv-x="726" 
d="M485 872q0 -50 -35.5 -85.5t-85.5 -35.5t-86 35.5t-36 85.5t36 85.5t86 35.5t85.5 -35.5t35.5 -85.5zM353 813q23 -5 44.5 9.5t25.5 38.5t-10.5 44.5t-37.5 25.5q-24 4 -44.5 -10t-25.5 -38t9.5 -44.5t38.5 -25.5zM641 276q0 -131 -77 -209.5t-201 -78.5t-201 78.5
t-77 209.5v434h93v-436q0 -94 50 -146t135 -52t135 52t50 146v436h93v-434z" />
    <glyph glyph-name="uring" unicode="&#x16f;" horiz-adv-x="579" 
d="M407 662q0 -50 -35.5 -85.5t-85.5 -35.5t-86 35.5t-36 85.5t36 85.5t86 35.5t85.5 -35.5t35.5 -85.5zM275 603q23 -5 44.5 9.5t25.5 38.5t-10.5 44.5t-37.5 25.5q-24 4 -44.5 -10t-25.5 -38t9.5 -44.5t38.5 -25.5zM497 500v-500h-85v63q-25 -36 -66 -54.5t-85 -18.5
q-84 0 -136 55t-52 148v307h86v-294q0 -65 32.5 -101t88.5 -36q47 0 81.5 27t50.5 72v332h85z" />
    <glyph glyph-name="Uhungarumlaut" unicode="&#x170;" horiz-adv-x="726" 
d="M255 768l55 137h99l-91 -137h-63zM423 768l54 137h100l-92 -137h-62zM641 276q0 -131 -77 -209.5t-201 -78.5t-201 78.5t-77 209.5v434h93v-436q0 -94 50 -146t135 -52t135 52t50 146v436h93v-434z" />
    <glyph glyph-name="uhungarumlaut" unicode="&#x171;" horiz-adv-x="579" 
d="M177 574l55 156h99l-91 -156h-63zM345 574l54 156h100l-92 -156h-62zM497 500v-500h-85v63q-25 -36 -66 -54.5t-85 -18.5q-84 0 -136 55t-52 148v307h86v-294q0 -65 32.5 -101t88.5 -36q47 0 81.5 27t50.5 72v332h85z" />
    <glyph glyph-name="Uogonek" unicode="&#x172;" horiz-adv-x="726" 
d="M466 -179q-33 -25 -82 -25q-43 0 -71 24.5t-28 61.5q0 55 60 106q-117 6 -188.5 84t-71.5 204v434h93v-436q0 -94 50 -146t135 -52t135 52t50 146v436h93v-434q0 -106 -51.5 -179t-138.5 -97q-84 -53 -84 -99q0 -31 36 -31q19 0 34 9z" />
    <glyph glyph-name="uogonek" unicode="&#x173;" horiz-adv-x="579" 
d="M512 -179q-33 -25 -81 -25q-43 0 -68.5 24t-25.5 62q0 59 74 118h1v63q-25 -36 -66 -54.5t-85 -18.5q-84 0 -136 55t-52 148v307h86v-294q0 -65 32.5 -101t88.5 -36q47 0 81.5 27t50.5 72v332h85v-500q-84 -53 -84 -101q0 -16 10.5 -25t25.5 -9q21 0 36 9z" />
    <glyph glyph-name="Wcircumflex" unicode="&#x174;" horiz-adv-x="999" 
d="M327 768l127 137h93l127 -137h-93l-81 83l-80 -83h-93zM238 0l-222 710h98l169 -546l176 546h80l177 -548l168 548h99l-222 -710h-82l-180 560l-180 -560h-81z" />
    <glyph glyph-name="wcircumflex" unicode="&#x175;" horiz-adv-x="763" 
d="M210 578l127 152h88l127 -152h-90l-81 94l-81 -94h-90zM505 0l-123 360l-124 -360h-76l-170 500h90l121 -365l125 365h66l125 -365l121 365h91l-170 -500h-76z" />
    <glyph glyph-name="Ycircumflex" unicode="&#x176;" horiz-adv-x="674" 
d="M164 768l127 137h93l127 -137h-93l-81 83l-80 -83h-93zM291 0v301l-276 409h111l211 -316l212 316h111l-277 -410v-300h-92z" />
    <glyph glyph-name="ycircumflex" unicode="&#x177;" horiz-adv-x="547" 
d="M104 578l127 152h88l127 -152h-90l-81 94l-81 -94h-90zM221 -194h-96l102 220l-219 474h95l172 -379l171 379h96z" />
    <glyph glyph-name="Ydieresis" unicode="&#x178;" horiz-adv-x="674" 
d="M283 843q0 -24 -17 -41t-41 -17q-25 0 -42 17t-17 41t17 41.5t42 17.5q24 0 41 -17.5t17 -41.5zM508 843q0 -24 -17 -41t-41 -17t-41.5 17t-17.5 41t17.5 41.5t41.5 17.5t41 -17.5t17 -41.5zM291 0v301l-276 409h111l211 -316l212 316h111l-277 -410v-300h-92z" />
    <glyph glyph-name="Zacute" unicode="&#x179;" horiz-adv-x="587" 
d="M267 768l78 137h109l-115 -137h-72zM34 0v62l385 560h-374v88h497v-62l-385 -560h395v-88h-518z" />
    <glyph glyph-name="zacute" unicode="&#x17a;" horiz-adv-x="484" 
d="M204 574l88 156h109l-125 -156h-72zM40 0v68l287 353h-283v79h393v-69l-285 -352h294v-79h-406z" />
    <glyph glyph-name="Zdotaccent" unicode="&#x17b;" horiz-adv-x="587" 
d="M359 843q0 -24 -17 -41t-41 -17q-25 0 -42 17t-17 41t17 41.5t42 17.5q24 0 41 -17.5t17 -41.5zM34 0v62l385 560h-374v88h497v-62l-385 -560h395v-88h-518z" />
    <glyph glyph-name="zdotaccent" unicode="&#x17c;" horiz-adv-x="484" 
d="M298 652q0 -24 -17 -41t-41 -17q-25 0 -42 17t-17 41t17 41.5t42 17.5q24 0 41 -17.5t17 -41.5zM40 0v68l287 353h-283v79h393v-69l-285 -352h294v-79h-406z" />
    <glyph glyph-name="Zcaron" unicode="&#x17d;" horiz-adv-x="587" 
d="M255 768l-127 137h93l80 -83l81 83h93l-127 -137h-93zM34 0v62l385 560h-374v88h497v-62l-385 -560h395v-88h-518z" />
    <glyph glyph-name="zcaron" unicode="&#x17e;" horiz-adv-x="484" 
d="M69 730h90l81 -94l81 94h90l-127 -152h-88zM40 0v68l287 353h-283v79h393v-69l-285 -352h294v-79h-406z" />
    <glyph glyph-name="uni018F" unicode="&#x18f;" horiz-adv-x="814" 
d="M768 355q0 -155 -106 -261t-261 -106q-154 0 -260.5 106.5t-106.5 260.5v48h637q-16 101 -91.5 166t-179.5 65q-60 0 -115 -22.5t-92 -60.5l-63 64q50 50 121.5 78.5t149.5 28.5q154 0 260.5 -106t106.5 -261zM131 320q11 -105 87 -174.5t183 -69.5t183.5 69.5
t87.5 174.5h-541z" />
    <glyph glyph-name="Scommaaccent" unicode="&#x218;" horiz-adv-x="555" 
d="M36 116l75 56q63 -97 176 -97q57 0 94.5 29t37.5 77q0 81 -102 120l-95 36q-84 31 -122.5 77.5t-38.5 118.5q0 86 63 137.5t160 51.5q65 0 119 -26.5t87 -70.5l-68 -60q-59 70 -140 70q-54 0 -91 -27.5t-37 -70.5t24.5 -68t82.5 -46l85 -33q82 -31 124 -80t42 -125
q-1 -90 -64 -143.5t-163 -53.5q-86 0 -153 36t-96 92zM300 -273h-47l26 93h-47v104h106v-104z" />
    <glyph glyph-name="scommaaccent" unicode="&#x219;" horiz-adv-x="447" 
d="M405 139q0 -71 -48 -110t-126 -39q-68 0 -120.5 29.5t-75.5 86.5l70 38q14 -37 49.5 -58t78.5 -21q38 0 63 18.5t25 49.5q0 27 -20.5 46t-68.5 34l-49 16q-124 40 -124 145q0 61 47 98.5t122 37.5q105 0 160 -72l-56 -54q-46 52 -106 52q-36 0 -60 -15.5t-24 -42.5
q0 -25 17 -40.5t60 -29.5l54 -18q132 -43 132 -151zM245 -273h-47l26 93h-47v104h106v-104z" />
    <glyph glyph-name="Tcommaaccent" unicode="&#x21a;" horiz-adv-x="567" 
d="M238 0v622h-221v88h533v-88h-221v-622h-91zM298 -273h-47l26 93h-47v104h106v-104z" />
    <glyph glyph-name="tcommaaccent" unicode="&#x21b;" horiz-adv-x="415" 
d="M403 18q-48 -23 -108 -23q-67 0 -111.5 39.5t-44.5 113.5v273h-126v79h126v142h86v-142h155v-79h-155v-262q0 -87 80 -87q40 0 72 19zM285 -273h-47l26 93h-47v104h106v-104z" />
    <glyph glyph-name="uni0232" unicode="&#x232;" horiz-adv-x="674" 
d="M176 805v69h322v-69h-322zM291 0v301l-276 409h111l211 -316l212 316h111l-277 -410v-300h-92z" />
    <glyph glyph-name="uni0233" unicode="&#x233;" horiz-adv-x="547" 
d="M114 641v69h322v-69h-322zM221 -194h-96l102 220l-219 474h95l172 -379l171 379h96z" />
    <glyph glyph-name="dotlessj" unicode="&#x237;" horiz-adv-x="257" 
d="M175 -46q0 -74 -40.5 -113.5t-102.5 -39.5q-52 0 -76 14l19 73q25 -9 49 -9q65 0 65 85v536h86v-546z" />
    <glyph glyph-name="uni0259" unicode="&#x259;" horiz-adv-x="579" 
d="M39 241v26h411q-2 70 -50.5 117t-114.5 47q-101 0 -152 -87l-68 47q74 119 220 119q109 0 180 -74.5t71 -185.5t-71 -185.5t-181 -74.5q-105 0 -174.5 68t-70.5 183zM285 66q55 0 101 35.5t58 95.5h-317q9 -61 52.5 -96t105.5 -35z" />
    <glyph glyph-name="uni02BB" unicode="&#x2bb;" horiz-adv-x="246" 
d="M175 710l-47 -154h55v-124h-124v125l62 153h54z" />
    <glyph glyph-name="uni02BC" unicode="&#x2bc;" horiz-adv-x="235" 
d="M70 432l47 154h-55v124h123v-124l-61 -154h-54z" />
    <glyph glyph-name="circumflex" unicode="&#x2c6;" 
d="M-171 578l127 152h88l127 -152h-90l-81 94l-81 -94h-90z" />
    <glyph glyph-name="caron" unicode="&#x2c7;" 
d="M-171 730h90l81 -94l81 94h90l-127 -152h-88z" />
    <glyph glyph-name="breve" unicode="&#x2d8;" 
d="M159 720q0 -72 -45.5 -115.5t-113.5 -43.5t-113.5 43.5t-45.5 115.5v10h58v-10q0 -48 28.5 -75t72.5 -27t72.5 27t28.5 75v10h58v-10z" />
    <glyph glyph-name="dotaccent" unicode="&#x2d9;" 
d="M58 652q0 -24 -17 -41t-41 -17q-25 0 -42 17t-17 41t17 41.5t42 17.5q24 0 41 -17.5t17 -41.5z" />
    <glyph glyph-name="ring" unicode="&#x2da;" 
d="M122 662q0 -50 -35.5 -85.5t-85.5 -35.5t-86 35.5t-36 85.5t36 85.5t86 35.5q49 0 85 -35.5t36 -85.5zM-10 603q23 -5 44.5 9.5t25.5 38.5t-10.5 44.5t-37.5 25.5q-24 4 -44.5 -10t-25.5 -38t9.5 -44.5t38.5 -25.5z" />
    <glyph glyph-name="ogonek" unicode="&#x2db;" 
d="M87 -179q-33 -25 -81 -25q-43 0 -68.5 24t-25.5 62q0 59 74 118h86q-84 -53 -84 -101q0 -16 10.5 -25t25.5 -9q21 0 36 9z" />
    <glyph glyph-name="tilde" unicode="&#x2dc;" 
d="M-174 593l3 18q8 43 37 69t69 26q29 0 72.5 -22t56.5 -22q33 0 43 44h66l-3 -18q-8 -43 -37 -69t-69 -26q-29 0 -72.5 22t-56.5 22q-33 0 -43 -44h-66z" />
    <glyph glyph-name="hungarumlaut" unicode="&#x2dd;" 
d="M-161 574l55 156h99l-91 -156h-63zM7 574l54 156h100l-92 -156h-62z" />
    <glyph glyph-name="Wgrave" unicode="&#x1e80;" horiz-adv-x="999" 
d="M533 768h-72l-115 137h109zM238 0l-222 710h98l169 -546l176 546h80l177 -548l168 548h99l-222 -710h-82l-180 560l-180 -560h-81z" />
    <glyph glyph-name="wgrave" unicode="&#x1e81;" horiz-adv-x="763" 
d="M418 574h-72l-125 156h109zM505 0l-123 360l-124 -360h-76l-170 500h90l121 -365l125 365h66l125 -365l121 365h91l-170 -500h-76z" />
    <glyph glyph-name="Wacute" unicode="&#x1e82;" horiz-adv-x="999" 
d="M466 768l78 137h109l-115 -137h-72zM238 0l-222 710h98l169 -546l176 546h80l177 -548l168 548h99l-222 -710h-82l-180 560l-180 -560h-81z" />
    <glyph glyph-name="wacute" unicode="&#x1e83;" horiz-adv-x="763" 
d="M345 574l88 156h109l-125 -156h-72zM505 0l-123 360l-124 -360h-76l-170 500h90l121 -365l125 365h66l125 -365l121 365h91l-170 -500h-76z" />
    <glyph glyph-name="Wdieresis" unicode="&#x1e84;" horiz-adv-x="999" 
d="M446 843q0 -24 -17 -41t-41 -17q-25 0 -42 17t-17 41t17 41.5t42 17.5q24 0 41 -17.5t17 -41.5zM671 843q0 -24 -17 -41t-41 -17t-41.5 17t-17.5 41t17.5 41.5t41.5 17.5t41 -17.5t17 -41.5zM238 0l-222 710h98l169 -546l176 546h80l177 -548l168 548h99l-222 -710h-82
l-180 560l-180 -560h-81z" />
    <glyph glyph-name="wdieresis" unicode="&#x1e85;" horiz-adv-x="763" 
d="M327 652q0 -24 -17 -41t-41 -17q-25 0 -42 17t-17 41t17 41.5t42 17.5q24 0 41 -17.5t17 -41.5zM552 652q0 -24 -17 -41t-41 -17t-41.5 17t-17.5 41t17.5 41.5t41.5 17.5t41 -17.5t17 -41.5zM505 0l-123 360l-124 -360h-76l-170 500h90l121 -365l125 365h66l125 -365
l121 365h91l-170 -500h-76z" />
    <glyph glyph-name="uni1E9E" unicode="&#x1e9e;" horiz-adv-x="634" 
d="M94 0v710h441v-61l-132 -204q185 -33 185 -217q0 -110 -70 -169t-185 -59h-37v88h44q70 0 113 36t43 104t-43 104t-113 36h-44v70l124 188h-233v-626h-93z" />
    <glyph glyph-name="uni1ECA" unicode="&#x1eca;" horiz-adv-x="281" 
d="M94 0v710h93v-710h-93zM199 -132q0 -24 -17 -41t-41 -17q-25 0 -42 17t-17 41t17 41.5t42 17.5q24 0 41 -17.5t17 -41.5z" />
    <glyph glyph-name="uni1ECB" unicode="&#x1ecb;" horiz-adv-x="249" 
d="M186 675q0 -25 -18 -43t-43 -18q-26 0 -44 18t-18 43t18.5 43t43.5 18t43 -18t18 -43zM81 0v500h86v-500h-86zM183 -132q0 -24 -17 -41t-41 -17q-25 0 -42 17t-17 41t17 41t42 17q24 0 41 -17t17 -41z" />
    <glyph glyph-name="uni1ECC" unicode="&#x1ecc;" horiz-adv-x="825" 
d="M779 355q0 -154 -106.5 -260.5t-260.5 -106.5q-153 0 -260 106.5t-107 260.5t107 260.5t260 106.5q154 0 260.5 -106.5t106.5 -260.5zM139 355q0 -117 78.5 -198t194.5 -81q117 0 195.5 81t78.5 198t-78.5 198t-195.5 81q-116 0 -194.5 -81t-78.5 -198zM470 -132
q0 -24 -17 -41t-41 -17q-25 0 -42 17t-17 41t17 41.5t42 17.5q24 0 41 -17.5t17 -41.5z" />
    <glyph glyph-name="uni1ECD" unicode="&#x1ecd;" horiz-adv-x="606" 
d="M564 250q0 -109 -74.5 -184.5t-186.5 -75.5t-187 75.5t-75 184.5t75 184.5t187 75.5t186.5 -75.5t74.5 -184.5zM129 250q0 -76 48.5 -128t125.5 -52t125 52t48 128t-48 128t-125 52t-125.5 -52t-48.5 -128zM361 -132q0 -24 -17 -41t-41 -17q-25 0 -42 17t-17 41t17 41
t42 17q24 0 41 -17t17 -41z" />
    <glyph glyph-name="uni1EE4" unicode="&#x1ee4;" horiz-adv-x="726" 
d="M641 276q0 -131 -77 -209.5t-201 -78.5t-201 78.5t-77 209.5v434h93v-436q0 -94 50 -146t135 -52t135 52t50 146v436h93v-434zM421 -132q0 -24 -17 -41t-41 -17q-25 0 -42 17t-17 41t17 41.5t42 17.5q24 0 41 -17.5t17 -41.5z" />
    <glyph glyph-name="uni1EE5" unicode="&#x1ee5;" horiz-adv-x="579" 
d="M497 500v-500h-85v63q-25 -36 -66 -54.5t-85 -18.5q-84 0 -136 55t-52 148v307h86v-294q0 -65 32.5 -101t88.5 -36q47 0 81.5 27t50.5 72v332h85zM344 -132q0 -24 -17 -41t-41 -17q-25 0 -42 17t-17 41t17 41t42 17q24 0 41 -17t17 -41z" />
    <glyph glyph-name="Ygrave" unicode="&#x1ef2;" horiz-adv-x="674" 
d="M370 768h-72l-115 137h109zM291 0v301l-276 409h111l211 -316l212 316h111l-277 -410v-300h-92z" />
    <glyph glyph-name="ygrave" unicode="&#x1ef3;" horiz-adv-x="547" 
d="M312 574h-72l-125 156h109zM221 -194h-96l102 220l-219 474h95l172 -379l171 379h96z" />
    <glyph glyph-name="uni2007" unicode="&#x2007;" horiz-adv-x="623" 
 />
    <glyph glyph-name="uni2008" unicode="&#x2008;" horiz-adv-x="253" 
 />
    <glyph glyph-name="uni2009" unicode="&#x2009;" horiz-adv-x="49" 
 />
    <glyph glyph-name="uni200B" unicode="&#x200b;" 
 />
    <glyph glyph-name="endash" unicode="&#x2013;" horiz-adv-x="565" 
d="M65 237v86h434v-86h-434z" />
    <glyph glyph-name="emdash" unicode="&#x2014;" horiz-adv-x="635" 
d="M65 237v86h505v-86h-505z" />
    <glyph glyph-name="quoteleft" unicode="&#x2018;" horiz-adv-x="246" 
d="M175 710l-47 -154h55v-124h-124v125l62 153h54z" />
    <glyph glyph-name="quoteright" unicode="&#x2019;" horiz-adv-x="235" 
d="M70 432l47 154h-55v124h123v-124l-61 -154h-54z" />
    <glyph glyph-name="quotesinglbase" unicode="&#x201a;" horiz-adv-x="257" 
d="M74 -154l47 154h-55v124h124v-125l-62 -153h-54z" />
    <glyph glyph-name="quotedblleft" unicode="&#x201c;" horiz-adv-x="432" 
d="M175 710l-47 -154h55v-124h-124v125l62 153h54zM361 710l-47 -154h55v-124h-124v125l62 153h54z" />
    <glyph glyph-name="quotedblright" unicode="&#x201d;" horiz-adv-x="421" 
d="M70 432l47 154h-55v124h123v-124l-61 -154h-54zM256 432l47 154h-55v124h123v-124l-61 -154h-54z" />
    <glyph glyph-name="quotedblbase" unicode="&#x201e;" horiz-adv-x="443" 
d="M74 -154l47 154h-55v124h124v-125l-62 -153h-54zM260 -154l47 154h-55v124h124v-125l-62 -153h-54z" />
    <glyph glyph-name="dagger" unicode="&#x2020;" horiz-adv-x="506" 
d="M214 -98v523h-185v75h185v210h78v-210h185v-75h-185v-523h-78z" />
    <glyph glyph-name="daggerdbl" unicode="&#x2021;" horiz-adv-x="538" 
d="M493 112h-184v-210h-79v210h-185v75h185v238h-185v75h185v210h79v-210h184v-75h-184v-238h184v-75z" />
    <glyph glyph-name="bullet" unicode="&#x2022;" horiz-adv-x="419" 
d="M346 302q0 -56 -40.5 -96t-96.5 -40t-96 40t-40 96t40 96t96 40t96.5 -40t40.5 -96z" />
    <glyph glyph-name="ellipsis" unicode="&#x2026;" horiz-adv-x="704" 
d="M188 0h-123v124h123v-124zM414 0h-123v124h123v-124zM639 0h-123v124h123v-124z" />
    <glyph glyph-name="perthousand" unicode="&#x2030;" horiz-adv-x="1413" 
d="M426 521q0 -81 -58 -139t-139 -58q-82 0 -139.5 58t-57.5 139q0 82 57.5 139.5t139.5 57.5q81 0 139 -57.5t58 -139.5zM224 0l450 710h93l-450 -710h-93zM111 521q0 -48 34.5 -83.5t83.5 -35.5q48 0 83 35.5t35 83.5t-35 83.5t-83 35.5q-49 0 -83.5 -35.5t-34.5 -83.5z
M1382 189q0 -81 -58 -139t-139 -58q-82 0 -139.5 58t-57.5 139q0 82 57.5 139.5t139.5 57.5q81 0 139 -57.5t58 -139.5zM959 189q0 -81 -58 -139t-139 -58q-82 0 -139.5 58t-57.5 139q0 82 57.5 139.5t139.5 57.5q81 0 139 -57.5t58 -139.5zM1066 189q0 -48 35 -83.5
t84 -35.5q48 0 83 35.5t35 83.5t-35 83.5t-83 35.5q-49 0 -84 -35.5t-35 -83.5zM644 189q0 -48 34.5 -83.5t83.5 -35.5q48 0 83 35.5t35 83.5t-35 83.5t-83 35.5q-49 0 -83.5 -35.5t-34.5 -83.5z" />
    <glyph glyph-name="guilsinglleft" unicode="&#x2039;" horiz-adv-x="303" 
d="M138 250l114 -196l-58 -38l-152 234l152 234l58 -38z" />
    <glyph glyph-name="guilsinglright" unicode="&#x203a;" horiz-adv-x="303" 
d="M165 250l-114 196l58 38l152 -234l-152 -234l-58 38z" />
    <glyph glyph-name="fraction" unicode="&#x2044;" horiz-adv-x="180" 
d="M-200 0l500 710h81l-500 -710h-81z" />
    <glyph glyph-name="uni2060" unicode="&#x2060;" 
 />
    <glyph glyph-name="zero.superior" unicode="&#x2070;" horiz-adv-x="390" 
d="M352 570q0 -73 -44 -119.5t-113 -46.5q-70 0 -114 46.5t-44 119.5v112q0 74 44 120.5t114 46.5q69 0 113 -47t44 -120v-112zM107 570q0 -45 24 -71.5t64 -26.5q38 0 62.5 26.5t24.5 71.5v112q0 46 -24.5 72t-62.5 26q-40 0 -64 -26t-24 -72v-112z" />
    <glyph glyph-name="four.superior" unicode="&#x2074;" horiz-adv-x="390" 
d="M240 410v107h-221v56l228 269h63v-261h58v-64h-58v-107h-70zM240 581v157l-134 -157h134z" />
    <glyph glyph-name="five.superior" unicode="&#x2075;" horiz-adv-x="357" 
d="M28 512l69 25q8 -29 31 -47t56 -18t54.5 22.5t21.5 55.5t-21.5 55.5t-54.5 22.5q-46 0 -68 -35h-68v249h254v-68h-184v-104q30 23 76 23q62 0 99.5 -42t37.5 -108q0 -61 -41 -100t-106 -39q-54 0 -99 30t-57 78z" />
    <glyph glyph-name="six.superior" unicode="&#x2076;" horiz-adv-x="343" 
d="M318 550q0 -62 -41.5 -104t-107.5 -42q-65 0 -107 42t-42 102q0 32 12 56t38 58l141 180h87l-120 -153h5q53 0 94 -40t41 -99zM91 549q0 -33 22.5 -55.5t55.5 -22.5t55.5 22.5t22.5 55.5t-22.5 56t-55.5 23t-55.5 -23t-22.5 -56z" />
    <glyph glyph-name="seven.superior" unicode="&#x2077;" horiz-adv-x="334" 
d="M118 410h-79l199 364h-211v68h293v-60z" />
    <glyph glyph-name="eight.superior" unicode="&#x2078;" horiz-adv-x="361" 
d="M330 540q0 -59 -42 -97.5t-108 -38.5q-64 0 -106.5 38.5t-42.5 97.5q0 74 62 109q-41 32 -41 86q0 49 36 81.5t92 32.5q57 0 92.5 -32.5t35.5 -81.5q0 -54 -40 -86q62 -33 62 -109zM120 730q0 -24 17 -40t43 -16q28 0 45 16t17 40t-17.5 40t-44.5 16q-26 0 -43 -16
t-17 -40zM102 542q0 -30 21.5 -52t56.5 -22q36 0 57 21.5t21 52.5t-21 52.5t-56 21.5q-36 0 -57.5 -21.5t-21.5 -52.5z" />
    <glyph glyph-name="nine.superior" unicode="&#x2079;" horiz-adv-x="343" 
d="M44 410l120 154h-4q-53 0 -94 39.5t-41 99.5q0 62 41.5 104t106.5 42q66 0 108 -42t42 -102q0 -32 -12 -56.5t-38 -58.5l-142 -180h-87zM96 703q0 -33 22 -56t55 -23q34 0 56.5 23t22.5 56t-22.5 56t-56.5 23q-33 0 -55 -23t-22 -56z" />
    <glyph glyph-name="zero.inferior" unicode="&#x2080;" horiz-adv-x="390" 
d="M352 45q0 -73 -44 -119.5t-113 -46.5q-70 0 -114 46.5t-44 119.5v112q0 74 44 120.5t114 46.5q69 0 113 -47t44 -120v-112zM107 45q0 -45 24 -71.5t64 -26.5q38 0 62.5 26.5t24.5 71.5v112q0 46 -24.5 72t-62.5 26q-40 0 -64 -26t-24 -72v-112z" />
    <glyph glyph-name="one.inferior" unicode="&#x2081;" horiz-adv-x="214" 
d="M86 -115v366h-67v66h134v-432h-67z" />
    <glyph glyph-name="two.inferior" unicode="&#x2082;" horiz-adv-x="351" 
d="M30 -115v60l167 162q46 46 46 83q0 27 -18.5 46t-47.5 19t-50.5 -19t-26.5 -48l-69 16q10 55 51 87.5t97 32.5q58 0 96.5 -35.5t38.5 -94.5q0 -40 -18.5 -72.5t-54.5 -66.5l-105 -102h182v-68h-288z" />
    <glyph glyph-name="three.inferior" unicode="&#x2083;" horiz-adv-x="354" 
d="M325 18q0 -62 -42 -101t-108 -39q-53 0 -98 30t-57 78l68 26q9 -29 32 -47.5t56 -18.5q34 0 56.5 20.5t22.5 51.5q0 34 -23 54t-60 20h-54v57l95 100h-167v68h257v-58l-101 -106q57 -5 90 -43t33 -92z" />
    <glyph glyph-name="four.inferior" unicode="&#x2084;" horiz-adv-x="390" 
d="M240 -115v107h-221v56l228 269h63v-261h58v-64h-58v-107h-70zM240 56v157l-134 -157h134z" />
    <glyph glyph-name="five.inferior" unicode="&#x2085;" horiz-adv-x="357" 
d="M28 -13l69 25q8 -29 31 -47t56 -18t54.5 22.5t21.5 55.5t-21.5 55.5t-54.5 22.5q-46 0 -68 -35h-68v249h254v-68h-184v-104q30 23 76 23q62 0 99.5 -42t37.5 -108q0 -61 -41 -100t-106 -39q-54 0 -99 30t-57 78z" />
    <glyph glyph-name="six.inferior" unicode="&#x2086;" horiz-adv-x="343" 
d="M318 25q0 -62 -41.5 -104t-107.5 -42q-65 0 -107 42t-42 102q0 32 12 56t38 58l141 180h87l-120 -153h5q53 0 94 -40t41 -99zM91 24q0 -33 22.5 -55.5t55.5 -22.5t55.5 22.5t22.5 55.5t-22.5 56t-55.5 23t-55.5 -23t-22.5 -56z" />
    <glyph glyph-name="seven.inferior" unicode="&#x2087;" horiz-adv-x="334" 
d="M118 -115h-79l199 364h-211v68h293v-60z" />
    <glyph glyph-name="eight.inferior" unicode="&#x2088;" horiz-adv-x="361" 
d="M330 15q0 -59 -42 -97.5t-108 -38.5q-64 0 -106.5 38.5t-42.5 97.5q0 74 62 109q-41 32 -41 86q0 49 36 81.5t92 32.5q57 0 92.5 -32.5t35.5 -81.5q0 -54 -40 -86q62 -33 62 -109zM120 205q0 -24 17 -40t43 -16q28 0 45 16t17 40t-17.5 40t-44.5 16q-26 0 -43 -16
t-17 -40zM102 17q0 -30 21.5 -52t56.5 -22q36 0 57 21.5t21 52.5t-21 52.5t-56 21.5q-36 0 -57.5 -21.5t-21.5 -52.5z" />
    <glyph glyph-name="nine.inferior" unicode="&#x2089;" horiz-adv-x="343" 
d="M44 -115l120 154h-4q-53 0 -94 39.5t-41 99.5q0 62 41.5 104t106.5 42q66 0 108 -42t42 -102q0 -32 -12 -56.5t-38 -58.5l-142 -180h-87zM96 178q0 -33 22 -56t55 -23q34 0 56.5 23t22.5 56t-22.5 56t-56.5 23q-33 0 -55 -23t-22 -56z" />
    <glyph glyph-name="Euro" unicode="&#x20ac;" horiz-adv-x="783" 
d="M33 254l26 54h88q-3 22 -3 47t3 49h-114l26 55h99q33 117 128 190t217 73q144 0 241 -90l-56 -64q-72 70 -185 70q-88 0 -156.5 -49t-98.5 -130h374l-25 -55h-363q-4 -21 -4 -49q0 -25 3 -47h318l-23 -54h-281q29 -82 98 -132t158 -50q113 0 185 70l56 -64
q-97 -90 -241 -90q-122 0 -218 74t-128 192h-124z" />
    <glyph glyph-name="afii61352" unicode="&#x2116;" horiz-adv-x="1112" 
d="M1071 560q0 -64 -45.5 -109.5t-109.5 -45.5t-109 45.5t-45 109.5t45 109.5t109 45.5t109.5 -45.5t45.5 -109.5zM699 0h-80l-432 553v-553h-93v710h81l432 -553v553h92v-710zM829 560q0 -37 25.5 -63t61.5 -26q37 0 63 26t26 63t-26 63t-63 26q-36 0 -61.5 -26t-25.5 -63z
M767 293v66h299v-66h-299z" />
    <glyph glyph-name="uni2117" unicode="&#x2117;" horiz-adv-x="824" 
d="M779 355q0 -151 -108 -259t-260 -108q-151 0 -258.5 108t-107.5 259t107.5 259t258.5 108q152 0 260 -108t108 -259zM116 355q0 -122 87 -209t208 -87q122 0 209.5 87t87.5 209t-87.5 209t-209.5 87q-121 0 -208 -87t-87 -209zM435 542q56 0 92.5 -36t36.5 -89t-36 -88
t-93 -35h-51v-125h-71v373h122zM434 360q27 0 44.5 16.5t17.5 40.5q0 25 -17.5 41.5t-44.5 16.5h-50v-115h50z" />
    <glyph glyph-name="trademark" unicode="&#x2122;" horiz-adv-x="838" 
d="M395 325v385h68l114 -190l113 190h68v-385h-70v256l-86 -142h-50l-87 143v-257h-70zM146 325v315h-112v70h296v-70h-112v-315h-72z" />
    <glyph glyph-name="uni2150" unicode="&#x2150;" horiz-adv-x="758" 
d="M85 278v366h-67v66h134v-432h-67zM22 0l500 710h81l-500 -710h-81zM543 0h-79l199 364h-211v68h293v-60z" />
    <glyph glyph-name="uni2151" unicode="&#x2151;" horiz-adv-x="745" 
d="M85 278v366h-67v66h134v-432h-67zM22 0l500 710h81l-500 -710h-81zM446 0l120 154h-4q-53 0 -94 39.5t-41 99.5q0 62 41.5 104t106.5 42q66 0 108 -42t42 -102q0 -32 -12 -56.5t-38 -58.5l-142 -180h-87zM498 293q0 -33 22 -56t55 -23q34 0 56.5 23t22.5 56t-22.5 56
t-56.5 23q-33 0 -55 -23t-22 -56z" />
    <glyph glyph-name="uni2152" unicode="&#x2152;" horiz-adv-x="1037" 
d="M85 278v366h-67v66h134v-432h-67zM22 0l500 710h81l-500 -710h-81zM999 160q0 -73 -44 -119.5t-113 -46.5q-70 0 -114 46.5t-44 119.5v112q0 74 44 120.5t114 46.5q69 0 113 -47t44 -120v-112zM519 0v366h-67v66h134v-432h-67zM754 160q0 -45 24 -71.5t64 -26.5
q38 0 62.5 26.5t24.5 71.5v112q0 46 -24.5 72t-62.5 26q-40 0 -64 -26t-24 -72v-112z" />
    <glyph glyph-name="onethird" unicode="&#x2153;" horiz-adv-x="763" 
d="M85 278v366h-67v66h134v-432h-67zM22 0l500 710h81l-500 -710h-81zM734 133q0 -62 -42 -101t-108 -39q-53 0 -98 30t-57 78l68 26q9 -29 32 -47.5t56 -18.5q34 0 56.5 20.5t22.5 51.5q0 34 -23 54t-60 20h-54v57l95 100h-167v68h257v-58l-101 -106q57 -5 90 -43t33 -92z
" />
    <glyph glyph-name="twothirds" unicode="&#x2154;" horiz-adv-x="898" 
d="M30 278v60l167 162q46 46 46 83q0 27 -18.5 46t-47.5 19t-50.5 -19t-26.5 -48l-69 16q10 55 51 87.5t97 32.5q58 0 96.5 -35.5t38.5 -94.5q0 -40 -18.5 -72.5t-54.5 -66.5l-105 -102h182v-68h-288zM157 0l500 710h81l-500 -710h-81zM869 133q0 -62 -42 -101t-108 -39
q-53 0 -98 30t-57 78l68 26q9 -29 32 -47.5t56 -18.5q34 0 56.5 20.5t22.5 51.5q0 34 -23 54t-60 20h-54v57l95 100h-167v68h257v-58l-101 -106q57 -5 90 -43t33 -92z" />
    <glyph glyph-name="uni2155" unicode="&#x2155;" horiz-adv-x="766" 
d="M85 278v366h-67v66h134v-432h-67zM22 0l500 710h81l-500 -710h-81zM436 102l69 25q8 -29 31 -47t56 -18t54.5 22.5t21.5 55.5t-21.5 55.5t-54.5 22.5q-46 0 -68 -35h-68v249h254v-68h-184v-104q30 23 76 23q62 0 99.5 -42t37.5 -108q0 -61 -41 -100t-106 -39
q-54 0 -99 30t-57 78z" />
    <glyph glyph-name="uni2156" unicode="&#x2156;" horiz-adv-x="901" 
d="M30 278v60l167 162q46 46 46 83q0 27 -18.5 46t-47.5 19t-50.5 -19t-26.5 -48l-69 16q10 55 51 87.5t97 32.5q58 0 96.5 -35.5t38.5 -94.5q0 -40 -18.5 -72.5t-54.5 -66.5l-105 -102h182v-68h-288zM157 0l500 710h81l-500 -710h-81zM571 102l69 25q8 -29 31 -47t56 -18
t54.5 22.5t21.5 55.5t-21.5 55.5t-54.5 22.5q-46 0 -68 -35h-68v249h254v-68h-184v-104q30 23 76 23q62 0 99.5 -42t37.5 -108q0 -61 -41 -100t-106 -39q-54 0 -99 30t-57 78z" />
    <glyph glyph-name="uni2157" unicode="&#x2157;" horiz-adv-x="898" 
d="M325 411q0 -62 -42 -101t-108 -39q-53 0 -98 30t-57 78l68 26q9 -29 32 -47.5t56 -18.5q34 0 56.5 20.5t22.5 51.5q0 34 -23 54t-60 20h-54v57l95 100h-167v68h257v-58l-101 -106q57 -5 90 -43t33 -92zM154 0l500 710h81l-500 -710h-81zM569 102l69 25q8 -29 31 -47
t56 -18t54.5 22.5t21.5 55.5t-21.5 55.5t-54.5 22.5q-46 0 -68 -35h-68v249h254v-68h-184v-104q30 23 76 23q62 0 99.5 -42t37.5 -108q0 -61 -41 -100t-106 -39q-54 0 -99 30t-57 78z" />
    <glyph glyph-name="uni2158" unicode="&#x2158;" horiz-adv-x="934" 
d="M240 278v107h-221v56l228 269h63v-261h58v-64h-58v-107h-70zM190 0l500 710h81l-500 -710h-81zM240 449v157l-134 -157h134zM605 102l69 25q8 -29 31 -47t56 -18t54.5 22.5t21.5 55.5t-21.5 55.5t-54.5 22.5q-46 0 -68 -35h-68v249h254v-68h-184v-104q30 23 76 23
q62 0 99.5 -42t37.5 -108q0 -61 -41 -100t-106 -39q-54 0 -99 30t-57 78z" />
    <glyph glyph-name="uni2159" unicode="&#x2159;" horiz-adv-x="705" 
d="M85 278v366h-67v66h134v-432h-67zM22 0l500 710h81l-500 -710h-81zM680 140q0 -62 -41.5 -104t-107.5 -42q-65 0 -107 42t-42 102q0 32 12 56t38 58l141 180h87l-120 -153h5q53 0 94 -40t41 -99zM453 139q0 -33 22.5 -55.5t55.5 -22.5t55.5 22.5t22.5 55.5t-22.5 56
t-55.5 23t-55.5 -23t-22.5 -56z" />
    <glyph glyph-name="uni215A" unicode="&#x215a;" horiz-adv-x="841" 
d="M28 380l69 25q8 -29 31 -47t56 -18t54.5 22.5t21.5 55.5t-21.5 55.5t-54.5 22.5q-46 0 -68 -35h-68v249h254v-68h-184v-104q30 23 76 23q62 0 99.5 -42t37.5 -108q0 -61 -41 -100t-106 -39q-54 0 -99 30t-57 78zM157 0l500 710h81l-500 -710h-81zM816 140
q0 -62 -41.5 -104t-107.5 -42q-65 0 -107 42t-42 102q0 32 12 56t38 58l141 180h87l-120 -153h5q53 0 94 -40t41 -99zM589 139q0 -33 22.5 -55.5t55.5 -22.5t55.5 22.5t22.5 55.5t-22.5 56t-55.5 23t-55.5 -23t-22.5 -56z" />
    <glyph glyph-name="oneeighth" unicode="&#x215b;" horiz-adv-x="763" 
d="M85 278v366h-67v66h134v-432h-67zM22 0l500 710h81l-500 -710h-81zM732 130q0 -59 -42 -97.5t-108 -38.5q-64 0 -106.5 38.5t-42.5 97.5q0 74 62 109q-41 32 -41 86q0 49 36 81.5t92 32.5q57 0 92.5 -32.5t35.5 -81.5q0 -54 -40 -86q62 -33 62 -109zM522 320
q0 -24 17 -40t43 -16q28 0 45 16t17 40t-17.5 40t-44.5 16q-26 0 -43 -16t-17 -40zM504 132q0 -30 21.5 -52t56.5 -22q36 0 57 21.5t21 52.5t-21 52.5t-56 21.5q-36 0 -57.5 -21.5t-21.5 -52.5z" />
    <glyph glyph-name="threeeighths" unicode="&#x215c;" horiz-adv-x="895" 
d="M325 411q0 -62 -42 -101t-108 -39q-53 0 -98 30t-57 78l68 26q9 -29 32 -47.5t56 -18.5q34 0 56.5 20.5t22.5 51.5q0 34 -23 54t-60 20h-54v57l95 100h-167v68h257v-58l-101 -106q57 -5 90 -43t33 -92zM154 0l500 710h81l-500 -710h-81zM864 130q0 -59 -42 -97.5
t-108 -38.5q-64 0 -106.5 38.5t-42.5 97.5q0 74 62 109q-41 32 -41 86q0 49 36 81.5t92 32.5q57 0 92.5 -32.5t35.5 -81.5q0 -54 -40 -86q62 -33 62 -109zM654 320q0 -24 17 -40t43 -16q28 0 45 16t17 40t-17.5 40t-44.5 16q-26 0 -43 -16t-17 -40zM636 132q0 -30 21.5 -52
t56.5 -22q36 0 57 21.5t21 52.5t-21 52.5t-56 21.5q-36 0 -57.5 -21.5t-21.5 -52.5z" />
    <glyph glyph-name="fiveeighths" unicode="&#x215d;" horiz-adv-x="898" 
d="M28 380l69 25q8 -29 31 -47t56 -18t54.5 22.5t21.5 55.5t-21.5 55.5t-54.5 22.5q-46 0 -68 -35h-68v249h254v-68h-184v-104q30 23 76 23q62 0 99.5 -42t37.5 -108q0 -61 -41 -100t-106 -39q-54 0 -99 30t-57 78zM157 0l500 710h81l-500 -710h-81zM867 130
q0 -59 -42 -97.5t-108 -38.5q-64 0 -106.5 38.5t-42.5 97.5q0 74 62 109q-41 32 -41 86q0 49 36 81.5t92 32.5q57 0 92.5 -32.5t35.5 -81.5q0 -54 -40 -86q62 -33 62 -109zM657 320q0 -24 17 -40t43 -16q28 0 45 16t17 40t-17.5 40t-44.5 16q-26 0 -43 -16t-17 -40zM639 132
q0 -30 21.5 -52t56.5 -22q36 0 57 21.5t21 52.5t-21 52.5t-56 21.5q-36 0 -57.5 -21.5t-21.5 -52.5z" />
    <glyph glyph-name="seveneighths" unicode="&#x215e;" horiz-adv-x="820" 
d="M118 278h-79l199 364h-211v68h293v-60zM79 0l500 710h81l-500 -710h-81zM789 130q0 -59 -42 -97.5t-108 -38.5q-64 0 -106.5 38.5t-42.5 97.5q0 74 62 109q-41 32 -41 86q0 49 36 81.5t92 32.5q57 0 92.5 -32.5t35.5 -81.5q0 -54 -40 -86q62 -33 62 -109zM579 320
q0 -24 17 -40t43 -16q28 0 45 16t17 40t-17.5 40t-44.5 16q-26 0 -43 -16t-17 -40zM561 132q0 -30 21.5 -52t56.5 -22q36 0 57 21.5t21 52.5t-21 52.5t-56 21.5q-36 0 -57.5 -21.5t-21.5 -52.5z" />
    <glyph glyph-name="uni215F" unicode="&#x215f;" horiz-adv-x="402" 
d="M85 278v366h-67v66h134v-432h-67zM22 0l500 710h81l-500 -710h-81z" />
    <glyph glyph-name="uni2190" unicode="&#x2190;" horiz-adv-x="821" 
d="M349 -56l-306 306l306 306l48 -51l-219 -219h585v-72h-585l219 -220z" />
    <glyph glyph-name="uni2191" unicode="&#x2191;" horiz-adv-x="704" 
d="M316 0v587l-220 -220l-50 49l306 306l306 -306l-51 -49l-219 220v-587h-72z" />
    <glyph glyph-name="uni2192" unicode="&#x2192;" horiz-adv-x="821" 
d="M472 -56l-49 50l220 220h-585v72h585l-220 220l49 50l306 -306z" />
    <glyph glyph-name="uni2193" unicode="&#x2193;" horiz-adv-x="701" 
d="M351 -12l-306 306l49 49l221 -220v587h72v-587l219 220l51 -49z" />
    <glyph glyph-name="uni2196" unicode="&#x2196;" horiz-adv-x="732" 
d="M636 -12l-464 464v-312h-70v432h433v-70h-313l464 -464z" />
    <glyph glyph-name="uni2197" unicode="&#x2197;" horiz-adv-x="732" 
d="M96 -12l-51 50l465 464h-313v70h433v-432h-70v312z" />
    <glyph glyph-name="uni2198" unicode="&#x2198;" horiz-adv-x="726" 
d="M199 0v70h313l-464 464l50 50l465 -464v312h69v-432h-433z" />
    <glyph glyph-name="uni2199" unicode="&#x2199;" horiz-adv-x="726" 
d="M628 584l50 -50l-464 -464h313v-70h-433v432h69v-312z" />
    <glyph glyph-name="uni21B0" unicode="&#x21b0;" horiz-adv-x="846" 
d="M692 -194v408h-514l219 -220l-48 -50l-306 306l306 306l48 -50l-219 -220h585v-480h-71z" />
    <glyph glyph-name="uni21B1" unicode="&#x21b1;" horiz-adv-x="846" 
d="M83 -194v480h585l-220 220l49 50l306 -306l-306 -306l-49 50l220 220h-514v-408h-71z" />
    <glyph glyph-name="uni21B2" unicode="&#x21b2;" horiz-adv-x="858" 
d="M351 -58l-306 306l306 306l48 -50l-219 -220h513v426h72v-498h-585l219 -220z" />
    <glyph glyph-name="uni21B3" unicode="&#x21b3;" horiz-adv-x="858" 
d="M508 -58l-49 50l220 220h-585v498h71v-426h514l-220 220l49 50l306 -306z" />
    <glyph glyph-name="minus" unicode="&#x2212;" horiz-adv-x="558" 
d="M68 251v77h423v-77h-423z" />
    <glyph glyph-name="commaaccent" unicode="&#xf6c3;" 
d="M15 -273h-47l26 93h-47v104h106v-104z" />
    <glyph glyph-name="uniFB00" unicode="&#xfb00;" horiz-adv-x="802" 
d="M134 0v421h-118v79h118v73q0 74 44 118.5t117 44.5q59 0 105 -25l-33 -72q-36 18 -68 18q-37 0 -58 -24t-21 -65v-68h151v-79h-151v-421h-86zM534 0v421h-107v79h107v73q0 74 44 118.5t117 44.5q59 0 105 -25l-33 -72q-36 18 -68 18q-37 0 -58 -24t-21 -65v-68h170v-79
h-170v-421h-86z" />
    <glyph glyph-name="fi" unicode="&#xfb01;" horiz-adv-x="650" 
d="M134 0v421h-118v79h118v73q0 74 43.5 118.5t117.5 44.5q58 0 104 -25l-32 -72q-39 18 -68 18q-38 0 -58.5 -24t-20.5 -65v-68h170v-79h-170v-421h-86zM587 675q0 -25 -17.5 -43t-43.5 -18t-44 18t-18 43t18.5 43t43.5 18t43 -18t18 -43zM482 0v500h86v-500h-86z" />
    <glyph glyph-name="fl" unicode="&#xfb02;" horiz-adv-x="650" 
d="M134 0v421h-118v79h118v73q0 74 43.5 118.5t117.5 44.5q58 0 104 -25l-32 -72q-39 18 -68 18q-38 0 -58.5 -24t-20.5 -65v-68h170v-79h-170v-421h-86zM482 0v730h86v-730h-86z" />
    <glyph glyph-name="uniFB03" unicode="&#xfb03;" horiz-adv-x="1050" 
d="M988 675q0 -25 -18 -43t-43 -18q-26 0 -44 18t-18 43t18.5 43t43.5 18t43 -18t18 -43zM134 0v421h-118v79h118v73q0 74 44 118.5t117 44.5q59 0 105 -25l-33 -72q-36 18 -68 18q-37 0 -58 -24t-21 -65v-68h151v-79h-151v-421h-86zM534 0v421h-107v79h107v73
q0 74 44 118.5t117 44.5q59 0 105 -25l-33 -72q-36 18 -68 18q-37 0 -58 -24t-21 -65v-68h170v-79h-170v-421h-86zM883 0v500h86v-500h-86z" />
    <glyph glyph-name="uniFB04" unicode="&#xfb04;" horiz-adv-x="1050" 
d="M134 0v421h-118v79h118v73q0 74 44 118.5t117 44.5q59 0 105 -25l-33 -72q-36 18 -68 18q-37 0 -58 -24t-21 -65v-68h151v-79h-151v-421h-86zM534 0v421h-107v79h107v73q0 74 44 118.5t117 44.5q59 0 105 -25l-33 -72q-36 18 -68 18q-37 0 -58 -24t-21 -65v-68h170v-79
h-170v-421h-86zM883 0v730h86v-730h-86z" />
    <glyph glyph-name="uniFEFF" unicode="&#xfeff;" 
 />
    <glyph glyph-name="CR" horiz-adv-x="244" 
 />
    <glyph glyph-name="acute.case" 
d="M-94 768l78 137h109l-115 -137h-72z" />
    <glyph glyph-name="apple" horiz-adv-x="535" 
d="M234 675l129 48l-131 -252l233 10l-415 -492l242 402l-205 -12zM360 710q0 5 5 5t5 -5t-5 -5t-5 5zM370 700q0 5 5 5t5 -5t-5 -5t-5 5zM360 700q0 5 5 5t5 -5t-5 -5t-5 5zM350 690q0 5 5 5t5 -5t-5 -5t-5 5zM360 690q0 5 5 5t5 -5t-5 -5t-5 5zM370 690q0 5 5 5t5 -5
t-5 -5t-5 5zM380 690q0 5 5 5t5 -5t-5 -5t-5 5zM350 680q0 5 5 5t5 -5t-5 -5t-5 5zM360 680q0 5 5 5t5 -5t-5 -5t-5 5zM370 680q0 5 5 5t5 -5t-5 -5t-5 5zM380 680q0 5 5 5t5 -5t-5 -5t-5 5zM350 670q0 5 5 5t5 -5t-5 -5t-5 5zM360 670q0 5 5 5t5 -5t-5 -5t-5 5zM370 670
q0 5 5 5t5 -5t-5 -5t-5 5zM340 670q0 5 5 5t5 -5t-5 -5t-5 5zM350 660q0 5 5 5t5 -5t-5 -5t-5 5zM360 660q0 5 5 5t5 -5t-5 -5t-5 5zM370 660q0 5 5 5t5 -5t-5 -5t-5 5zM340 660q0 5 5 5t5 -5t-5 -5t-5 5zM340 650q0 5 5 5t5 -5t-5 -5t-5 5zM350 650q0 5 5 5t5 -5t-5 -5
t-5 5zM360 650q0 5 5 5t5 -5t-5 -5t-5 5zM330 650q0 5 5 5t5 -5t-5 -5t-5 5zM350 640q0 5 5 5t5 -5t-5 -5t-5 5zM330 640q0 5 5 5t5 -5t-5 -5t-5 5zM340 640q0 5 5 5t5 -5t-5 -5t-5 5zM350 630q0 5 5 5t5 -5t-5 -5t-5 5zM320 630q0 5 5 5t5 -5t-5 -5t-5 5zM330 630q0 5 5 5
t5 -5t-5 -5t-5 5zM340 630q0 5 5 5t5 -5t-5 -5t-5 5zM320 620q0 5 5 5t5 -5t-5 -5t-5 5zM330 620q0 5 5 5t5 -5t-5 -5t-5 5zM340 620q0 5 5 5t5 -5t-5 -5t-5 5zM310 610q0 5 5 5t5 -5t-5 -5t-5 5zM320 610q0 5 5 5t5 -5t-5 -5t-5 5zM330 610q0 5 5 5t5 -5t-5 -5t-5 5z
M340 610q0 5 5 5t5 -5t-5 -5t-5 5zM330 600q0 5 5 5t5 -5t-5 -5t-5 5zM300 600q0 5 5 5t5 -5t-5 -5t-5 5zM310 600q0 5 5 5t5 -5t-5 -5t-5 5zM320 600q0 5 5 5t5 -5t-5 -5t-5 5zM330 590q0 5 5 5t5 -5t-5 -5t-5 5zM300 590q0 5 5 5t5 -5t-5 -5t-5 5zM310 590q0 5 5 5t5 -5
t-5 -5t-5 5zM320 590q0 5 5 5t5 -5t-5 -5t-5 5zM290 580q0 5 5 5t5 -5t-5 -5t-5 5zM300 580q0 5 5 5t5 -5t-5 -5t-5 5zM310 580q0 5 5 5t5 -5t-5 -5t-5 5zM320 580q0 5 5 5t5 -5t-5 -5t-5 5zM290 570q0 5 5 5t5 -5t-5 -5t-5 5zM300 570q0 5 5 5t5 -5t-5 -5t-5 5zM310 570
q0 5 5 5t5 -5t-5 -5t-5 5zM290 560q0 5 5 5t5 -5t-5 -5t-5 5zM300 560q0 5 5 5t5 -5t-5 -5t-5 5zM310 560q0 5 5 5t5 -5t-5 -5t-5 5zM280 560q0 5 5 5t5 -5t-5 -5t-5 5zM290 550q0 5 5 5t5 -5t-5 -5t-5 5zM300 550q0 5 5 5t5 -5t-5 -5t-5 5zM280 550q0 5 5 5t5 -5t-5 -5
t-5 5zM290 540q0 5 5 5t5 -5t-5 -5t-5 5zM300 540q0 5 5 5t5 -5t-5 -5t-5 5zM280 540q0 5 5 5t5 -5t-5 -5t-5 5zM270 540q0 5 5 5t5 -5t-5 -5t-5 5zM280 530q0 5 5 5t5 -5t-5 -5t-5 5zM290 530q0 5 5 5t5 -5t-5 -5t-5 5zM270 530q0 5 5 5t5 -5t-5 -5t-5 5zM290 520q0 5 5 5
t5 -5t-5 -5t-5 5zM260 520q0 5 5 5t5 -5t-5 -5t-5 5zM270 520q0 5 5 5t5 -5t-5 -5t-5 5zM280 520q0 5 5 5t5 -5t-5 -5t-5 5zM280 510q0 5 5 5t5 -5t-5 -5t-5 5zM260 510q0 5 5 5t5 -5t-5 -5t-5 5zM270 510q0 5 5 5t5 -5t-5 -5t-5 5zM250 500q0 5 5 5t5 -5t-5 -5t-5 5z
M270 500q0 5 5 5t5 -5t-5 -5t-5 5zM280 500q0 5 5 5t5 -5t-5 -5t-5 5zM260 500q0 5 5 5t5 -5t-5 -5t-5 5zM250 490q0 5 5 5t5 -5t-5 -5t-5 5zM260 490q0 5 5 5t5 -5t-5 -5t-5 5zM270 490q0 5 5 5t5 -5t-5 -5t-5 5zM270 480q0 5 5 5t5 -5t-5 -5t-5 5zM240 480q0 5 5 5t5 -5
t-5 -5t-5 5zM250 480q0 5 5 5t5 -5t-5 -5t-5 5zM260 480q0 5 5 5t5 -5t-5 -5t-5 5zM460 470q0 5 5 5t5 -5t-5 -5t-5 5zM470 460q0 5 5 5t5 -5t-5 -5t-5 5zM460 460q0 5 5 5t5 -5t-5 -5t-5 5zM450 460q0 5 5 5t5 -5t-5 -5t-5 5zM470 450q0 5 5 5t5 -5t-5 -5t-5 5zM450 450
q0 5 5 5t5 -5t-5 -5t-5 5zM460 450q0 5 5 5t5 -5t-5 -5t-5 5zM450 440q0 5 5 5t5 -5t-5 -5t-5 5zM440 440q0 5 5 5t5 -5t-5 -5t-5 5zM480 440q0 5 5 5t5 -5t-5 -5t-5 5zM470 440q0 5 5 5t5 -5t-5 -5t-5 5zM460 440q0 5 5 5t5 -5t-5 -5t-5 5zM440 430q0 5 5 5t5 -5t-5 -5
t-5 5zM480 430q0 5 5 5t5 -5t-5 -5t-5 5zM470 430q0 5 5 5t5 -5t-5 -5t-5 5zM460 430q0 5 5 5t5 -5t-5 -5t-5 5zM450 430q0 5 5 5t5 -5t-5 -5t-5 5zM430 430q0 5 5 5t5 -5t-5 -5t-5 5zM460 420q0 5 5 5t5 -5t-5 -5t-5 5zM420 420q0 5 5 5t5 -5t-5 -5t-5 5zM430 420q0 5 5 5
t5 -5t-5 -5t-5 5zM440 420q0 5 5 5t5 -5t-5 -5t-5 5zM450 420q0 5 5 5t5 -5t-5 -5t-5 5zM470 420q0 5 5 5t5 -5t-5 -5t-5 5zM420 410q0 5 5 5t5 -5t-5 -5t-5 5zM410 410q0 5 5 5t5 -5t-5 -5t-5 5zM460 410q0 5 5 5t5 -5t-5 -5t-5 5zM450 410q0 5 5 5t5 -5t-5 -5t-5 5z
M440 410q0 5 5 5t5 -5t-5 -5t-5 5zM430 410q0 5 5 5t5 -5t-5 -5t-5 5zM420 400q0 5 5 5t5 -5t-5 -5t-5 5zM410 400q0 5 5 5t5 -5t-5 -5t-5 5zM400 400q0 5 5 5t5 -5t-5 -5t-5 5zM450 400q0 5 5 5t5 -5t-5 -5t-5 5zM440 400q0 5 5 5t5 -5t-5 -5t-5 5zM430 400q0 5 5 5t5 -5
t-5 -5t-5 5zM420 390q0 5 5 5t5 -5t-5 -5t-5 5zM430 390q0 5 5 5t5 -5t-5 -5t-5 5zM400 390q0 5 5 5t5 -5t-5 -5t-5 5zM390 390q0 5 5 5t5 -5t-5 -5t-5 5zM410 390q0 5 5 5t5 -5t-5 -5t-5 5zM440 390q0 5 5 5t5 -5t-5 -5t-5 5zM260 380q0 5 5 5t5 -5t-5 -5t-5 5zM250 380
q0 5 5 5t5 -5t-5 -5t-5 5zM240 380q0 5 5 5t5 -5t-5 -5t-5 5zM230 380q0 5 5 5t5 -5t-5 -5t-5 5zM220 380q0 5 5 5t5 -5t-5 -5t-5 5zM210 380q0 5 5 5t5 -5t-5 -5t-5 5zM200 380q0 5 5 5t5 -5t-5 -5t-5 5zM190 380q0 5 5 5t5 -5t-5 -5t-5 5zM420 380q0 5 5 5t5 -5t-5 -5
t-5 5zM410 380q0 5 5 5t5 -5t-5 -5t-5 5zM400 380q0 5 5 5t5 -5t-5 -5t-5 5zM390 380q0 5 5 5t5 -5t-5 -5t-5 5zM430 380q0 5 5 5t5 -5t-5 -5t-5 5zM270 380q0 5 5 5t5 -5t-5 -5t-5 5zM410 370q0 5 5 5t5 -5t-5 -5t-5 5zM90 370q0 5 5 5t5 -5t-5 -5t-5 5zM100 370q0 5 5 5
t5 -5t-5 -5t-5 5zM110 370q0 5 5 5t5 -5t-5 -5t-5 5zM120 370q0 5 5 5t5 -5t-5 -5t-5 5zM130 370q0 5 5 5t5 -5t-5 -5t-5 5zM140 370q0 5 5 5t5 -5t-5 -5t-5 5zM380 370q0 5 5 5t5 -5t-5 -5t-5 5zM390 370q0 5 5 5t5 -5t-5 -5t-5 5zM150 370q0 5 5 5t5 -5t-5 -5t-5 5z
M160 370q0 5 5 5t5 -5t-5 -5t-5 5zM170 370q0 5 5 5t5 -5t-5 -5t-5 5zM180 370q0 5 5 5t5 -5t-5 -5t-5 5zM190 370q0 5 5 5t5 -5t-5 -5t-5 5zM200 370q0 5 5 5t5 -5t-5 -5t-5 5zM400 370q0 5 5 5t5 -5t-5 -5t-5 5zM420 370q0 5 5 5t5 -5t-5 -5t-5 5zM210 370q0 5 5 5t5 -5
t-5 -5t-5 5zM220 370q0 5 5 5t5 -5t-5 -5t-5 5zM230 370q0 5 5 5t5 -5t-5 -5t-5 5zM240 370q0 5 5 5t5 -5t-5 -5t-5 5zM250 370q0 5 5 5t5 -5t-5 -5t-5 5zM260 370q0 5 5 5t5 -5t-5 -5t-5 5zM390 360q0 5 5 5t5 -5t-5 -5t-5 5zM410 360q0 5 5 5t5 -5t-5 -5t-5 5zM90 360
q0 5 5 5t5 -5t-5 -5t-5 5zM100 360q0 5 5 5t5 -5t-5 -5t-5 5zM110 360q0 5 5 5t5 -5t-5 -5t-5 5zM120 360q0 5 5 5t5 -5t-5 -5t-5 5zM400 360q0 5 5 5t5 -5t-5 -5t-5 5zM260 360q0 5 5 5t5 -5t-5 -5t-5 5zM250 360q0 5 5 5t5 -5t-5 -5t-5 5zM240 360q0 5 5 5t5 -5t-5 -5
t-5 5zM230 360q0 5 5 5t5 -5t-5 -5t-5 5zM220 360q0 5 5 5t5 -5t-5 -5t-5 5zM210 360q0 5 5 5t5 -5t-5 -5t-5 5zM130 360q0 5 5 5t5 -5t-5 -5t-5 5zM140 360q0 5 5 5t5 -5t-5 -5t-5 5zM150 360q0 5 5 5t5 -5t-5 -5t-5 5zM160 360q0 5 5 5t5 -5t-5 -5t-5 5zM170 360q0 5 5 5
t5 -5t-5 -5t-5 5zM180 360q0 5 5 5t5 -5t-5 -5t-5 5zM190 360q0 5 5 5t5 -5t-5 -5t-5 5zM380 360q0 5 5 5t5 -5t-5 -5t-5 5zM370 360q0 5 5 5t5 -5t-5 -5t-5 5zM200 360q0 5 5 5t5 -5t-5 -5t-5 5zM360 350q0 5 5 5t5 -5t-5 -5t-5 5zM180 350q0 5 5 5t5 -5t-5 -5t-5 5z
M170 350q0 5 5 5t5 -5t-5 -5t-5 5zM160 350q0 5 5 5t5 -5t-5 -5t-5 5zM150 350q0 5 5 5t5 -5t-5 -5t-5 5zM370 350q0 5 5 5t5 -5t-5 -5t-5 5zM410 350q0 5 5 5t5 -5t-5 -5t-5 5zM400 350q0 5 5 5t5 -5t-5 -5t-5 5zM140 350q0 5 5 5t5 -5t-5 -5t-5 5zM130 350q0 5 5 5t5 -5
t-5 -5t-5 5zM120 350q0 5 5 5t5 -5t-5 -5t-5 5zM110 350q0 5 5 5t5 -5t-5 -5t-5 5zM100 350q0 5 5 5t5 -5t-5 -5t-5 5zM390 350q0 5 5 5t5 -5t-5 -5t-5 5zM380 350q0 5 5 5t5 -5t-5 -5t-5 5zM400 340q0 5 5 5t5 -5t-5 -5t-5 5zM390 340q0 5 5 5t5 -5t-5 -5t-5 5zM380 340
q0 5 5 5t5 -5t-5 -5t-5 5zM370 340q0 5 5 5t5 -5t-5 -5t-5 5zM360 340q0 5 5 5t5 -5t-5 -5t-5 5zM350 340q0 5 5 5t5 -5t-5 -5t-5 5zM370 330q0 5 5 5t5 -5t-5 -5t-5 5zM380 330q0 5 5 5t5 -5t-5 -5t-5 5zM390 330q0 5 5 5t5 -5t-5 -5t-5 5zM360 330q0 5 5 5t5 -5t-5 -5
t-5 5zM350 330q0 5 5 5t5 -5t-5 -5t-5 5zM340 330q0 5 5 5t5 -5t-5 -5t-5 5zM360 320q0 5 5 5t5 -5t-5 -5t-5 5zM380 320q0 5 5 5t5 -5t-5 -5t-5 5zM370 320q0 5 5 5t5 -5t-5 -5t-5 5zM340 320q0 5 5 5t5 -5t-5 -5t-5 5zM350 320q0 5 5 5t5 -5t-5 -5t-5 5zM350 310q0 5 5 5
t5 -5t-5 -5t-5 5zM340 310q0 5 5 5t5 -5t-5 -5t-5 5zM330 310q0 5 5 5t5 -5t-5 -5t-5 5zM360 310q0 5 5 5t5 -5t-5 -5t-5 5zM370 310q0 5 5 5t5 -5t-5 -5t-5 5zM330 300q0 5 5 5t5 -5t-5 -5t-5 5zM320 300q0 5 5 5t5 -5t-5 -5t-5 5zM340 300q0 5 5 5t5 -5t-5 -5t-5 5z
M350 300q0 5 5 5t5 -5t-5 -5t-5 5zM360 300q0 5 5 5t5 -5t-5 -5t-5 5zM310 290q0 5 5 5t5 -5t-5 -5t-5 5zM320 290q0 5 5 5t5 -5t-5 -5t-5 5zM330 290q0 5 5 5t5 -5t-5 -5t-5 5zM340 290q0 5 5 5t5 -5t-5 -5t-5 5zM350 290q0 5 5 5t5 -5t-5 -5t-5 5zM330 280q0 5 5 5t5 -5
t-5 -5t-5 5zM300 280q0 5 5 5t5 -5t-5 -5t-5 5zM310 280q0 5 5 5t5 -5t-5 -5t-5 5zM320 280q0 5 5 5t5 -5t-5 -5t-5 5zM340 280q0 5 5 5t5 -5t-5 -5t-5 5zM310 270q0 5 5 5t5 -5t-5 -5t-5 5zM320 270q0 5 5 5t5 -5t-5 -5t-5 5zM330 270q0 5 5 5t5 -5t-5 -5t-5 5zM290 270
q0 5 5 5t5 -5t-5 -5t-5 5zM300 270q0 5 5 5t5 -5t-5 -5t-5 5zM310 260q0 5 5 5t5 -5t-5 -5t-5 5zM290 260q0 5 5 5t5 -5t-5 -5t-5 5zM300 260q0 5 5 5t5 -5t-5 -5t-5 5zM320 260q0 5 5 5t5 -5t-5 -5t-5 5zM310 250q0 5 5 5t5 -5t-5 -5t-5 5zM300 250q0 5 5 5t5 -5t-5 -5
t-5 5zM290 250q0 5 5 5t5 -5t-5 -5t-5 5zM280 250q0 5 5 5t5 -5t-5 -5t-5 5zM300 240q0 5 5 5t5 -5t-5 -5t-5 5zM290 240q0 5 5 5t5 -5t-5 -5t-5 5zM280 240q0 5 5 5t5 -5t-5 -5t-5 5zM270 240q0 5 5 5t5 -5t-5 -5t-5 5zM290 230q0 5 5 5t5 -5t-5 -5t-5 5zM280 230q0 5 5 5
t5 -5t-5 -5t-5 5zM270 230q0 5 5 5t5 -5t-5 -5t-5 5zM260 230q0 5 5 5t5 -5t-5 -5t-5 5zM280 220q0 5 5 5t5 -5t-5 -5t-5 5zM270 220q0 5 5 5t5 -5t-5 -5t-5 5zM260 220q0 5 5 5t5 -5t-5 -5t-5 5zM250 220q0 5 5 5t5 -5t-5 -5t-5 5zM280 210q0 5 5 5t5 -5t-5 -5t-5 5z
M270 210q0 5 5 5t5 -5t-5 -5t-5 5zM260 210q0 5 5 5t5 -5t-5 -5t-5 5zM250 210q0 5 5 5t5 -5t-5 -5t-5 5zM240 210q0 5 5 5t5 -5t-5 -5t-5 5zM270 200q0 5 5 5t5 -5t-5 -5t-5 5zM250 200q0 5 5 5t5 -5t-5 -5t-5 5zM230 200q0 5 5 5t5 -5t-5 -5t-5 5zM240 200q0 5 5 5t5 -5
t-5 -5t-5 5zM260 200q0 5 5 5t5 -5t-5 -5t-5 5zM250 190q0 5 5 5t5 -5t-5 -5t-5 5zM260 190q0 5 5 5t5 -5t-5 -5t-5 5zM230 190q0 5 5 5t5 -5t-5 -5t-5 5zM240 190q0 5 5 5t5 -5t-5 -5t-5 5zM250 180q0 5 5 5t5 -5t-5 -5t-5 5zM230 180q0 5 5 5t5 -5t-5 -5t-5 5zM240 180
q0 5 5 5t5 -5t-5 -5t-5 5zM220 180q0 5 5 5t5 -5t-5 -5t-5 5zM210 170q0 5 5 5t5 -5t-5 -5t-5 5zM240 170q0 5 5 5t5 -5t-5 -5t-5 5zM230 170q0 5 5 5t5 -5t-5 -5t-5 5zM220 170q0 5 5 5t5 -5t-5 -5t-5 5zM230 160q0 5 5 5t5 -5t-5 -5t-5 5zM220 160q0 5 5 5t5 -5t-5 -5
t-5 5zM210 160q0 5 5 5t5 -5t-5 -5t-5 5zM200 160q0 5 5 5t5 -5t-5 -5t-5 5zM220 150q0 5 5 5t5 -5t-5 -5t-5 5zM210 150q0 5 5 5t5 -5t-5 -5t-5 5zM200 150q0 5 5 5t5 -5t-5 -5t-5 5zM190 150q0 5 5 5t5 -5t-5 -5t-5 5zM190 140q0 5 5 5t5 -5t-5 -5t-5 5zM200 140q0 5 5 5
t5 -5t-5 -5t-5 5zM210 140q0 5 5 5t5 -5t-5 -5t-5 5zM180 140q0 5 5 5t5 -5t-5 -5t-5 5zM180 130q0 5 5 5t5 -5t-5 -5t-5 5zM190 130q0 5 5 5t5 -5t-5 -5t-5 5zM200 130q0 5 5 5t5 -5t-5 -5t-5 5zM170 120q0 5 5 5t5 -5t-5 -5t-5 5zM180 120q0 5 5 5t5 -5t-5 -5t-5 5z
M190 120q0 5 5 5t5 -5t-5 -5t-5 5zM160 110q0 5 5 5t5 -5t-5 -5t-5 5zM170 110q0 5 5 5t5 -5t-5 -5t-5 5zM180 110q0 5 5 5t5 -5t-5 -5t-5 5zM150 100q0 5 5 5t5 -5t-5 -5t-5 5zM160 100q0 5 5 5t5 -5t-5 -5t-5 5zM170 100q0 5 5 5t5 -5t-5 -5t-5 5zM160 90q0 5 5 5t5 -5
t-5 -5t-5 5zM150 90q0 5 5 5t5 -5t-5 -5t-5 5zM170 90q0 5 5 5t5 -5t-5 -5t-5 5zM140 90q0 5 5 5t5 -5t-5 -5t-5 5zM150 80q0 5 5 5t5 -5t-5 -5t-5 5zM160 80q0 5 5 5t5 -5t-5 -5t-5 5zM130 80q0 5 5 5t5 -5t-5 -5t-5 5zM140 80q0 5 5 5t5 -5t-5 -5t-5 5zM130 70q0 5 5 5
t5 -5t-5 -5t-5 5zM150 70q0 5 5 5t5 -5t-5 -5t-5 5zM140 70q0 5 5 5t5 -5t-5 -5t-5 5zM120 60q0 5 5 5t5 -5t-5 -5t-5 5zM130 60q0 5 5 5t5 -5t-5 -5t-5 5zM140 60q0 5 5 5t5 -5t-5 -5t-5 5zM110 50q0 5 5 5t5 -5t-5 -5t-5 5zM120 50q0 5 5 5t5 -5t-5 -5t-5 5zM130 50
q0 5 5 5t5 -5t-5 -5t-5 5zM100 40q0 5 5 5t5 -5t-5 -5t-5 5zM120 40q0 5 5 5t5 -5t-5 -5t-5 5zM110 40q0 5 5 5t5 -5t-5 -5t-5 5zM90 30q0 5 5 5t5 -5t-5 -5t-5 5zM100 30q0 5 5 5t5 -5t-5 -5t-5 5zM110 30q0 5 5 5t5 -5t-5 -5t-5 5zM90 20q0 5 5 5t5 -5t-5 -5t-5 5zM100 20
q0 5 5 5t5 -5t-5 -5t-5 5zM80 20q0 5 5 5t5 -5t-5 -5t-5 5zM70 10q0 5 5 5t5 -5t-5 -5t-5 5zM80 10q0 5 5 5t5 -5t-5 -5t-5 5zM90 10q0 5 5 5t5 -5t-5 -5t-5 5zM70 0q0 5 5 5t5 -5t-5 -5t-5 5zM80 0q0 5 5 5t5 -5t-5 -5t-5 5zM60 -10q0 5 5 5t5 -5t-5 -5t-5 5zM70 -10
q0 5 5 5t5 -5t-5 -5t-5 5zM60 -20q0 5 5 5t5 -5t-5 -5t-5 5z" />
    <glyph glyph-name="bar.case" horiz-adv-x="267" 
d="M94 -55v820h79v-820h-79z" />
    <glyph glyph-name="braceleft.case" horiz-adv-x="323" 
d="M292 -125h-60q-69 0 -98 35t-29 108v230q0 37 -11.5 54t-46.5 17h-15v72h15q35 0 46.5 16.5t11.5 53.5v231q0 72 29 107.5t97 35.5h61v-72h-48q-37 0 -49 -16.5t-12 -56.5v-225q0 -47 -12 -72t-42 -38q30 -14 42 -39t12 -72v-224q0 -41 12 -57t49 -16h48v-72z" />
    <glyph glyph-name="braceright.case" horiz-adv-x="323" 
d="M31 -125v72h48q37 0 49 16t12 57v224q0 47 12 72t42 39q-30 13 -42 38t-12 72v225q0 40 -12 56.5t-49 16.5h-48v72h61q68 0 97 -35.5t29 -107.5v-231q0 -37 11.5 -53.5t46.5 -16.5h15v-72h-15q-35 0 -46.5 -17t-11.5 -54v-230q0 -73 -29 -108t-98 -35h-60z" />
    <glyph glyph-name="bracketleft.case" horiz-adv-x="314" 
d="M95 -125v960h187v-72h-109v-816h109v-72h-187z" />
    <glyph glyph-name="bracketright.case" horiz-adv-x="313" 
d="M218 -125h-187v72h109v816h-109v72h187v-960z" />
    <glyph glyph-name="breve.case" 
d="M-159 917h58q0 -47 28.5 -74t72.5 -27t72.5 27t28.5 74h58q0 -71 -45.5 -114.5t-113.5 -43.5t-113.5 43.5t-45.5 114.5z" />
    <glyph glyph-name="brokenbar.case" horiz-adv-x="267" 
d="M94 403v362h79v-362h-79zM94 -55v362h79v-362h-79z" />
    <glyph glyph-name="caron.case" 
d="M-46 768l-127 137h93l80 -83l81 83h93l-127 -137h-93z" />
    <glyph glyph-name="caron.slovak" 
d="M-55 545l24 165h86l-50 -165h-60z" />
    <glyph glyph-name="cedilla.case" 
d="M-91 -137q33 -14 68 -14q57 0 57 33q0 27 -39 27q-23 0 -46 -9l-30 22l48 81h55l-32 -52q16 7 38 7q33 0 54.5 -19.5t21.5 -52.5q0 -42 -34 -66t-88 -24q-50 0 -87 17z" />
    <glyph glyph-name="circumflex.case" 
d="M-173 768l127 137h93l127 -137h-93l-81 83l-80 -83h-93z" />
    <glyph glyph-name="commaaccent.case" 
d="M15 -273h-47l26 93h-47v104h106v-104z" />
    <glyph glyph-name="commaaccent.top" 
d="M-15 797h47l-26 -93h47v-105h-106v105z" />
    <glyph glyph-name="dieresis.case" 
d="M-54 843q0 -24 -17 -41t-41 -17q-25 0 -42 17t-17 41t17 41.5t42 17.5q24 0 41 -17.5t17 -41.5zM171 843q0 -24 -17 -41t-41 -17t-41.5 17t-17.5 41t17.5 41.5t41.5 17.5t41 -17.5t17 -41.5z" />
    <glyph glyph-name="dieresis.i" 
d="M-37 657q0 -25 -18 -43t-43 -18q-26 0 -43.5 18t-17.5 43t18 42.5t43 17.5t43 -17.5t18 -42.5zM159 657q0 -25 -18 -43t-43 -18q-26 0 -43.5 18t-17.5 43t18 42.5t43 17.5t43 -17.5t18 -42.5z" />
    <glyph glyph-name="dot" horiz-adv-x="249" 
d="M186 675q0 -25 -18 -43t-43 -18q-26 0 -44 18t-18 43t18.5 43t43.5 18t43 -18t18 -43z" />
    <glyph glyph-name="dotaccent.L.case" 
d="M58 0q0 -24 -17 -41t-41 -17q-25 0 -42 17t-17 41t17 41.5t42 17.5q24 0 41 -17.5t17 -41.5z" />
    <glyph glyph-name="dotaccent.case" 
d="M58 843q0 -24 -17 -41t-41 -17q-25 0 -42 17t-17 41t17 41.5t42 17.5q24 0 41 -17.5t17 -41.5z" />
    <glyph glyph-name="dotaccent.l" 
d="M58 0q0 -24 -17 -41t-41 -17q-25 0 -42 17t-17 41t17 41.5t42 17.5q24 0 41 -17.5t17 -41.5z" />
    <glyph glyph-name="dotaccent.low" 
d="M58 -132q0 -24 -17 -41t-41 -17q-25 0 -42 17t-17 41t17 41t42 17q24 0 41 -17t17 -41z" />
    <glyph glyph-name="dotaccent.low.case" 
d="M58 -132q0 -24 -17 -41t-41 -17q-25 0 -42 17t-17 41t17 41.5t42 17.5q24 0 41 -17.5t17 -41.5z" />
    <glyph glyph-name="eight.dnom" horiz-adv-x="361" 
d="M330 130q0 -59 -42 -97.5t-108 -38.5q-64 0 -106.5 38.5t-42.5 97.5q0 74 62 109q-41 32 -41 86q0 49 36 81.5t92 32.5q57 0 92.5 -32.5t35.5 -81.5q0 -54 -40 -86q62 -33 62 -109zM120 320q0 -24 17 -40t43 -16q28 0 45 16t17 40t-17.5 40t-44.5 16q-26 0 -43 -16
t-17 -40zM102 132q0 -30 21.5 -52t56.5 -22q36 0 57 21.5t21 52.5t-21 52.5t-56 21.5q-36 0 -57.5 -21.5t-21.5 -52.5z" />
    <glyph glyph-name="eight.numr" horiz-adv-x="361" 
d="M330 408q0 -59 -42 -97.5t-108 -38.5q-64 0 -106.5 38.5t-42.5 97.5q0 74 62 109q-41 32 -41 86q0 49 36 81.5t92 32.5q57 0 92.5 -32.5t35.5 -81.5q0 -54 -40 -86q62 -33 62 -109zM120 598q0 -24 17 -40t43 -16q28 0 45 16t17 40t-17.5 40t-44.5 16q-26 0 -43 -16
t-17 -40zM102 410q0 -30 21.5 -52t56.5 -22q36 0 57 21.5t21 52.5t-21 52.5t-56 21.5q-36 0 -57.5 -21.5t-21.5 -52.5z" />
    <glyph glyph-name="eight.pof" horiz-adv-x="516" 
d="M469 188q0 -86 -59.5 -142t-151.5 -56q-90 0 -150.5 56t-60.5 142q0 112 96 162q-64 45 -64 125q0 70 51 116t128 46q78 0 128 -45.5t50 -116.5q0 -81 -63 -125q96 -47 96 -162zM163 472q0 -37 26.5 -64t68.5 -27q43 0 69 26.5t26 64.5q0 39 -26 65t-69 26
q-42 0 -68.5 -26.5t-26.5 -64.5zM134 189q0 -52 34.5 -87.5t89.5 -35.5q56 0 89.5 35.5t33.5 87.5t-33.5 87t-89.5 35q-55 0 -89.5 -35t-34.5 -87z" />
    <glyph glyph-name="eight.tlf" horiz-adv-x="590" 
d="M533 213q0 -97 -66.5 -160t-171.5 -63q-104 0 -171.5 63t-67.5 160q0 130 113 186q-74 50 -74 140q0 79 57 131t143 52q87 0 143 -51.5t56 -131.5q0 -90 -72 -140q53 -26 82 -74.5t29 -111.5zM180 537q0 -43 32 -74t83 -31q52 0 83 31t31 74q0 45 -31 74.5t-83 29.5
q-51 0 -83 -29.5t-32 -74.5zM143 213q0 -60 42 -100.5t110 -40.5q69 0 110 40.5t41 100.5q0 62 -40.5 102t-110.5 40q-68 0 -110 -40.5t-42 -101.5z" />
    <glyph glyph-name="emdash.case" horiz-adv-x="641" 
d="M68 312v86h505v-86h-505z" />
    <glyph glyph-name="endash.case" horiz-adv-x="571" 
d="M68 312v86h434v-86h-434z" />
    <glyph glyph-name="equal.case" horiz-adv-x="560" 
d="M68 425v77h424v-77h-424zM68 208v76h424v-76h-424z" />
    <glyph glyph-name="exclamdown.case" horiz-adv-x="277" 
d="M200 580h-123v124h123v-124zM165 474l16 -189v-285h-86v285l16 189h54z" />
    <glyph glyph-name="five.dnom" horiz-adv-x="357" 
d="M28 102l69 25q8 -29 31 -47t56 -18t54.5 22.5t21.5 55.5t-21.5 55.5t-54.5 22.5q-46 0 -68 -35h-68v249h254v-68h-184v-104q30 23 76 23q62 0 99.5 -42t37.5 -108q0 -61 -41 -100t-106 -39q-54 0 -99 30t-57 78z" />
    <glyph glyph-name="five.numr" horiz-adv-x="357" 
d="M28 380l69 25q8 -29 31 -47t56 -18t54.5 22.5t21.5 55.5t-21.5 55.5t-54.5 22.5q-46 0 -68 -35h-68v249h254v-68h-184v-104q30 23 76 23q62 0 99.5 -42t37.5 -108q0 -61 -41 -100t-106 -39q-54 0 -99 30t-57 78z" />
    <glyph glyph-name="five.pof" horiz-adv-x="498" 
d="M39 78l86 29q12 -47 46.5 -75.5t85.5 -28.5t84 37.5t33 92.5t-33.5 92.5t-84.5 37.5q-70 0 -103 -53h-86v350h354v-80h-268v-179q44 39 116 40q83 1 137.5 -58.5t54.5 -149.5q0 -91 -58 -150.5t-146 -59.5q-75 0 -137.5 43t-80.5 112z" />
    <glyph glyph-name="five.tlf" horiz-adv-x="590" 
d="M55 164l87 30q13 -53 57 -86.5t106 -33.5t104 44t42 108q0 65 -42 109t-107 44q-87 0 -127 -61h-88v392h405v-84h-319v-216q21 22 58.5 36.5t81.5 14.5q100 0 163 -70t63 -176q0 -94 -67.5 -159.5t-166.5 -65.5q-87 0 -159 48.5t-91 125.5z" />
    <glyph glyph-name="four.dnom" horiz-adv-x="390" 
d="M240 0v107h-221v56l228 269h63v-261h58v-64h-58v-107h-70zM240 171v157l-134 -157h134z" />
    <glyph glyph-name="four.numr" horiz-adv-x="390" 
d="M240 278v107h-221v56l228 269h63v-261h58v-64h-58v-107h-70zM240 449v157l-134 -157h134z" />
    <glyph glyph-name="four.pof" horiz-adv-x="539" 
d="M336 -68v167h-319v66l329 395h76v-384h83v-77h-83v-167h-86zM336 176v254l-209 -254h209z" />
    <glyph glyph-name="four.tlf" horiz-adv-x="590" 
d="M382 0v193h-378v69l389 448h75v-436h98v-81h-98v-193h-86zM382 274v306l-265 -306h265z" />
    <glyph glyph-name="grave.case" 
d="M93 768h-72l-115 137h109z" />
    <glyph glyph-name="greater.case" horiz-adv-x="464" 
d="M58 54v94l282 184l-282 184v94l360 -234v-87z" />
    <glyph glyph-name="guillemotleft.case" horiz-adv-x="499" 
d="M321 355l114 -196l-58 -38l-152 234l152 234l58 -38zM148 355l114 -196l-58 -38l-152 234l152 234l58 -38z" />
    <glyph glyph-name="guillemotright.case" horiz-adv-x="499" 
d="M351 355l-114 196l58 38l152 -234l-152 -234l-58 38zM178 355l-114 196l58 38l152 -234l-152 -234l-58 38z" />
    <glyph glyph-name="guilsinglleft.case" horiz-adv-x="326" 
d="M148 355l114 -196l-58 -38l-152 234l152 234l58 -38z" />
    <glyph glyph-name="guilsinglright.case" horiz-adv-x="326" 
d="M178 355l-114 196l58 38l152 -234l-152 -234l-58 38z" />
    <glyph glyph-name="hungarumlaut.case" 
d="M-161 768l55 137h99l-91 -137h-63zM7 768l54 137h100l-92 -137h-62z" />
    <glyph glyph-name="hyphen.case" horiz-adv-x="392" 
d="M68 312v86h255v-86h-255z" />
    <glyph glyph-name="less.case" horiz-adv-x="464" 
d="M406 54l-360 235v87l360 234v-94l-282 -184l282 -184v-94z" />
    <glyph glyph-name="macron.case" 
d="M-161 805v69h322v-69h-322z" />
    <glyph glyph-name="minus.case" horiz-adv-x="560" 
d="M69 316v77h423v-77h-423z" />
    <glyph glyph-name="multiply.case" horiz-adv-x="503" 
d="M109 159l-56 55l143 141l-143 140l56 56l143 -140l142 140l56 -56l-143 -140l143 -141l-56 -55l-142 140z" />
    <glyph glyph-name="nine.dnom" horiz-adv-x="343" 
d="M44 0l120 154h-4q-53 0 -94 39.5t-41 99.5q0 62 41.5 104t106.5 42q66 0 108 -42t42 -102q0 -32 -12 -56.5t-38 -58.5l-142 -180h-87zM96 293q0 -33 22 -56t55 -23q34 0 56.5 23t22.5 56t-22.5 56t-56.5 23q-33 0 -55 -23t-22 -56z" />
    <glyph glyph-name="nine.numr" horiz-adv-x="343" 
d="M44 278l120 154h-4q-53 0 -94 39.5t-41 99.5q0 62 41.5 104t106.5 42q66 0 108 -42t42 -102q0 -32 -12 -56.5t-38 -58.5l-142 -180h-87zM96 571q0 -33 22 -56t55 -23q34 0 56.5 23t22.5 56t-22.5 56t-56.5 23q-33 0 -55 -23t-22 -56z" />
    <glyph glyph-name="nine.pof" horiz-adv-x="505" 
d="M44 359q0 89 59.5 149.5t151.5 60.5t151.5 -60t59.5 -146q0 -46 -17.5 -82.5t-51.5 -80.5l-215 -268h-108l180 225q-5 -1 -17 -1q-77 0 -135 60t-58 143zM255 230q54 0 88.5 37.5t34.5 92.5q0 56 -34.5 93.5t-88.5 37.5q-55 0 -89.5 -37.5t-34.5 -93.5q0 -55 34.5 -92.5
t89.5 -37.5z" />
    <glyph glyph-name="nine.tlf" horiz-adv-x="590" 
d="M89 0l219 259q-9 -2 -28 -2q-89 0 -155.5 68t-66.5 160q0 100 68.5 168.5t171.5 68.5t172 -68t69 -166q0 -52 -20.5 -93.5t-59.5 -87.5l-260 -307h-110zM146 486q0 -64 43.5 -108.5t108.5 -44.5t109 44.5t44 108.5t-44 108.5t-109 44.5t-108.5 -44.5t-43.5 -108.5z" />
    <glyph glyph-name="ogonek.case" 
d="M90 -179q-33 -25 -82 -25q-43 0 -71 24.5t-28 61.5q0 59 74 118h92q-84 -53 -84 -99q0 -31 36 -31q19 0 34 9z" />
    <glyph glyph-name="one.dnom" horiz-adv-x="214" 
d="M86 0v366h-67v66h134v-432h-67z" />
    <glyph glyph-name="one.numr" horiz-adv-x="214" 
d="M85 278v366h-67v66h134v-432h-67z" />
    <glyph glyph-name="one.pof" horiz-adv-x="291" 
d="M121 0v482h-89v78h175v-560h-86z" />
    <glyph glyph-name="one.tlf" horiz-adv-x="590" 
d="M346 82h177v-82h-440v82h177v543h-127v85h213v-628z" />
    <glyph glyph-name="parenleft.case" horiz-adv-x="269" 
d="M234 804q-107 -218 -107 -450t107 -450l-56 -30q-128 232 -128 480t128 480z" />
    <glyph glyph-name="parenright.case" horiz-adv-x="269" 
d="M35 804l56 30q128 -232 128 -480t-128 -480l-56 30q107 218 107 450t-107 450z" />
    <glyph glyph-name="periodcentered.case" horiz-adv-x="260" 
d="M192 288h-123v124h123v-124z" />
    <glyph glyph-name="plus.case" horiz-adv-x="500" 
d="M38 316v77h173v172h78v-172h172v-77h-172v-172h-78v172h-173z" />
    <glyph glyph-name="questiondown.case" horiz-adv-x="527" 
d="M221 710h123v-124h-123v124zM325 474v-20q0 -62 -91 -130q-34 -26 -50 -40t-29.5 -38t-13.5 -52q0 -51 38 -86.5t92 -35.5q51 0 92 24.5t65 67.5l70 -42q-32 -60 -92 -97t-136 -37q-92 0 -153.5 60.5t-61.5 143.5q0 60 29 102t76 78q4 3 15.5 12t16.5 13t14.5 12
t13.5 13.5t9.5 13t7.5 15t2 15.5v8h86z" />
    <glyph glyph-name="ring.case" 
d="M122 872q0 -50 -35.5 -85.5t-85.5 -35.5t-86 35.5t-36 85.5t36 85.5t86 35.5q49 0 85 -35.5t36 -85.5zM-10 813q23 -5 44.5 9.5t25.5 38.5t-10.5 44.5t-37.5 25.5q-24 4 -44.5 -10t-25.5 -38t9.5 -44.5t38.5 -25.5z" />
    <glyph glyph-name="seven.dnom" horiz-adv-x="334" 
d="M119 0h-79l199 364h-211v68h293v-60z" />
    <glyph glyph-name="seven.numr" horiz-adv-x="334" 
d="M118 278h-79l199 364h-211v68h293v-60z" />
    <glyph glyph-name="seven.pof" horiz-adv-x="449" 
d="M142 -68h-97l285 550h-306v78h407v-69z" />
    <glyph glyph-name="seven.tlf" horiz-adv-x="590" 
d="M193 0h-96l332 626h-364v84h466v-72z" />
    <glyph glyph-name="six.dnom" horiz-adv-x="343" 
d="M318 140q0 -62 -41.5 -104t-107.5 -42q-65 0 -107 42t-42 102q0 32 12 56t38 58l141 180h87l-120 -153h5q53 0 94 -40t41 -99zM91 139q0 -33 22.5 -55.5t55.5 -22.5t55.5 22.5t22.5 55.5t-22.5 56t-55.5 23t-55.5 -23t-22.5 -56z" />
    <glyph glyph-name="six.numr" horiz-adv-x="343" 
d="M318 418q0 -62 -41.5 -104t-107.5 -42q-65 0 -107 42t-42 102q0 32 12 56t38 58l141 180h87l-120 -153h5q53 0 94 -40t41 -99zM91 417q0 -33 22.5 -55.5t55.5 -22.5t55.5 22.5t22.5 55.5t-22.5 56t-55.5 23t-55.5 -23t-22.5 -56z" />
    <glyph glyph-name="six.pof" horiz-adv-x="508" 
d="M464 200q0 -89 -59.5 -149.5t-151.5 -60.5t-151.5 60t-59.5 146q0 46 17.5 82.5t51.5 80.5l215 268h108l-180 -225q5 1 17 1q77 0 135 -60t58 -143zM253 329q-54 0 -88.5 -37.5t-34.5 -92.5q0 -56 34.5 -93.5t88.5 -37.5q55 0 89.5 37.5t34.5 93.5q0 55 -34.5 92.5
t-89.5 37.5z" />
    <glyph glyph-name="six.tlf" horiz-adv-x="590" 
d="M532 226q0 -99 -68.5 -167.5t-171.5 -68.5t-172 68t-69 166q0 52 20.5 93.5t59.5 87.5l259 305h109l-217 -257q20 2 28 2q89 0 155.5 -68t66.5 -161zM139 226q0 -64 44 -108.5t109 -44.5q64 0 108 45t44 108t-44 108t-108 45q-65 0 -109 -44.5t-44 -108.5z" />
    <glyph glyph-name="three.dnom" horiz-adv-x="354" 
d="M325 133q0 -62 -42 -101t-108 -39q-53 0 -98 30t-57 78l68 26q9 -29 32 -47.5t56 -18.5q34 0 56.5 20.5t22.5 51.5q0 34 -23 54t-60 20h-54v57l95 100h-167v68h257v-58l-101 -106q57 -5 90 -43t33 -92z" />
    <glyph glyph-name="three.numr" horiz-adv-x="354" 
d="M325 411q0 -62 -42 -101t-108 -39q-53 0 -98 30t-57 78l68 26q9 -29 32 -47.5t56 -18.5q34 0 56.5 20.5t22.5 51.5q0 34 -23 54t-60 20h-54v57l95 100h-167v68h257v-58l-101 -106q57 -5 90 -43t33 -92z" />
    <glyph glyph-name="three.pof" horiz-adv-x="498" 
d="M455 125q0 -86 -60 -144t-153 -58q-76 0 -138.5 42.5t-78.5 111.5l85 30q12 -47 47 -76t85 -29q52 0 88.5 35t36.5 88q0 57 -34 90t-91 33h-72v66l145 166h-257v80h367v-67l-149 -172q80 -5 129.5 -60t49.5 -136z" />
    <glyph glyph-name="three.tlf" horiz-adv-x="590" 
d="M530 215q0 -98 -67.5 -161.5t-174.5 -63.5q-87 0 -159 48t-91 126l87 30q14 -54 58 -87t106 -33q64 0 109 40t45 101q0 67 -43 105t-114 38h-84v71l180 197h-304v84h419v-71l-182 -200q98 -5 156.5 -68t58.5 -156z" />
    <glyph glyph-name="tilde.case" 
d="M-173 786l3 18q7 43 36.5 69t69.5 26q28 0 71.5 -22t57.5 -22q33 0 43 44h66l-4 -19q-8 -42 -37 -68t-69 -26q-29 0 -72 22t-56 22q-32 0 -44 -44h-65z" />
    <glyph glyph-name="two.dnom" horiz-adv-x="351" 
d="M30 0v60l167 162q46 46 46 83q0 27 -18.5 46t-47.5 19t-50.5 -19t-26.5 -48l-69 16q10 55 51 87.5t97 32.5q58 0 96.5 -35.5t38.5 -94.5q0 -40 -18.5 -72.5t-54.5 -66.5l-105 -102h182v-68h-288z" />
    <glyph glyph-name="two.numr" horiz-adv-x="351" 
d="M30 278v60l167 162q46 46 46 83q0 27 -18.5 46t-47.5 19t-50.5 -19t-26.5 -48l-69 16q10 55 51 87.5t97 32.5q58 0 96.5 -35.5t38.5 -94.5q0 -40 -18.5 -72.5t-54.5 -66.5l-105 -102h182v-68h-288z" />
    <glyph glyph-name="two.pof" horiz-adv-x="487" 
d="M44 0v68l228 208q71 65 71 122q0 39 -28.5 66.5t-71.5 27.5q-41 0 -71.5 -26t-38.5 -65l-85 16q13 68 67.5 110.5t130.5 42.5q79 0 131.5 -46.5t52.5 -122.5q0 -51 -25.5 -93.5t-75.5 -88.5l-154 -142h262v-77h-393z" />
    <glyph glyph-name="two.tlf" horiz-adv-x="590" 
d="M59 0v72l274 266q94 90 94 167q0 56 -38.5 94.5t-95.5 38.5q-53 0 -93 -35t-48 -88l-86 18q14 82 78 135.5t152 53.5q94 0 156 -60t62 -153q0 -116 -122 -233l-201 -193h332v-83h-464z" />
    <glyph glyph-name="zero.dnom" horiz-adv-x="390" 
d="M352 160q0 -73 -44 -119.5t-113 -46.5q-70 0 -114 46.5t-44 119.5v112q0 74 44 120.5t114 46.5q69 0 113 -47t44 -120v-112zM107 160q0 -45 24 -71.5t64 -26.5q38 0 62.5 26.5t24.5 71.5v112q0 46 -24.5 72t-62.5 26q-40 0 -64 -26t-24 -72v-112z" />
    <glyph glyph-name="zero.numr" horiz-adv-x="390" 
d="M352 438q0 -73 -44 -119.5t-113 -46.5q-70 0 -114 46.5t-44 119.5v112q0 74 44 120.5t114 46.5q69 0 113 -47t44 -120v-112zM107 438q0 -45 24 -71.5t64 -26.5q38 0 62.5 26.5t24.5 71.5v112q0 46 -24.5 72t-62.5 26q-40 0 -64 -26t-24 -72v-112z" />
    <glyph glyph-name="zero.pof" horiz-adv-x="544" 
d="M485 205q0 -95 -60 -155t-153 -60q-94 0 -153.5 60t-59.5 155v151q0 94 59.5 154t153.5 60q93 0 153 -60t60 -154v-151zM145 205q0 -64 35 -100.5t92 -36.5t92 37t35 100v151q0 63 -35.5 99.5t-91.5 36.5q-57 0 -92 -36.5t-35 -99.5v-151z" />
    <glyph glyph-name="zero.slashed" horiz-adv-x="623" 
d="M563 257q0 -118 -71 -192.5t-181 -74.5t-180.5 74.5t-70.5 192.5v198q0 117 70.5 192t180.5 75t181 -75t71 -192v-198zM146 455v-164l327 212q-13 64 -56 99.5t-106 35.5q-73 0 -119 -49t-46 -134zM477 257v165l-327 -212q13 -64 56 -100t105 -36q74 0 120 49t46 134z
" />
    <glyph glyph-name="zero.slashed.dnom" horiz-adv-x="391" 
d="M353 160q0 -73 -44 -119.5t-113 -46.5q-70 0 -114 46.5t-44 119.5v112q0 74 44 120.5t114 46.5q69 0 113 -47t44 -120v-112zM108 272v-78l172 106q-16 70 -84 70q-40 0 -64 -26t-24 -72zM283 160v80l-173 -106q7 -34 30 -53t56 -19q38 0 62.5 26.5t24.5 71.5z" />
    <glyph glyph-name="zero.slashed.inferior" horiz-adv-x="390" 
d="M352 45q0 -73 -44 -119.5t-113 -46.5q-70 0 -114 46.5t-44 119.5v112q0 74 44 120.5t114 46.5q69 0 113 -47t44 -120v-112zM107 157v-78l172 106q-16 70 -84 70q-40 0 -64 -26t-24 -72zM282 45v80l-173 -106q7 -34 30 -53t56 -19q38 0 62.5 26.5t24.5 71.5z" />
    <glyph glyph-name="zero.slashed.numr" horiz-adv-x="390" 
d="M352 438q0 -73 -44 -119.5t-113 -46.5q-70 0 -114 46.5t-44 119.5v112q0 74 44 120.5t114 46.5q69 0 113 -47t44 -120v-112zM107 550v-78l172 106q-16 70 -84 70q-40 0 -64 -26t-24 -72zM282 438v80l-173 -106q7 -34 30 -53t56 -19q38 0 62.5 26.5t24.5 71.5z" />
    <glyph glyph-name="zero.slashed.pof" horiz-adv-x="544" 
d="M485 205q0 -95 -60 -155t-153 -60q-94 0 -153.5 60t-59.5 155v151q0 94 59.5 154t153.5 60q93 0 153 -60t60 -154v-151zM145 205v-12l236 239q-34 60 -109 60q-57 0 -92 -36.5t-35 -99.5v-151zM399 356q0 10 -1 14l-236 -241q34 -61 110 -61q57 0 92 37t35 100v151z" />
    <glyph glyph-name="zero.slashed.superior" horiz-adv-x="390" 
d="M352 570q0 -73 -44 -119.5t-113 -46.5q-70 0 -114 46.5t-44 119.5v112q0 74 44 120.5t114 46.5q69 0 113 -47t44 -120v-112zM107 682v-78l172 106q-16 70 -84 70q-40 0 -64 -26t-24 -72zM282 570v80l-173 -106q7 -34 30 -53t56 -19q38 0 62.5 26.5t24.5 71.5z" />
    <glyph glyph-name="zero.slashed.tlf" horiz-adv-x="590" 
d="M547 257q0 -118 -71 -192.5t-181 -74.5t-180.5 74.5t-70.5 192.5v198q0 117 70.5 192t180.5 75t181 -75t71 -192v-198zM130 455v-177l323 242q-16 56 -58 87t-100 31q-73 0 -119 -49t-46 -134zM461 257v179l-323 -243q16 -57 57.5 -88t99.5 -31q74 0 120 49t46 134z" />
    <glyph glyph-name="zero.tlf" horiz-adv-x="590" 
d="M547 257q0 -118 -71 -192.5t-181 -74.5t-180.5 74.5t-70.5 192.5v198q0 117 70.5 192t180.5 75t181 -75t71 -192v-198zM130 257q0 -85 46 -134t119 -49q74 0 120 49t46 134v198q0 85 -46 134t-120 49q-73 0 -119 -49t-46 -134v-198z" />
    <glyph glyph-name="L_periodcentered" horiz-adv-x="553" 
d="M94 0v710h93v-622h343v-88h-436zM475 399q0 -24 -17 -41t-41 -17q-25 0 -42 17t-17 41t17 41.5t42 17.5q24 0 41 -17.5t17 -41.5z" />
    <glyph glyph-name="uni00AD.case" horiz-adv-x="392" 
d="M68 312v86h255v-86h-255z" />
    <glyph glyph-name="l_periodcentered" horiz-adv-x="366" 
d="M81 0v730h86v-730h-86zM375 375q0 -24 -17 -41t-41 -17q-25 0 -42 17t-17 41t17 41.5t42 17.5q24 0 41 -17.5t17 -41.5z" />
    </font>
</defs>
</svg>
