<svg xmlns="http://www.w3.org/2000/svg" xmlns:xlink="http://www.w3.org/1999/xlink" width="141" height="133" viewBox="0 0 141 133"><defs><path id="qj0ya" d="M408.48 488.6l-1.98-1.12-52.11 29.62c-6.25 3.55-16.37 3.55-22.62 0l-52.1-29.62-1.99 1.12c-6.24 3.55-6.24 9.31 0 12.86l54.1 30.75c6.24 3.55 16.36 3.55 22.61 0l54.09-30.75c6.24-3.55 6.24-9.3 0-12.86"/><path id="qj0yb" d="M408.48 514.82l-1.98-1.12-52.11 29.62c-6.25 3.55-16.37 3.55-22.62 0l-52.1-29.62-1.99 1.12c-6.24 3.55-6.24 9.31 0 12.86l54.1 30.75c6.24 3.55 16.36 3.55 22.61 0l54.09-30.75c6.24-3.55 6.24-9.3 0-12.86"/><path id="qj0yc" d="M408.48 462.82l-54.1-31.12c-6.24-3.6-16.36-3.6-22.6 0l-54.1 31.12c-6.24 3.6-6.24 9.43 0 13.02l54.1 31.13c6.24 3.6 16.36 3.6 22.61 0l54.09-31.13c6.24-3.6 6.24-9.42 0-13.02"/><path id="qj0yd" d="M350.15 469.33c0-2.71 3.82-4.92 8.52-4.92 4.7 0 8.51 2.2 8.51 4.92 0 2.71-3.82 4.92-8.51 4.92-4.7 0-8.52-2.2-8.52-4.92zm-31.18 0c0-2.71 3.82-4.92 8.52-4.92 4.7 0 8.52 2.2 8.52 4.92 0 2.71-3.82 4.92-8.52 4.92-4.7 0-8.52-2.2-8.52-4.92zm24.1-6.45c-3.48-2.8-9.16-4.64-15.58-4.64-10.59 0-19.2 4.97-19.2 11.1 0 6.1 8.61 11.08 19.2 11.08 6.42 0 12.1-1.83 15.59-4.64 3.49 2.8 9.16 4.64 15.59 4.64 10.58 0 19.2-4.97 19.2-11.09s-8.62-11.09-19.2-11.09c-6.43 0-12.1 1.84-15.6 4.64z"/></defs><g><g transform="translate(-273 -429)"><g><use fill="#7e7e84" xlink:href="#qj0ya"/></g><g><use fill="#b29dba" xlink:href="#qj0yb"/></g><g><use fill="#2d2c55" xlink:href="#qj0yc"/></g><g><use fill="#fff" xlink:href="#qj0yd"/></g></g></g></svg>