<svg xmlns="http://www.w3.org/2000/svg" xmlns:xlink="http://www.w3.org/1999/xlink" width="16" height="16" viewBox="0 0 16 16"><defs><path id="7vyna" d="M1244.43 617.06l4.57 4.57-1.37 1.37-4.57-4.57v-.73l-.28-.28a5.72 5.72 0 0 1-3.84 1.47 5.93 5.93 0 1 1 0-11.89c3.3 0 5.95 2.65 5.95 5.94 0 1.47-.55 2.84-1.47 3.84l.28.28zm-5.5.26a4.37 4.37 0 0 0 4.4-4.38 4.37 4.37 0 0 0-4.4-4.4 4.37 4.37 0 0 0-4.38 4.4 4.37 4.37 0 0 0 4.39 4.38z"/></defs><g><g transform="translate(-1233 -607)"><use fill="#535353" xlink:href="#7vyna"/></g></g></svg>