<svg xmlns="http://www.w3.org/2000/svg" xmlns:xlink="http://www.w3.org/1999/xlink" width="1294" height="490" viewBox="0 0 1294 490"><defs><path id="bgpoa" d="M764 153a6 6 0 0 1 6-6h33a6 6 0 0 1 6 6v43a6 6 0 0 1-6 6h-33a6 6 0 0 1-6-6z"/><path id="bgpob" d="M654 273a6 6 0 0 1 6-6h33a6 6 0 0 1 6 6v43a6 6 0 0 1-6 6h-33a6 6 0 0 1-6-6z"/><path id="bgpoc" d="M1111 523a6 6 0 0 1 6-6h33a6 6 0 0 1 6 6v43a6 6 0 0 1-6 6h-33a6 6 0 0 1-6-6z"/><path id="bgpod" d="M819 153a6 6 0 0 1 6-6h33a6 6 0 0 1 6 6v43a6 6 0 0 1-6 6h-33a6 6 0 0 1-6-6z"/><path id="bgpoe" d="M1056 153a6 6 0 0 1 6-6h33a6 6 0 0 1 6 6v43a6 6 0 0 1-6 6h-33a6 6 0 0 1-6-6z"/><path id="bgpof" d="M1056 88a6 6 0 0 1 6-6h33a6 6 0 0 1 6 6v43a6 6 0 0 1-6 6h-33a6 6 0 0 1-6-6z"/><path id="bgpog" d="M1111 153a6 6 0 0 1 6-6h33a6 6 0 0 1 6 6v43a6 6 0 0 1-6 6h-33a6 6 0 0 1-6-6z"/><path id="bgpoh" d="M1256 343a6 6 0 0 1 6-6h33a6 6 0 0 1 6 6v43a6 6 0 0 1-6 6h-33a6 6 0 0 1-6-6z"/><path id="bgpoi" d="M1166 88a6 6 0 0 1 6-6h33a6 6 0 0 1 6 6v43a6 6 0 0 1-6 6h-33a6 6 0 0 1-6-6z"/><path id="bgpoj" d="M1166 458a6 6 0 0 1 6-6h33a6 6 0 0 1 6 6v43a6 6 0 0 1-6 6h-33a6 6 0 0 1-6-6z"/><path id="bgpok" d="M709 88a6 6 0 0 1 6-6h33a6 6 0 0 1 6 6v43a6 6 0 0 1-6 6h-33a6 6 0 0 1-6-6z"/><path id="bgpol" d="M1056 458a6 6 0 0 1 6-6h33a6 6 0 0 1 6 6v43a6 6 0 0 1-6 6h-33a6 6 0 0 1-6-6z"/><path id="bgpom" d="M809 458a6 6 0 0 1 6-6h33a6 6 0 0 1 6 6v43a6 6 0 0 1-6 6h-33a6 6 0 0 1-6-6z"/><path id="bgpon" d="M754 523a6 6 0 0 1 6-6h33a6 6 0 0 1 6 6v43a6 6 0 0 1-6 6h-33a6 6 0 0 1-6-6z"/><path id="bgpoo" d="M470 153a6 6 0 0 1 6-6h33a6 6 0 0 1 6 6v43a6 6 0 0 1-6 6h-33a6 6 0 0 1-6-6z"/><path id="bgpop" d="M460 273a6 6 0 0 1 6-6h33a6 6 0 0 1 6 6v43a6 6 0 0 1-6 6h-33a6 6 0 0 1-6-6z"/><path id="bgpoq" d="M817 523a6 6 0 0 1 6-6h33a6 6 0 0 1 6 6v43a6 6 0 0 1-6 6h-33a6 6 0 0 1-6-6z"/><path id="bgpor" d="M525 153a6 6 0 0 1 6-6h33a6 6 0 0 1 6 6v43a6 6 0 0 1-6 6h-33a6 6 0 0 1-6-6z"/><path id="bgpos" d="M688 246a6 6 0 0 1 6-6h33a6 6 0 0 1 6 6v43a6 6 0 0 1-6 6h-33a6 6 0 0 1-6-6z"/><path id="bgpot" d="M762 88a6 6 0 0 1 6-6h33a6 6 0 0 1 6 6v43a6 6 0 0 1-6 6h-33a6 6 0 0 1-6-6z"/><path id="bgpou" d="M593 371a6 6 0 0 1 6-6h33a6 6 0 0 1 6 6v43a6 6 0 0 1-6 6h-33a6 6 0 0 1-6-6z"/><path id="bgpov" d="M962 343a6 6 0 0 1 6-6h33a6 6 0 0 1 6 6v43a6 6 0 0 1-6 6h-33a6 6 0 0 1-6-6z"/><path id="bgpow" d="M872 88a6 6 0 0 1 6-6h33a6 6 0 0 1 6 6v43a6 6 0 0 1-6 6h-33a6 6 0 0 1-6-6z"/><path id="bgpox" d="M872 458a6 6 0 0 1 6-6h33a6 6 0 0 1 6 6v43a6 6 0 0 1-6 6h-33a6 6 0 0 1-6-6z"/><path id="bgpoy" d="M415 88a6 6 0 0 1 6-6h33a6 6 0 0 1 6 6v43a6 6 0 0 1-6 6h-33a6 6 0 0 1-6-6z"/><path id="bgpoz" d="M7 288a6 6 0 0 1 6-6h33a6 6 0 0 1 6 6v43a6 6 0 0 1-6 6H13a6 6 0 0 1-6-6z"/><path id="bgpoA" d="M515 458a6 6 0 0 1 6-6h33a6 6 0 0 1 6 6v43a6 6 0 0 1-6 6h-33a6 6 0 0 1-6-6z"/><path id="bgpoB" d="M460 523a6 6 0 0 1 6-6h33a6 6 0 0 1 6 6v43a6 6 0 0 1-6 6h-33a6 6 0 0 1-6-6z"/><clipPath id="bgpoC"><use fill="#fff" xlink:href="#bgpoa"/></clipPath><clipPath id="bgpoD"><use fill="#fff" xlink:href="#bgpob"/></clipPath><clipPath id="bgpoE"><use fill="#fff" xlink:href="#bgpoc"/></clipPath><clipPath id="bgpoF"><use fill="#fff" xlink:href="#bgpod"/></clipPath><clipPath id="bgpoG"><use fill="#fff" xlink:href="#bgpoe"/></clipPath><clipPath id="bgpoH"><use fill="#fff" xlink:href="#bgpof"/></clipPath><clipPath id="bgpoI"><use fill="#fff" xlink:href="#bgpog"/></clipPath><clipPath id="bgpoJ"><use fill="#fff" xlink:href="#bgpoh"/></clipPath><clipPath id="bgpoK"><use fill="#fff" xlink:href="#bgpoi"/></clipPath><clipPath id="bgpoL"><use fill="#fff" xlink:href="#bgpoj"/></clipPath><clipPath id="bgpoM"><use fill="#fff" xlink:href="#bgpok"/></clipPath><clipPath id="bgpoN"><use fill="#fff" xlink:href="#bgpol"/></clipPath><clipPath id="bgpoO"><use fill="#fff" xlink:href="#bgpom"/></clipPath><clipPath id="bgpoP"><use fill="#fff" xlink:href="#bgpon"/></clipPath><clipPath id="bgpoQ"><use fill="#fff" xlink:href="#bgpoo"/></clipPath><clipPath id="bgpoR"><use fill="#fff" xlink:href="#bgpop"/></clipPath><clipPath id="bgpoS"><use fill="#fff" xlink:href="#bgpoq"/></clipPath><clipPath id="bgpoT"><use fill="#fff" xlink:href="#bgpor"/></clipPath><clipPath id="bgpoU"><use fill="#fff" xlink:href="#bgpos"/></clipPath><clipPath id="bgpoV"><use fill="#fff" xlink:href="#bgpot"/></clipPath><clipPath id="bgpoW"><use fill="#fff" xlink:href="#bgpou"/></clipPath><clipPath id="bgpoX"><use fill="#fff" xlink:href="#bgpov"/></clipPath><clipPath id="bgpoY"><use fill="#fff" xlink:href="#bgpow"/></clipPath><clipPath id="bgpoZ"><use fill="#fff" xlink:href="#bgpox"/></clipPath><clipPath id="bgpoaa"><use fill="#fff" xlink:href="#bgpoy"/></clipPath><clipPath id="bgpoab"><use fill="#fff" xlink:href="#bgpoz"/></clipPath><clipPath id="bgpoac"><use fill="#fff" xlink:href="#bgpoA"/></clipPath><clipPath id="bgpoad"><use fill="#fff" xlink:href="#bgpoB"/></clipPath></defs><g><g transform="translate(-7 -82)"><g><use fill="#fff" fill-opacity="0" stroke="#5d5d5d" stroke-miterlimit="50" stroke-opacity=".11" stroke-width="2" clip-path="url(&quot;#bgpoC&quot;)" xlink:href="#bgpoa"/></g><g><use fill="#fff" fill-opacity="0" stroke="#5d5d5d" stroke-miterlimit="50" stroke-opacity=".11" stroke-width="2" clip-path="url(&quot;#bgpoD&quot;)" xlink:href="#bgpob"/></g><g><use fill="#fff" fill-opacity="0" stroke="#5d5d5d" stroke-miterlimit="50" stroke-opacity=".11" stroke-width="2" clip-path="url(&quot;#bgpoE&quot;)" xlink:href="#bgpoc"/></g><g><use fill="#fff" fill-opacity="0" stroke="#5d5d5d" stroke-miterlimit="50" stroke-opacity=".11" stroke-width="2" clip-path="url(&quot;#bgpoF&quot;)" xlink:href="#bgpod"/></g><g><use fill="#fff" fill-opacity="0" stroke="#5d5d5d" stroke-miterlimit="50" stroke-opacity=".11" stroke-width="2" clip-path="url(&quot;#bgpoG&quot;)" xlink:href="#bgpoe"/></g><g><use fill="#fff" fill-opacity="0" stroke="#5d5d5d" stroke-miterlimit="50" stroke-opacity=".11" stroke-width="2" clip-path="url(&quot;#bgpoH&quot;)" xlink:href="#bgpof"/></g><g><use fill="#fff" fill-opacity="0" stroke="#5d5d5d" stroke-miterlimit="50" stroke-opacity=".11" stroke-width="2" clip-path="url(&quot;#bgpoI&quot;)" xlink:href="#bgpog"/></g><g><use fill="#fff" fill-opacity="0" stroke="#5d5d5d" stroke-miterlimit="50" stroke-opacity=".11" stroke-width="2" clip-path="url(&quot;#bgpoJ&quot;)" xlink:href="#bgpoh"/></g><g><use fill="#fff" fill-opacity="0" stroke="#5d5d5d" stroke-miterlimit="50" stroke-opacity=".11" stroke-width="2" clip-path="url(&quot;#bgpoK&quot;)" xlink:href="#bgpoi"/></g><g><use fill="#fff" fill-opacity="0" stroke="#5d5d5d" stroke-miterlimit="50" stroke-opacity=".11" stroke-width="2" clip-path="url(&quot;#bgpoL&quot;)" xlink:href="#bgpoj"/></g><g><use fill="#fff" fill-opacity="0" stroke="#5d5d5d" stroke-miterlimit="50" stroke-opacity=".11" stroke-width="2" clip-path="url(&quot;#bgpoM&quot;)" xlink:href="#bgpok"/></g><g><use fill="#fff" fill-opacity="0" stroke="#5d5d5d" stroke-miterlimit="50" stroke-opacity=".11" stroke-width="2" clip-path="url(&quot;#bgpoN&quot;)" xlink:href="#bgpol"/></g><g><use fill="#fff" fill-opacity="0" stroke="#5d5d5d" stroke-miterlimit="50" stroke-opacity=".11" stroke-width="2" clip-path="url(&quot;#bgpoO&quot;)" xlink:href="#bgpom"/></g><g><use fill="#fff" fill-opacity="0" stroke="#5d5d5d" stroke-miterlimit="50" stroke-opacity=".11" stroke-width="2" clip-path="url(&quot;#bgpoP&quot;)" xlink:href="#bgpon"/></g></g><g transform="rotate(-180 503.5 286)"><g><use fill="#fff" fill-opacity="0" stroke="#5d5d5d" stroke-miterlimit="50" stroke-opacity=".11" stroke-width="2" clip-path="url(&quot;#bgpoQ&quot;)" xlink:href="#bgpoo"/></g><g><use fill="#fff" fill-opacity="0" stroke="#5d5d5d" stroke-miterlimit="50" stroke-opacity=".11" stroke-width="2" clip-path="url(&quot;#bgpoR&quot;)" xlink:href="#bgpop"/></g><g><use fill="#fff" fill-opacity="0" stroke="#5d5d5d" stroke-miterlimit="50" stroke-opacity=".11" stroke-width="2" clip-path="url(&quot;#bgpoS&quot;)" xlink:href="#bgpoq"/></g><g><use fill="#fff" fill-opacity="0" stroke="#5d5d5d" stroke-miterlimit="50" stroke-opacity=".11" stroke-width="2" clip-path="url(&quot;#bgpoT&quot;)" xlink:href="#bgpor"/></g><g><use fill="#fff" fill-opacity="0" stroke="#5d5d5d" stroke-miterlimit="50" stroke-opacity=".11" stroke-width="2" clip-path="url(&quot;#bgpoU&quot;)" xlink:href="#bgpos"/></g><g><use fill="#fff" fill-opacity="0" stroke="#5d5d5d" stroke-miterlimit="50" stroke-opacity=".11" stroke-width="2" clip-path="url(&quot;#bgpoV&quot;)" xlink:href="#bgpot"/></g><g><use fill="#fff" fill-opacity="0" stroke="#5d5d5d" stroke-miterlimit="50" stroke-opacity=".11" stroke-width="2" clip-path="url(&quot;#bgpoW&quot;)" xlink:href="#bgpou"/></g><g><use fill="#fff" fill-opacity="0" stroke="#5d5d5d" stroke-miterlimit="50" stroke-opacity=".11" stroke-width="2" clip-path="url(&quot;#bgpoX&quot;)" xlink:href="#bgpov"/></g><g><use fill="#fff" fill-opacity="0" stroke="#5d5d5d" stroke-miterlimit="50" stroke-opacity=".11" stroke-width="2" clip-path="url(&quot;#bgpoY&quot;)" xlink:href="#bgpow"/></g><g><use fill="#fff" fill-opacity="0" stroke="#5d5d5d" stroke-miterlimit="50" stroke-opacity=".11" stroke-width="2" clip-path="url(&quot;#bgpoZ&quot;)" xlink:href="#bgpox"/></g><g><use fill="#fff" fill-opacity="0" stroke="#5d5d5d" stroke-miterlimit="50" stroke-opacity=".11" stroke-width="2" clip-path="url(&quot;#bgpoaa&quot;)" xlink:href="#bgpoy"/></g><g><use fill="#fff" fill-opacity="0" stroke="#5d5d5d" stroke-miterlimit="50" stroke-opacity=".11" stroke-width="2" clip-path="url(&quot;#bgpoab&quot;)" xlink:href="#bgpoz"/></g><g><use fill="#fff" fill-opacity="0" stroke="#5d5d5d" stroke-miterlimit="50" stroke-opacity=".11" stroke-width="2" clip-path="url(&quot;#bgpoac&quot;)" xlink:href="#bgpoA"/></g><g><use fill="#fff" fill-opacity="0" stroke="#5d5d5d" stroke-miterlimit="50" stroke-opacity=".11" stroke-width="2" clip-path="url(&quot;#bgpoad&quot;)" xlink:href="#bgpoB"/></g></g></g></svg>