<svg xmlns="http://www.w3.org/2000/svg" xmlns:xlink="http://www.w3.org/1999/xlink" width="647" height="305" viewBox="0 0 647 305"><defs><path id="ufz1a" d="M398 4348a6 6 0 0 1 6-6h33a6 6 0 0 1 6 6v43a6 6 0 0 1-6 6h-33a6 6 0 0 1-6-6z"/><path id="ufz1b" d="M855 4598a6 6 0 0 1 6-6h33a6 6 0 0 1 6 6v43a6 6 0 0 1-6 6h-33a6 6 0 0 1-6-6z"/><path id="ufz1c" d="M1000 4418a6 6 0 0 1 6-6h33a6 6 0 0 1 6 6v43a6 6 0 0 1-6 6h-33a6 6 0 0 1-6-6z"/><path id="ufz1d" d="M910 4533a6 6 0 0 1 6-6h33a6 6 0 0 1 6 6v43a6 6 0 0 1-6 6h-33a6 6 0 0 1-6-6z"/><path id="ufz1e" d="M800 4533a6 6 0 0 1 6-6h33a6 6 0 0 1 6 6v43a6 6 0 0 1-6 6h-33a6 6 0 0 1-6-6z"/><path id="ufz1f" d="M553 4533a6 6 0 0 1 6-6h33a6 6 0 0 1 6 6v43a6 6 0 0 1-6 6h-33a6 6 0 0 1-6-6z"/><path id="ufz1g" d="M498 4598a6 6 0 0 1 6-6h33a6 6 0 0 1 6 6v43a6 6 0 0 1-6 6h-33a6 6 0 0 1-6-6z"/><clipPath id="ufz1h"><use fill="#fff" xlink:href="#ufz1a"/></clipPath><clipPath id="ufz1i"><use fill="#fff" xlink:href="#ufz1b"/></clipPath><clipPath id="ufz1j"><use fill="#fff" xlink:href="#ufz1c"/></clipPath><clipPath id="ufz1k"><use fill="#fff" xlink:href="#ufz1d"/></clipPath><clipPath id="ufz1l"><use fill="#fff" xlink:href="#ufz1e"/></clipPath><clipPath id="ufz1m"><use fill="#fff" xlink:href="#ufz1f"/></clipPath><clipPath id="ufz1n"><use fill="#fff" xlink:href="#ufz1g"/></clipPath></defs><g><g transform="translate(-398 -4342)"><use fill="#fff" fill-opacity="0" stroke="#fff" stroke-miterlimit="50" stroke-opacity=".11" stroke-width="2" clip-path="url(&quot;#ufz1h&quot;)" xlink:href="#ufz1a"/></g><g transform="translate(-398 -4342)"><use fill="#fff" fill-opacity="0" stroke="#fff" stroke-miterlimit="50" stroke-opacity=".11" stroke-width="2" clip-path="url(&quot;#ufz1i&quot;)" xlink:href="#ufz1b"/></g><g transform="translate(-398 -4342)"><use fill="#fff" fill-opacity="0" stroke="#fff" stroke-miterlimit="50" stroke-opacity=".11" stroke-width="2" clip-path="url(&quot;#ufz1j&quot;)" xlink:href="#ufz1c"/></g><g transform="translate(-398 -4342)"><use fill="#fff" fill-opacity="0" stroke="#fff" stroke-miterlimit="50" stroke-opacity=".11" stroke-width="2" clip-path="url(&quot;#ufz1k&quot;)" xlink:href="#ufz1d"/></g><g transform="translate(-398 -4342)"><use fill="#fff" fill-opacity="0" stroke="#fff" stroke-miterlimit="50" stroke-opacity=".11" stroke-width="2" clip-path="url(&quot;#ufz1l&quot;)" xlink:href="#ufz1e"/></g><g transform="translate(-398 -4342)"><use fill="#fff" fill-opacity="0" stroke="#fff" stroke-miterlimit="50" stroke-opacity=".11" stroke-width="2" clip-path="url(&quot;#ufz1m&quot;)" xlink:href="#ufz1f"/></g><g transform="translate(-398 -4342)"><use fill="#fff" fill-opacity="0" stroke="#fff" stroke-miterlimit="50" stroke-opacity=".11" stroke-width="2" clip-path="url(&quot;#ufz1n&quot;)" xlink:href="#ufz1g"/></g></g></svg>