<?xml version="1.0" encoding="UTF-8"?>
<svg width="398px" height="320px" viewBox="0 0 398 320" version="1.1" xmlns="http://www.w3.org/2000/svg" xmlns:xlink="http://www.w3.org/1999/xlink">
    <!-- Generator: Sketch 49.2 (51160) - http://www.bohemiancoding.com/sketch -->
    <title>illus</title>
    <desc>Created with Sketch.</desc>
    <defs>
        <rect id="path-1" x="80" y="81" width="190" height="190" rx="12"></rect>
        <filter x="-21.1%" y="-18.4%" width="142.1%" height="142.1%" filterUnits="objectBoundingBox" id="filter-2">
            <feOffset dx="0" dy="5" in="SourceAlpha" result="shadowOffsetOuter1"></feOffset>
            <feGaussianBlur stdDeviation="12.5" in="shadowOffsetOuter1" result="shadowBlurOuter1"></feGaussianBlur>
            <feColorMatrix values="0 0 0 0 0   0 0 0 0 0.337254902   0 0 0 0 0.819607843  0 0 0 0.14733356 0" type="matrix" in="shadowBlurOuter1"></feColorMatrix>
        </filter>
        <circle id="path-3" cx="175.5" cy="49.5" r="49.5"></circle>
        <filter x="-40.4%" y="-35.4%" width="180.8%" height="180.8%" filterUnits="objectBoundingBox" id="filter-4">
            <feOffset dx="0" dy="5" in="SourceAlpha" result="shadowOffsetOuter1"></feOffset>
            <feGaussianBlur stdDeviation="12.5" in="shadowOffsetOuter1" result="shadowBlurOuter1"></feGaussianBlur>
            <feColorMatrix values="0 0 0 0 0   0 0 0 0 0.337254902   0 0 0 0 0.819607843  0 0 0 0.14733356 0" type="matrix" in="shadowBlurOuter1"></feColorMatrix>
        </filter>
        <circle id="path-5" cx="49.5" cy="107.5" r="49.5"></circle>
        <filter x="-40.4%" y="-35.4%" width="180.8%" height="180.8%" filterUnits="objectBoundingBox" id="filter-6">
            <feOffset dx="0" dy="5" in="SourceAlpha" result="shadowOffsetOuter1"></feOffset>
            <feGaussianBlur stdDeviation="12.5" in="shadowOffsetOuter1" result="shadowBlurOuter1"></feGaussianBlur>
            <feColorMatrix values="0 0 0 0 0   0 0 0 0 0.337254902   0 0 0 0 0.819607843  0 0 0 0.14733356 0" type="matrix" in="shadowBlurOuter1"></feColorMatrix>
        </filter>
        <linearGradient x1="50%" y1="0%" x2="50%" y2="100%" id="linearGradient-7">
            <stop stop-color="#313131" offset="0%"></stop>
            <stop stop-color="#3F3F3F" offset="100%"></stop>
        </linearGradient>
        <linearGradient x1="50%" y1="0%" x2="50%" y2="100%" id="linearGradient-8">
            <stop stop-color="#575757" offset="0%"></stop>
            <stop stop-color="#262626" offset="100%"></stop>
        </linearGradient>
        <circle id="path-9" cx="300.5" cy="107.5" r="49.5"></circle>
        <filter x="-40.4%" y="-35.4%" width="180.8%" height="180.8%" filterUnits="objectBoundingBox" id="filter-10">
            <feOffset dx="0" dy="5" in="SourceAlpha" result="shadowOffsetOuter1"></feOffset>
            <feGaussianBlur stdDeviation="12.5" in="shadowOffsetOuter1" result="shadowBlurOuter1"></feGaussianBlur>
            <feColorMatrix values="0 0 0 0 0   0 0 0 0 0.337254902   0 0 0 0 0.819607843  0 0 0 0.14733356 0" type="matrix" in="shadowBlurOuter1"></feColorMatrix>
        </filter>
    </defs>
    <g id="Page-1" stroke="none" stroke-width="1" fill="none" fill-rule="evenodd">
        <g id="Benefits" transform="translate(-266.000000, -166.000000)">
            <g id="illus" transform="translate(290.000000, 185.000000)">
                <g id="Rectangle-19">
                    <use fill="black" fill-opacity="1" filter="url(#filter-2)" xlink:href="#path-1"></use>
                    <use fill="#FFFFFF" fill-rule="evenodd" xlink:href="#path-1"></use>
                </g>
                <g id="Oval-2">
                    <use fill="black" fill-opacity="1" filter="url(#filter-4)" xlink:href="#path-3"></use>
                    <use fill="#FFFFFF" fill-rule="evenodd" xlink:href="#path-3"></use>
                </g>
                <g id="Group-8" transform="translate(150.000000, 21.000000)"></g>
                <g id="Oval-2">
                    <use fill="black" fill-opacity="1" filter="url(#filter-6)" xlink:href="#path-5"></use>
                    <use fill="#FFFFFF" fill-rule="evenodd" xlink:href="#path-5"></use>
                </g>
                <path d="M159.6223,33 L191.309593,33 C192.688824,33 193.890353,33.9403996 194.221721,35.2792322 L201.39938,64.2792322 C201.797449,65.8875565 200.816344,67.5140597 199.208019,67.9121287 C198.972207,67.9704935 198.730179,68 198.487252,68 L152.444641,68 C150.787786,68 149.444641,66.6568542 149.444641,65 C149.444641,64.7570725 149.474147,64.5150442 149.532512,64.2792322 L156.710171,35.2792322 C157.041539,33.9403996 158.243069,33 159.6223,33 Z" id="Rectangle-20" fill="url(#linearGradient-7)"></path>
                <path d="M181.4,28.826087 C181.4,25.3683042 178.534622,22.5652174 175,22.5652174 C171.465378,22.5652174 168.6,25.3683042 168.6,28.826087 L168.6,39 L167,39 L167,28.826087 C167,24.5038585 170.581722,21 175,21 C179.418278,21 183,24.5038585 183,28.826087 L183,39 L181.4,39 L181.4,28.826087 Z" id="Combined-Shape" fill="#3F3F3F"></path>
                <circle id="Oval-9" fill="url(#linearGradient-8)" cx="39.5" cy="102.5" r="14.5"></circle>
                <circle id="Oval-9" fill="#C03A3A" cx="58.5" cy="113.5" r="14.5"></circle>
                <g id="Oval-2">
                    <use fill="black" fill-opacity="1" filter="url(#filter-10)" xlink:href="#path-9"></use>
                    <use fill="#FFFFFF" fill-rule="evenodd" xlink:href="#path-9"></use>
                </g>
                <g id="Group-2" transform="translate(113.000000, 87.000000)">
                    <text id="$$$" font-family="OpenSans-SemiBold, Open Sans" font-size="30" font-weight="500" fill="#232C59" fill-opacity="0.8">
                        <tspan x="162" y="32">$$$</tspan>
                    </text>
                    <g id="Bag-2" transform="translate(0.000000, 34.000000)">
                        <g id="Group-13">
                            <path d="M23.7456415,26.7825543 L100.87829,26.7825543 C103.179442,26.7825543 105.183452,28.3531399 105.733401,30.5876099 L123.503112,102.786724 C124.163062,105.468128 122.524349,108.17683 119.842945,108.83678 C119.451918,108.93302 119.050697,108.981668 118.648001,108.981668 L5.97593053,108.981668 C3.21450678,108.981668 0.97593053,106.743092 0.97593053,103.981668 C0.97593053,103.578972 1.02457913,103.177751 1.12081901,102.786724 L18.89053,30.5876099 C19.4404798,28.3531399 21.4444894,26.7825543 23.7456415,26.7825543 Z" id="Rectangle-20" fill="url(#linearGradient-7)"></path>
                            <path d="M76.9034772,18.4707271 C76.9034772,10.3098464 70.2467996,3.69414543 62.0353717,3.69414543 C53.8239438,3.69414543 47.1672662,10.3098464 47.1672662,18.4707271 L47.1672662,42.4826724 L43.4502398,42.4826724 L43.4502398,18.4707271 C43.4502398,8.26962622 51.7710868,0 62.0353717,0 C72.2996566,0 80.6205036,8.26962622 80.6205036,18.4707271 L80.6205036,42.4826724 L76.9034772,42.4826724 L76.9034772,18.4707271 Z" id="Combined-Shape" fill="#3F3F3F"></path>
                        </g>
                        <path d="M20.6700349,25.5126919 L102.13429,25.5126919 C104.451212,25.5126919 106.464631,27.1044262 106.999324,29.358806 L113.936892,58.6091012 C114.574166,61.2959848 112.912628,63.9907466 110.225745,64.6280202 C109.847667,64.7176924 109.460425,64.762987 109.071859,64.762987 L13.7324664,64.762987 C10.9710426,64.762987 8.73246639,62.5244108 8.73246639,59.762987 C8.73246639,59.3744207 8.77776101,58.9871788 8.86743325,58.6091012 L15.8050017,29.358806 C16.3396943,27.1044262 18.3531135,25.5126919 20.6700349,25.5126919 Z" id="Rectangle-25" fill="url(#linearGradient-8)"></path>
                        <rect id="Rectangle" fill="#C03A3A" x="52.6828537" y="27.4752066" width="17.6708633" height="43.1753247"></rect>
                        <rect id="Rectangle" fill="#5B5B5B" x="54.646283" y="27.4752066" width="13.7440048" height="43.1753247"></rect>
                    </g>
                </g>
            </g>
        </g>
    </g>
</svg>