<svg xmlns="http://www.w3.org/2000/svg" xmlns:xlink="http://www.w3.org/1999/xlink" width="242" height="128" viewBox="0 0 242 128"><defs><path id="a" d="M394.2 960.9c0-15.64 13.26-28.36 29.56-28.36 16.28 0 29.54 12.72 29.54 28.35 0 15.62-13.26 28.34-29.54 28.34-16.3 0-29.56-12.72-29.56-28.34zm-108.14 0c0-15.64 13.24-28.36 29.54-28.36 16.3 0 29.55 12.72 29.55 28.35 0 15.62-13.25 28.34-29.55 28.34s-29.54-12.72-29.54-28.34zm83.62-37.16A67.38 67.38 0 0 0 315.6 897c-36.72 0-66.6 28.66-66.6 63.9 0 35.22 29.88 63.88 66.6 63.88a67.38 67.38 0 0 0 54.08-26.74 67.39 67.39 0 0 0 54.08 26.74c36.72 0 66.6-28.66 66.6-63.89 0-35.23-29.88-63.89-66.6-63.89a67.39 67.39 0 0 0-54.08 26.74z"/></defs><g clip-path="url(#clip-E6CFFC3B-B738-4244-A119-C6435D3345CC)" opacity=".76" transform="translate(-249 -897)"><use fill="#fff" xlink:href="#a"/></g></svg>