<svg xmlns="http://www.w3.org/2000/svg" xmlns:xlink="http://www.w3.org/1999/xlink" width="25" height="42" viewBox="0 0 25 42"><defs><path id="a" d="M510.45 968.77c-4.8 0-6.68-2.13-6.93-4.85h-5.12c.28 5.05 4.1 7.9 8.56 8.84v5h6.98v-4.95c4.53-.86 8.14-3.47 8.14-8.2 0-6.55-5.65-8.8-10.93-10.15-5.28-1.37-6.98-2.77-6.98-4.97 0-2.51 2.35-4.27 6.28-4.27 4.14 0 5.67 1.96 5.81 4.85h5.14c-.16-3.97-2.6-7.62-7.46-8.8v-5.05h-6.98v4.99c-4.51.97-8.14 3.87-8.14 8.33 0 5.33 4.44 7.99 10.93 9.53 5.82 1.39 6.98 3.42 6.98 5.56 0 1.6-1.14 4.14-6.28 4.14"/></defs><g clip-path="url(#clip-3E26D7EC-584A-4B4E-9DAC-6AEF418C1ABE)" transform="translate(-498 -936)"><use fill="#fff" xlink:href="#a"/></g></svg>