<svg width="36" height="36" viewBox="0 0 36 36" xmlns="http://www.w3.org/2000/svg"><title>magnifying-glass</title><path d="M24.143 21.486h-1.417l-.532-.532c1.772-1.948 2.835-4.605 2.835-7.44C25.03 7.137 19.89 2 13.513 2 7.137 2 2 7.137 2 13.514S7.137 25.03 13.514 25.03c2.835 0 5.492-1.064 7.44-2.836l.532.532v1.417L30.343 33 33 30.343l-8.857-8.857zM13.5 22C8.778 22 5 18.222 5 13.5 5 8.778 8.778 5 13.5 5c4.722 0 8.5 3.778 8.5 8.5 0 4.722-3.778 8.5-8.5 8.5z" fill="#2E2C56" stroke="#2E2C56" stroke-width="3" fill-rule="evenodd"/></svg>