<svg xmlns="http://www.w3.org/2000/svg" xmlns:xlink="http://www.w3.org/1999/xlink" width="1294" height="490" viewBox="0 0 1294 490"><defs><path id="a" d="M764 153a6 6 0 0 1 6-6h33a6 6 0 0 1 6 6v43a6 6 0 0 1-6 6h-33a6 6 0 0 1-6-6z"/><path id="b" d="M654 273a6 6 0 0 1 6-6h33a6 6 0 0 1 6 6v43a6 6 0 0 1-6 6h-33a6 6 0 0 1-6-6z"/><path id="c" d="M1111 523a6 6 0 0 1 6-6h33a6 6 0 0 1 6 6v43a6 6 0 0 1-6 6h-33a6 6 0 0 1-6-6z"/><path id="d" d="M819 153a6 6 0 0 1 6-6h33a6 6 0 0 1 6 6v43a6 6 0 0 1-6 6h-33a6 6 0 0 1-6-6z"/><path id="e" d="M1056 153a6 6 0 0 1 6-6h33a6 6 0 0 1 6 6v43a6 6 0 0 1-6 6h-33a6 6 0 0 1-6-6z"/><path id="f" d="M1056 88a6 6 0 0 1 6-6h33a6 6 0 0 1 6 6v43a6 6 0 0 1-6 6h-33a6 6 0 0 1-6-6z"/><path id="g" d="M1111 153a6 6 0 0 1 6-6h33a6 6 0 0 1 6 6v43a6 6 0 0 1-6 6h-33a6 6 0 0 1-6-6z"/><path id="h" d="M1256 343a6 6 0 0 1 6-6h33a6 6 0 0 1 6 6v43a6 6 0 0 1-6 6h-33a6 6 0 0 1-6-6z"/><path id="i" d="M1166 88a6 6 0 0 1 6-6h33a6 6 0 0 1 6 6v43a6 6 0 0 1-6 6h-33a6 6 0 0 1-6-6z"/><path id="j" d="M1166 458a6 6 0 0 1 6-6h33a6 6 0 0 1 6 6v43a6 6 0 0 1-6 6h-33a6 6 0 0 1-6-6z"/><path id="k" d="M709 88a6 6 0 0 1 6-6h33a6 6 0 0 1 6 6v43a6 6 0 0 1-6 6h-33a6 6 0 0 1-6-6z"/><path id="l" d="M1056 458a6 6 0 0 1 6-6h33a6 6 0 0 1 6 6v43a6 6 0 0 1-6 6h-33a6 6 0 0 1-6-6z"/><path id="m" d="M809 458a6 6 0 0 1 6-6h33a6 6 0 0 1 6 6v43a6 6 0 0 1-6 6h-33a6 6 0 0 1-6-6z"/><path id="n" d="M754 523a6 6 0 0 1 6-6h33a6 6 0 0 1 6 6v43a6 6 0 0 1-6 6h-33a6 6 0 0 1-6-6z"/><path id="o" d="M470 153a6 6 0 0 1 6-6h33a6 6 0 0 1 6 6v43a6 6 0 0 1-6 6h-33a6 6 0 0 1-6-6z"/><path id="p" d="M460 273a6 6 0 0 1 6-6h33a6 6 0 0 1 6 6v43a6 6 0 0 1-6 6h-33a6 6 0 0 1-6-6z"/><path id="q" d="M817 523a6 6 0 0 1 6-6h33a6 6 0 0 1 6 6v43a6 6 0 0 1-6 6h-33a6 6 0 0 1-6-6z"/><path id="r" d="M525 153a6 6 0 0 1 6-6h33a6 6 0 0 1 6 6v43a6 6 0 0 1-6 6h-33a6 6 0 0 1-6-6z"/><path id="s" d="M688 246a6 6 0 0 1 6-6h33a6 6 0 0 1 6 6v43a6 6 0 0 1-6 6h-33a6 6 0 0 1-6-6z"/><path id="t" d="M762 88a6 6 0 0 1 6-6h33a6 6 0 0 1 6 6v43a6 6 0 0 1-6 6h-33a6 6 0 0 1-6-6z"/><path id="u" d="M593 371a6 6 0 0 1 6-6h33a6 6 0 0 1 6 6v43a6 6 0 0 1-6 6h-33a6 6 0 0 1-6-6z"/><path id="v" d="M962 343a6 6 0 0 1 6-6h33a6 6 0 0 1 6 6v43a6 6 0 0 1-6 6h-33a6 6 0 0 1-6-6z"/><path id="w" d="M872 88a6 6 0 0 1 6-6h33a6 6 0 0 1 6 6v43a6 6 0 0 1-6 6h-33a6 6 0 0 1-6-6z"/><path id="x" d="M872 458a6 6 0 0 1 6-6h33a6 6 0 0 1 6 6v43a6 6 0 0 1-6 6h-33a6 6 0 0 1-6-6z"/><path id="y" d="M415 88a6 6 0 0 1 6-6h33a6 6 0 0 1 6 6v43a6 6 0 0 1-6 6h-33a6 6 0 0 1-6-6z"/><path id="z" d="M7 288a6 6 0 0 1 6-6h33a6 6 0 0 1 6 6v43a6 6 0 0 1-6 6H13a6 6 0 0 1-6-6z"/><path id="A" d="M515 458a6 6 0 0 1 6-6h33a6 6 0 0 1 6 6v43a6 6 0 0 1-6 6h-33a6 6 0 0 1-6-6z"/><path id="B" d="M460 523a6 6 0 0 1 6-6h33a6 6 0 0 1 6 6v43a6 6 0 0 1-6 6h-33a6 6 0 0 1-6-6z"/><clipPath id="C"><use fill="#fff" xlink:href="#a"/></clipPath><clipPath id="D"><use fill="#fff" xlink:href="#b"/></clipPath><clipPath id="E"><use fill="#fff" xlink:href="#c"/></clipPath><clipPath id="F"><use fill="#fff" xlink:href="#d"/></clipPath><clipPath id="G"><use fill="#fff" xlink:href="#e"/></clipPath><clipPath id="H"><use fill="#fff" xlink:href="#f"/></clipPath><clipPath id="I"><use fill="#fff" xlink:href="#g"/></clipPath><clipPath id="J"><use fill="#fff" xlink:href="#h"/></clipPath><clipPath id="K"><use fill="#fff" xlink:href="#i"/></clipPath><clipPath id="L"><use fill="#fff" xlink:href="#j"/></clipPath><clipPath id="M"><use fill="#fff" xlink:href="#k"/></clipPath><clipPath id="N"><use fill="#fff" xlink:href="#l"/></clipPath><clipPath id="O"><use fill="#fff" xlink:href="#m"/></clipPath><clipPath id="P"><use fill="#fff" xlink:href="#n"/></clipPath><clipPath id="Q"><use fill="#fff" xlink:href="#o"/></clipPath><clipPath id="R"><use fill="#fff" xlink:href="#p"/></clipPath><clipPath id="S"><use fill="#fff" xlink:href="#q"/></clipPath><clipPath id="T"><use fill="#fff" xlink:href="#r"/></clipPath><clipPath id="U"><use fill="#fff" xlink:href="#s"/></clipPath><clipPath id="V"><use fill="#fff" xlink:href="#t"/></clipPath><clipPath id="W"><use fill="#fff" xlink:href="#u"/></clipPath><clipPath id="X"><use fill="#fff" xlink:href="#v"/></clipPath><clipPath id="Y"><use fill="#fff" xlink:href="#w"/></clipPath><clipPath id="Z"><use fill="#fff" xlink:href="#x"/></clipPath><clipPath id="aa"><use fill="#fff" xlink:href="#y"/></clipPath><clipPath id="ab"><use fill="#fff" xlink:href="#z"/></clipPath><clipPath id="ac"><use fill="#fff" xlink:href="#A"/></clipPath><clipPath id="ad"><use fill="#fff" xlink:href="#B"/></clipPath></defs><use fill="#fff" fill-opacity="0" stroke="#5d5d5d" stroke-miterlimit="50" stroke-opacity=".11" stroke-width="2" clip-path="url(&quot;#C&quot;)" xlink:href="#a" transform="translate(-7 -82)"/><use fill="#fff" fill-opacity="0" stroke="#5d5d5d" stroke-miterlimit="50" stroke-opacity=".11" stroke-width="2" clip-path="url(&quot;#D&quot;)" xlink:href="#b" transform="translate(-7 -82)"/><use fill="#fff" fill-opacity="0" stroke="#5d5d5d" stroke-miterlimit="50" stroke-opacity=".11" stroke-width="2" clip-path="url(&quot;#E&quot;)" xlink:href="#c" transform="translate(-7 -82)"/><use fill="#fff" fill-opacity="0" stroke="#5d5d5d" stroke-miterlimit="50" stroke-opacity=".11" stroke-width="2" clip-path="url(&quot;#F&quot;)" xlink:href="#d" transform="translate(-7 -82)"/><use fill="#fff" fill-opacity="0" stroke="#5d5d5d" stroke-miterlimit="50" stroke-opacity=".11" stroke-width="2" clip-path="url(&quot;#G&quot;)" xlink:href="#e" transform="translate(-7 -82)"/><use fill="#fff" fill-opacity="0" stroke="#5d5d5d" stroke-miterlimit="50" stroke-opacity=".11" stroke-width="2" clip-path="url(&quot;#H&quot;)" xlink:href="#f" transform="translate(-7 -82)"/><use fill="#fff" fill-opacity="0" stroke="#5d5d5d" stroke-miterlimit="50" stroke-opacity=".11" stroke-width="2" clip-path="url(&quot;#I&quot;)" xlink:href="#g" transform="translate(-7 -82)"/><use fill="#fff" fill-opacity="0" stroke="#5d5d5d" stroke-miterlimit="50" stroke-opacity=".11" stroke-width="2" clip-path="url(&quot;#J&quot;)" xlink:href="#h" transform="translate(-7 -82)"/><use fill="#fff" fill-opacity="0" stroke="#5d5d5d" stroke-miterlimit="50" stroke-opacity=".11" stroke-width="2" clip-path="url(&quot;#K&quot;)" xlink:href="#i" transform="translate(-7 -82)"/><use fill="#fff" fill-opacity="0" stroke="#5d5d5d" stroke-miterlimit="50" stroke-opacity=".11" stroke-width="2" clip-path="url(&quot;#L&quot;)" xlink:href="#j" transform="translate(-7 -82)"/><use fill="#fff" fill-opacity="0" stroke="#5d5d5d" stroke-miterlimit="50" stroke-opacity=".11" stroke-width="2" clip-path="url(&quot;#M&quot;)" xlink:href="#k" transform="translate(-7 -82)"/><use fill="#fff" fill-opacity="0" stroke="#5d5d5d" stroke-miterlimit="50" stroke-opacity=".11" stroke-width="2" clip-path="url(&quot;#N&quot;)" xlink:href="#l" transform="translate(-7 -82)"/><use fill="#fff" fill-opacity="0" stroke="#5d5d5d" stroke-miterlimit="50" stroke-opacity=".11" stroke-width="2" clip-path="url(&quot;#O&quot;)" xlink:href="#m" transform="translate(-7 -82)"/><use fill="#fff" fill-opacity="0" stroke="#5d5d5d" stroke-miterlimit="50" stroke-opacity=".11" stroke-width="2" clip-path="url(&quot;#P&quot;)" xlink:href="#n" transform="translate(-7 -82)"/><g><use fill="#fff" fill-opacity="0" stroke="#5d5d5d" stroke-miterlimit="50" stroke-opacity=".11" stroke-width="2" clip-path="url(&quot;#Q&quot;)" xlink:href="#o" transform="rotate(-180 503.5 286)"/><use fill="#fff" fill-opacity="0" stroke="#5d5d5d" stroke-miterlimit="50" stroke-opacity=".11" stroke-width="2" clip-path="url(&quot;#R&quot;)" xlink:href="#p" transform="rotate(-180 503.5 286)"/><use fill="#fff" fill-opacity="0" stroke="#5d5d5d" stroke-miterlimit="50" stroke-opacity=".11" stroke-width="2" clip-path="url(&quot;#S&quot;)" xlink:href="#q" transform="rotate(-180 503.5 286)"/><use fill="#fff" fill-opacity="0" stroke="#5d5d5d" stroke-miterlimit="50" stroke-opacity=".11" stroke-width="2" clip-path="url(&quot;#T&quot;)" xlink:href="#r" transform="rotate(-180 503.5 286)"/><use fill="#fff" fill-opacity="0" stroke="#5d5d5d" stroke-miterlimit="50" stroke-opacity=".11" stroke-width="2" clip-path="url(&quot;#U&quot;)" xlink:href="#s" transform="rotate(-180 503.5 286)"/><use fill="#fff" fill-opacity="0" stroke="#5d5d5d" stroke-miterlimit="50" stroke-opacity=".11" stroke-width="2" clip-path="url(&quot;#V&quot;)" xlink:href="#t" transform="rotate(-180 503.5 286)"/><use fill="#fff" fill-opacity="0" stroke="#5d5d5d" stroke-miterlimit="50" stroke-opacity=".11" stroke-width="2" clip-path="url(&quot;#W&quot;)" xlink:href="#u" transform="rotate(-180 503.5 286)"/><use fill="#fff" fill-opacity="0" stroke="#5d5d5d" stroke-miterlimit="50" stroke-opacity=".11" stroke-width="2" clip-path="url(&quot;#X&quot;)" xlink:href="#v" transform="rotate(-180 503.5 286)"/><use fill="#fff" fill-opacity="0" stroke="#5d5d5d" stroke-miterlimit="50" stroke-opacity=".11" stroke-width="2" clip-path="url(&quot;#Y&quot;)" xlink:href="#w" transform="rotate(-180 503.5 286)"/><use fill="#fff" fill-opacity="0" stroke="#5d5d5d" stroke-miterlimit="50" stroke-opacity=".11" stroke-width="2" clip-path="url(&quot;#Z&quot;)" xlink:href="#x" transform="rotate(-180 503.5 286)"/><use fill="#fff" fill-opacity="0" stroke="#5d5d5d" stroke-miterlimit="50" stroke-opacity=".11" stroke-width="2" clip-path="url(&quot;#aa&quot;)" xlink:href="#y" transform="rotate(-180 503.5 286)"/><use fill="#fff" fill-opacity="0" stroke="#5d5d5d" stroke-miterlimit="50" stroke-opacity=".11" stroke-width="2" clip-path="url(&quot;#ab&quot;)" xlink:href="#z" transform="rotate(-180 503.5 286)"/><use fill="#fff" fill-opacity="0" stroke="#5d5d5d" stroke-miterlimit="50" stroke-opacity=".11" stroke-width="2" clip-path="url(&quot;#ac&quot;)" xlink:href="#A" transform="rotate(-180 503.5 286)"/><use fill="#fff" fill-opacity="0" stroke="#5d5d5d" stroke-miterlimit="50" stroke-opacity=".11" stroke-width="2" clip-path="url(&quot;#ad&quot;)" xlink:href="#B" transform="rotate(-180 503.5 286)"/></g></svg>