<svg xmlns="http://www.w3.org/2000/svg" xmlns:xlink="http://www.w3.org/1999/xlink" width="75" height="39" viewBox="0 0 75 39"><defs><path id="a" d="M198.75 23.75a2.4 2.4 0 0 0-1.77.74 2.48 2.48 0 0 0 0 3.52 2.4 2.4 0 0 0 1.77.74c.66 0 1.25-.24 1.75-.71a2.46 2.46 0 0 0 .02-3.53c-.51-.5-1.1-.76-1.77-.76"/><path id="b" d="M196.25 58.75H200v-22.5h-3.75z"/><path id="c" d="M236.53 25.63c0-1.38 1.17-2.5 2.6-2.5 1.44 0 2.6 1.12 2.6 2.5 0 1.37-1.16 2.49-2.6 2.49a2.55 2.55 0 0 1-2.6-2.5zm-9.52 0c0-1.38 1.17-2.5 2.6-2.5 1.44 0 2.6 1.12 2.6 2.5 0 1.37-1.16 2.49-2.6 2.49a2.55 2.55 0 0 1-2.6-2.5zm7.36-3.28a5.93 5.93 0 0 0-4.76-2.35 5.75 5.75 0 0 0-5.86 5.63c0 3.1 2.63 5.62 5.86 5.62 1.97 0 3.7-.93 4.76-2.35a5.93 5.93 0 0 0 4.77 2.35 5.76 5.76 0 0 0 5.86-5.62c0-3.1-2.63-5.63-5.86-5.63-1.97 0-3.7.93-4.77 2.35z"/><path id="d" d="M181.26 53.58l-7.03-17.33H170l9.22 22.5h4.08l9.2-22.5h-4.17z"/><path id="e" d="M237.5 58.75h3.75v-22.5h-3.75z"/><path id="f" d="M220.83 47.58a23.35 23.35 0 0 0-5.2-1.88c-2.1-.58-3.5-1.04-4.15-1.38-.87-.5-1.3-1.14-1.3-1.97 0-.88.34-1.55 1.03-2.04a5.8 5.8 0 0 1 3.43-.9c2.31 0 4.44.83 6.32 2.47l.15.14 2.29-2.69-.16-.11a13.9 13.9 0 0 0-8.6-2.97c-2.49 0-4.58.57-6.2 1.69a5.25 5.25 0 0 0-2.33 4.47c0 1.93 1 3.46 2.99 4.55.75.42 2.45 1 5.2 1.75 2.16.61 3.54 1.08 4.1 1.39.9.5 1.34 1.22 1.34 2.21 0 .97-.45 1.74-1.36 2.38-.89.6-2.15.9-3.74.9-2.64 0-5.03-.96-7.11-2.87l-.15-.13-2.38 2.67.15.12a14.5 14.5 0 0 0 9.5 3.37c2.59 0 4.75-.57 6.42-1.69 1.78-1.23 2.68-2.82 2.68-4.75 0-2-.98-3.6-2.92-4.73"/><path id="g" d="M227.5 58.75h3.75v-22.5h-3.75z"/></defs><use fill="#2e2c55" xlink:href="#a" transform="translate(-170 -20)"/><use fill="#2e2c55" xlink:href="#b" transform="translate(-170 -20)"/><use fill="#2e2c55" xlink:href="#c" transform="translate(-170 -20)"/><use fill="#2e2c55" xlink:href="#d" transform="translate(-170 -20)"/><use fill="#2e2c55" xlink:href="#e" transform="translate(-170 -20)"/><use fill="#2e2c55" xlink:href="#f" transform="translate(-170 -20)"/><use fill="#2e2c55" xlink:href="#g" transform="translate(-170 -20)"/></svg>