<svg xmlns="http://www.w3.org/2000/svg" xmlns:xlink="http://www.w3.org/1999/xlink" width="647" height="305" viewBox="0 0 647 305"><defs><path id="a" d="M398 4348a6 6 0 0 1 6-6h33a6 6 0 0 1 6 6v43a6 6 0 0 1-6 6h-33a6 6 0 0 1-6-6z"/><path id="b" d="M855 4598a6 6 0 0 1 6-6h33a6 6 0 0 1 6 6v43a6 6 0 0 1-6 6h-33a6 6 0 0 1-6-6z"/><path id="c" d="M1000 4418a6 6 0 0 1 6-6h33a6 6 0 0 1 6 6v43a6 6 0 0 1-6 6h-33a6 6 0 0 1-6-6z"/><path id="d" d="M910 4533a6 6 0 0 1 6-6h33a6 6 0 0 1 6 6v43a6 6 0 0 1-6 6h-33a6 6 0 0 1-6-6z"/><path id="e" d="M800 4533a6 6 0 0 1 6-6h33a6 6 0 0 1 6 6v43a6 6 0 0 1-6 6h-33a6 6 0 0 1-6-6z"/><path id="f" d="M553 4533a6 6 0 0 1 6-6h33a6 6 0 0 1 6 6v43a6 6 0 0 1-6 6h-33a6 6 0 0 1-6-6z"/><path id="g" d="M498 4598a6 6 0 0 1 6-6h33a6 6 0 0 1 6 6v43a6 6 0 0 1-6 6h-33a6 6 0 0 1-6-6z"/><clipPath id="h"><use fill="#fff" xlink:href="#a"/></clipPath><clipPath id="i"><use fill="#fff" xlink:href="#b"/></clipPath><clipPath id="j"><use fill="#fff" xlink:href="#c"/></clipPath><clipPath id="k"><use fill="#fff" xlink:href="#d"/></clipPath><clipPath id="l"><use fill="#fff" xlink:href="#e"/></clipPath><clipPath id="m"><use fill="#fff" xlink:href="#f"/></clipPath><clipPath id="n"><use fill="#fff" xlink:href="#g"/></clipPath></defs><use fill="#fff" fill-opacity="0" stroke="#fff" stroke-miterlimit="50" stroke-opacity=".11" stroke-width="2" clip-path="url(&quot;#h&quot;)" xlink:href="#a" transform="translate(-398 -4342)"/><use fill="#fff" fill-opacity="0" stroke="#fff" stroke-miterlimit="50" stroke-opacity=".11" stroke-width="2" clip-path="url(&quot;#i&quot;)" xlink:href="#b" transform="translate(-398 -4342)"/><use fill="#fff" fill-opacity="0" stroke="#fff" stroke-miterlimit="50" stroke-opacity=".11" stroke-width="2" clip-path="url(&quot;#j&quot;)" xlink:href="#c" transform="translate(-398 -4342)"/><use fill="#fff" fill-opacity="0" stroke="#fff" stroke-miterlimit="50" stroke-opacity=".11" stroke-width="2" clip-path="url(&quot;#k&quot;)" xlink:href="#d" transform="translate(-398 -4342)"/><use fill="#fff" fill-opacity="0" stroke="#fff" stroke-miterlimit="50" stroke-opacity=".11" stroke-width="2" clip-path="url(&quot;#l&quot;)" xlink:href="#e" transform="translate(-398 -4342)"/><use fill="#fff" fill-opacity="0" stroke="#fff" stroke-miterlimit="50" stroke-opacity=".11" stroke-width="2" clip-path="url(&quot;#m&quot;)" xlink:href="#f" transform="translate(-398 -4342)"/><use fill="#fff" fill-opacity="0" stroke="#fff" stroke-miterlimit="50" stroke-opacity=".11" stroke-width="2" clip-path="url(&quot;#n&quot;)" xlink:href="#g" transform="translate(-398 -4342)"/></svg>