<svg width="398" height="320" viewBox="0 0 398 320" xmlns="http://www.w3.org/2000/svg" xmlns:xlink="http://www.w3.org/1999/xlink"><title>illus</title><defs><rect id="b" x="80" y="81" width="190" height="190" rx="12"/><filter x="-21.1%" y="-18.4%" width="142.1%" height="142.1%" filterUnits="objectBoundingBox" id="a"><feOffset dy="5" in="SourceAlpha" result="shadowOffsetOuter1"/><feGaussianBlur stdDeviation="12.5" in="shadowOffsetOuter1" result="shadowBlurOuter1"/><feColorMatrix values="0 0 0 0 0 0 0 0 0 0.337254902 0 0 0 0 0.819607843 0 0 0 0.14733356 0" in="shadowBlurOuter1"/></filter><circle id="d" cx="175.5" cy="49.5" r="49.5"/><filter x="-40.4%" y="-35.4%" width="180.8%" height="180.8%" filterUnits="objectBoundingBox" id="c"><feOffset dy="5" in="SourceAlpha" result="shadowOffsetOuter1"/><feGaussianBlur stdDeviation="12.5" in="shadowOffsetOuter1" result="shadowBlurOuter1"/><feColorMatrix values="0 0 0 0 0 0 0 0 0 0.337254902 0 0 0 0 0.819607843 0 0 0 0.14733356 0" in="shadowBlurOuter1"/></filter><circle id="f" cx="49.5" cy="107.5" r="49.5"/><filter x="-40.4%" y="-35.4%" width="180.8%" height="180.8%" filterUnits="objectBoundingBox" id="e"><feOffset dy="5" in="SourceAlpha" result="shadowOffsetOuter1"/><feGaussianBlur stdDeviation="12.5" in="shadowOffsetOuter1" result="shadowBlurOuter1"/><feColorMatrix values="0 0 0 0 0 0 0 0 0 0.337254902 0 0 0 0 0.819607843 0 0 0 0.14733356 0" in="shadowBlurOuter1"/></filter><linearGradient x1="50%" y1="0%" x2="50%" y2="100%" id="g"><stop stop-color="#313131" offset="0%"/><stop stop-color="#3F3F3F" offset="100%"/></linearGradient><linearGradient x1="50%" y1="0%" x2="50%" y2="100%" id="h"><stop stop-color="#575757" offset="0%"/><stop stop-color="#262626" offset="100%"/></linearGradient><circle id="j" cx="300.5" cy="107.5" r="49.5"/><filter x="-40.4%" y="-35.4%" width="180.8%" height="180.8%" filterUnits="objectBoundingBox" id="i"><feOffset dy="5" in="SourceAlpha" result="shadowOffsetOuter1"/><feGaussianBlur stdDeviation="12.5" in="shadowOffsetOuter1" result="shadowBlurOuter1"/><feColorMatrix values="0 0 0 0 0 0 0 0 0 0.337254902 0 0 0 0 0.819607843 0 0 0 0.14733356 0" in="shadowBlurOuter1"/></filter></defs><g transform="translate(24 19)" fill="none" fill-rule="evenodd"><use fill="#000" filter="url(#a)" xlink:href="#b"/><use fill="#FFF" xlink:href="#b"/><use fill="#000" filter="url(#c)" xlink:href="#d"/><use fill="#FFF" xlink:href="#d"/><use fill="#000" filter="url(#e)" xlink:href="#f"/><use fill="#FFF" xlink:href="#f"/><path d="M159.622 33h31.688c1.38 0 2.58.94 2.912 2.28l7.177 29c.397 1.608-.584 3.234-2.192 3.632-.236.058-.478.088-.72.088h-46.043c-1.657 0-3-1.343-3-3 0-.243.03-.485.088-.72l7.177-29c.332-1.34 1.533-2.28 2.912-2.28z" fill="url(#g)"/><path d="M181.4 28.826c0-3.458-2.865-6.26-6.4-6.26s-6.4 2.802-6.4 6.26V39H167V28.826c0-4.322 3.582-7.826 8-7.826s8 3.504 8 7.826V39h-1.6V28.826z" fill="#3F3F3F"/><circle fill="url(#h)" cx="39.5" cy="102.5" r="14.5"/><circle fill="#C03A3A" cx="58.5" cy="113.5" r="14.5"/><g><use fill="#000" filter="url(#i)" xlink:href="#j"/><use fill="#FFF" xlink:href="#j"/></g><g><text font-family="OpenSans-SemiBold, Open Sans" font-size="30" font-weight="500" fill="#232C59" fill-opacity=".8" transform="translate(113 87)"><tspan x="162" y="32">$$$</tspan></text><path d="M23.746 26.783h77.132c2.3 0 4.305 1.57 4.855 3.805l17.77 72.2c.66 2.68-.98 5.39-3.66 6.05-.39.095-.792.144-1.195.144H5.976c-2.76 0-5-2.24-5-5 0-.403.05-.804.145-1.195l17.77-72.2c.55-2.234 2.554-3.804 4.856-3.804z" fill="url(#g)" transform="translate(113 121)"/><path d="M189.903 139.47c0-8.16-6.656-14.776-14.868-14.776-8.21 0-14.868 6.616-14.868 14.777v24.013h-3.717V139.47c0-10.2 8.32-18.47 18.585-18.47s18.586 8.27 18.586 18.47v24.013h-3.717V139.47z" fill="#3F3F3F"/><path d="M20.67 25.513h81.464c2.317 0 4.33 1.59 4.865 3.846l6.937 29.25c.637 2.686-1.024 5.38-3.71 6.018-.38.09-.767.135-1.155.135h-95.34c-2.76 0-5-2.24-5-5 0-.39.046-.776.135-1.154l6.938-29.25c.535-2.256 2.548-3.847 4.865-3.847z" fill="url(#h)" transform="translate(113 121)"/><path fill="#C03A3A" d="M165.683 148.475h17.67v43.175h-17.67z"/><path fill="#5B5B5B" d="M167.646 148.475h13.744v43.175h-13.744z"/></g></g></svg>