<svg xmlns="http://www.w3.org/2000/svg" xmlns:xlink="http://www.w3.org/1999/xlink" width="409" height="396" viewBox="0 0 409 396"><defs><path id="a" d="M420.34 480.5a72.53 72.53 0 0 1 72.55-72.5 72.53 72.53 0 0 1 72.55 72.5 72.53 72.53 0 0 1-72.55 72.5 72.53 72.53 0 0 1-72.55-72.5z"/><path id="b" d="M461.36 269c0-34.24 27.78-62 62.05-62a62.02 62.02 0 0 1 62.04 62c0 34.24-27.78 62-62.05 62a62.02 62.02 0 0 1-62.04-62z"/><path id="c" d="M227.2 359.5a48.52 48.52 0 0 1 48.53-48.5 48.52 48.52 0 0 1 48.54 48.5 48.52 48.52 0 0 1-48.53 48.5 48.52 48.52 0 0 1-48.54-48.5z"/><path id="d" d="M329.27 370c0-44.18 35.84-80 80.06-80 44.2 0 80.05 35.82 80.05 80s-35.84 80-80.06 80c-44.2 0-80.05-35.82-80.05-80z"/><path id="e" d="M289.24 370c0-66.27 53.76-120 120.08-120 66.33 0 120.09 53.73 120.09 120 0 66.27-53.76 120-120.08 120-66.33 0-120.09-53.73-120.09-120z"/><path id="f" d="M249.22 372c0-88.37 71.68-160 160.11-160s160.11 71.63 160.11 160-71.68 160-160.11 160-160.11-71.63-160.11-160z"/><path id="i" d="M493.07 445c6.46 0 11.69 5.2 11.69 11.62v15.11h-2.34v-15.11c0-5.14-4.19-9.3-9.35-9.3a9.32 9.32 0 0 0-9.35 9.3v15.11h-2.34v-15.11c0-6.42 5.23-11.62 11.69-11.62z"/><path id="k" d="M458.44 464c0-1.1.9-2 2-2h65.89a2 2 0 0 1 2 2v46a2 2 0 0 1-2 2h-65.89a2 2 0 0 1-2-2z"/><path id="m" d="M493.38 492l36.82-30.3h-73.64z"/><path id="n" d="M490.38 495v-8h6v8z"/><path id="r" d="M491.35 255.65a3 3 0 0 1 3-3h57.93a3 3 0 0 1 3 3v35.88a3 3 0 0 1-3 3h-57.93a3 3 0 0 1-3-3z"/><path id="s" d="M523.17 239a9.44 9.44 0 0 1 9.47 9.41v12.24h-1.89v-12.24c0-4.16-3.4-7.53-7.58-7.53a7.56 7.56 0 0 0-7.58 7.53v12.24h-1.89v-12.24c0-5.2 4.24-9.41 9.47-9.41z"/><path id="u" d="M495.33 255a3 3 0 0 1 3-3h49.04a3 3 0 0 1 3 3v14a3 3 0 0 1-3 3h-49.04a3 3 0 0 1-3-3z"/><path id="v" d="M518.4 275v-22h9.01v22z"/><path id="w" d="M519.4 275v-22h7v22z"/><path id="A" d="M253.37 353.23a8 8 0 0 1 8-8h32.68a8 8 0 0 1 8 8v18.48a8 8 0 0 1-8 8h-32.68a8 8 0 0 1-8-8z"/><path id="B" d="M270.05 341.75a7.8 7.8 0 0 1 7.84-7.75 7.8 7.8 0 0 1 7.85 7.75v10.07h-1.57v-10.07c0-3.42-2.8-6.2-6.27-6.2a6.24 6.24 0 0 0-6.28 6.2v10.07h-1.57v-10.07z"/><path id="D" d="M249.45 353.23a8 8 0 0 1 8-8h32.68a8 8 0 0 1 8 8v18.48a8 8 0 0 1-8 8h-32.68a8 8 0 0 1-8-8z"/><path id="E" d="M266.12 341.75a7.8 7.8 0 0 1 7.84-7.75 7.8 7.8 0 0 1 7.85 7.75v10.07h-1.57v-10.07c0-3.42-2.8-6.2-6.27-6.2a6.24 6.24 0 0 0-6.28 6.2v10.07h-1.57v-10.07z"/><path id="F" d="M264.56 352.99a2.34 2.34 0 0 1 2.35-2.33c1.3 0 2.36 1.04 2.36 2.33a2.34 2.34 0 0 1-2.35 2.32 2.34 2.34 0 0 1-2.36-2.33z"/><path id="G" d="M278.68 352.99a2.34 2.34 0 0 1 2.35-2.33c1.3 0 2.36 1.04 2.36 2.33a2.34 2.34 0 0 1-2.35 2.32 2.34 2.34 0 0 1-2.36-2.33z"/><path id="H" d="M265.73 353.76a1.18 1.18 0 1 1 2.35 0v5.4c0 .65-.53 1.18-1.17 1.18-.65 0-1.18-.53-1.18-1.18z"/><path id="I" d="M279.85 353.76a1.18 1.18 0 1 1 2.35 0v5.4c0 .65-.53 1.18-1.17 1.18-.65 0-1.18-.53-1.18-1.18z"/><path id="J" d="M264.16 357.05c0-.32.26-.58.58-.58h4.33a.58.58 0 1 1 0 1.16h-4.33a.58.58 0 0 1-.58-.58z"/><path id="K" d="M278.28 357.05c0-.32.26-.58.58-.58h4.33a.58.58 0 1 1 0 1.16h-4.33a.58.58 0 0 1-.58-.58z"/><path id="M" d="M374.3 383c0-19.33 15.68-35 35.02-35a35.01 35.01 0 0 1 35.03 35c0 19.33-15.68 35-35.03 35a35.01 35.01 0 0 1-35.02-35z"/><path id="O" d="M364.3 372c0-24.85 20.16-45 45.03-45a45.02 45.02 0 0 1 45.03 45c0 24.85-20.16 45-45.03 45a45.02 45.02 0 0 1-45.03-45z"/><path id="P" d="M413.39 371.9c0-2.67 2.2-4.84 4.9-4.84s4.9 2.17 4.9 4.84c0 2.66-2.2 4.83-4.9 4.83s-4.9-2.17-4.9-4.83zm-17.93 0c0-2.67 2.2-4.84 4.9-4.84s4.9 2.17 4.9 4.84c0 2.66-2.2 4.83-4.9 4.83s-4.9-2.17-4.9-4.83zm13.86-6.34c-2-2.76-5.27-4.56-8.96-4.56a10.99 10.99 0 0 0-11.05 10.9c0 6 4.96 10.9 11.05 10.9 3.7 0 6.96-1.8 8.96-4.56 2.01 2.75 5.28 4.56 8.97 4.56 6.1 0 11.05-4.9 11.05-10.9 0-6.01-4.96-10.9-11.05-10.9-3.7 0-6.96 1.8-8.97 4.56z"/><mask id="h" width="2" height="2" x="-1" y="-1"><path fill="#fff" d="M420.34 408h145.1v145h-145.1z"/><use xlink:href="#a"/></mask><filter id="g" width="215.1" height="220" x="385.34" y="398" filterUnits="userSpaceOnUse"><feOffset dy="5" in="SourceGraphic" result="FeOffset1240Out"/><feGaussianBlur in="FeOffset1240Out" result="FeGaussianBlur1241Out" stdDeviation="10 10"/></filter><linearGradient id="j" x1="469.78" x2="516.99" y1="495.11" y2="495.11" gradientUnits="userSpaceOnUse"><stop offset="0" stop-color="#dd3737"/><stop offset="1" stop-color="#b41212"/></linearGradient><linearGradient id="l" x1="493.38" x2="493.38" y1="492" y2="471.55" gradientUnits="userSpaceOnUse"><stop offset="0" stop-color="#dd3737"/><stop offset=".99" stop-color="#b41212"/></linearGradient><mask id="p" width="2" height="2" x="-1" y="-1"><path fill="#fff" d="M461.36 207h124.09v124H461.36z"/><use xlink:href="#b"/></mask><filter id="o" width="194.09" height="199" x="426.36" y="197" filterUnits="userSpaceOnUse"><feOffset dy="5" in="SourceGraphic" result="FeOffset1282Out"/><feGaussianBlur in="FeOffset1282Out" result="FeGaussianBlur1283Out" stdDeviation="10 10"/></filter><linearGradient id="q" x1="523.32" x2="523.32" y1="252.65" y2="294.53" gradientUnits="userSpaceOnUse"><stop offset="0" stop-color="#303030"/><stop offset="1" stop-color="#3e3e3e"/></linearGradient><linearGradient id="t" x1="522.85" x2="522.85" y1="252" y2="272" gradientUnits="userSpaceOnUse"><stop offset="0" stop-color="#565656"/><stop offset="1" stop-color="#252525"/></linearGradient><mask id="y" width="2" height="2" x="-1" y="-1"><path fill="#fff" d="M227.2 311h97.07v97H227.2z"/><use xlink:href="#c"/></mask><filter id="x" width="167.07" height="172" x="192.2" y="301" filterUnits="userSpaceOnUse"><feOffset dy="5" in="SourceGraphic" result="FeOffset1329Out"/><feGaussianBlur in="FeOffset1329Out" result="FeGaussianBlur1330Out" stdDeviation="10 10"/></filter><linearGradient id="z" x1="277.72" x2="277.72" y1="345.23" y2="379.71" gradientUnits="userSpaceOnUse"><stop offset="0" stop-color="#6b60a7"/><stop offset="1" stop-color="#1f1b33"/></linearGradient><linearGradient id="C" x1="273.8" x2="273.8" y1="345.23" y2="379.71" gradientUnits="userSpaceOnUse"><stop offset="0" stop-color="#8177b7"/><stop offset="1" stop-color="#534a7c"/></linearGradient><filter id="L" width="196%" height="196%" x="-38%" y="-38%" filterUnits="objectBoundingBox"><feGaussianBlur in="SourceGraphic" result="FeGaussianBlur1396Out" stdDeviation="10 10"/></filter><linearGradient id="N" x1="409.33" x2="409.33" y1="327" y2="417" gradientUnits="userSpaceOnUse"><stop offset="0" stop-color="#55557c"/><stop offset="1" stop-color="#2e2c52"/></linearGradient></defs><use fill="#fff" fill-opacity="0" stroke="#dde6eb" stroke-miterlimit="50" xlink:href="#d" transform="translate(-202 -187)"/><use fill="#fff" fill-opacity="0" stroke="#dde6eb" stroke-miterlimit="50" xlink:href="#e" transform="translate(-202 -187)"/><use fill="#fff" fill-opacity="0" stroke="#dde6eb" stroke-miterlimit="50" xlink:href="#f" transform="translate(-202 -187)"/><g transform="translate(-202 -187)"><g filter="url(#g)"><use fill="none" stroke-opacity=".15" stroke-width="0" mask="url(&quot;#h&quot;)" xlink:href="#a"/><use fill="#0056d1" fill-opacity=".15" xlink:href="#a"/></g><use fill="#fff" xlink:href="#a"/></g><use fill="#ae1212" xlink:href="#i" transform="translate(-202 -187)"/><use fill="url(#j)" xlink:href="#k" transform="translate(-202 -187)"/><use fill="url(#l)" xlink:href="#m" transform="translate(-202 -187)"/><use fill="#d6cd3b" xlink:href="#n" transform="translate(-202 -187)"/><g transform="translate(-202 -187)"><g filter="url(#o)"><use fill="none" stroke-opacity=".15" stroke-width="0" mask="url(&quot;#p&quot;)" xlink:href="#b"/><use fill="#0056d1" fill-opacity=".15" xlink:href="#b"/></g><use fill="#fff" xlink:href="#b"/></g><use fill="url(#q)" xlink:href="#r" transform="translate(-202 -187)"/><use fill="#3e3e3e" xlink:href="#s" transform="translate(-202 -187)"/><use fill="url(#t)" xlink:href="#u" transform="translate(-202 -187)"/><use fill="#c03a3a" xlink:href="#v" transform="translate(-202 -187)"/><use fill="#5a5a5a" xlink:href="#w" transform="translate(-202 -187)"/><g transform="translate(-202 -187)"><g filter="url(#x)"><use fill="none" stroke-opacity=".15" stroke-width="0" mask="url(&quot;#y&quot;)" xlink:href="#c"/><use fill="#0056d1" fill-opacity=".15" xlink:href="#c"/></g><use fill="#fff" xlink:href="#c"/></g><use fill="url(#z)" xlink:href="#A" transform="translate(-202 -187)"/><use fill="#281d41" xlink:href="#B" opacity=".7" transform="translate(-202 -187)"/><use fill="url(#C)" xlink:href="#D" transform="translate(-202 -187)"/><use fill="#281d41" xlink:href="#E" transform="translate(-202 -187)"/><g transform="translate(-202 -187)"><use fill="#281d41" xlink:href="#F"/><use fill="#fff" fill-opacity="0" stroke="#ededed" stroke-miterlimit="50" stroke-width="2" xlink:href="#F"/></g><g transform="translate(-202 -187)"><use fill="#281d41" xlink:href="#G"/><use fill="#fff" fill-opacity="0" stroke="#ededed" stroke-miterlimit="50" stroke-width="2" xlink:href="#G"/></g><use fill="#a69be1" xlink:href="#H" transform="translate(-202 -187)"/><use fill="#a69be1" xlink:href="#I" transform="translate(-202 -187)"/><use fill="#eee" xlink:href="#J" transform="translate(-202 -187)"/><use fill="#eee" xlink:href="#K" transform="translate(-202 -187)"/><use fill="#55557c" xlink:href="#M" filter="url(#L)" transform="translate(-202 -187)"/><use fill="url(#N)" xlink:href="#O" transform="translate(-202 -187)"/><use fill="#fff" xlink:href="#P" transform="translate(-202 -187)"/></svg>