<svg width="420" height="272" viewBox="0 0 420 272" xmlns="http://www.w3.org/2000/svg" xmlns:xlink="http://www.w3.org/1999/xlink"><title>illus</title><defs><rect id="b" x="234" y="31" width="136" height="155" rx="12"/><filter x="-29.4%" y="-22.6%" width="158.8%" height="151.6%" filterUnits="objectBoundingBox" id="a"><feOffset dy="5" in="SourceAlpha" result="shadowOffsetOuter1"/><feGaussianBlur stdDeviation="12.5" in="shadowOffsetOuter1" result="shadowBlurOuter1"/><feColorMatrix values="0 0 0 0 0 0 0 0 0 0 0 0 0 0 0 0 0 0 0.06 0" in="shadowBlurOuter1"/></filter><rect id="d" y="31" width="136" height="155" rx="12"/><filter x="-29.4%" y="-22.6%" width="158.8%" height="151.6%" filterUnits="objectBoundingBox" id="c"><feOffset dy="5" in="SourceAlpha" result="shadowOffsetOuter1"/><feGaussianBlur stdDeviation="12.5" in="shadowOffsetOuter1" result="shadowBlurOuter1"/><feColorMatrix values="0 0 0 0 0 0 0 0 0 0 0 0 0 0 0 0 0 0 0.06 0" in="shadowBlurOuter1"/></filter><rect id="f" x="30" y="17" width="160" height="182" rx="12"/><filter x="-25%" y="-19.2%" width="150%" height="144%" filterUnits="objectBoundingBox" id="e"><feOffset dy="5" in="SourceAlpha" result="shadowOffsetOuter1"/><feGaussianBlur stdDeviation="12.5" in="shadowOffsetOuter1" result="shadowBlurOuter1"/><feColorMatrix values="0 0 0 0 0 0 0 0 0 0 0 0 0 0 0 0 0 0 0.06 0" in="shadowBlurOuter1"/></filter><linearGradient x1="50%" y1="0%" x2="50%" y2="100%" id="g"><stop stop-color="#FCFCFC" offset="0%"/><stop stop-color="#E7E7E7" offset="100%"/></linearGradient><rect id="i" x="180" y="17" width="160" height="182" rx="12"/><filter x="-25%" y="-19.2%" width="150%" height="144%" filterUnits="objectBoundingBox" id="h"><feOffset dy="5" in="SourceAlpha" result="shadowOffsetOuter1"/><feGaussianBlur stdDeviation="12.5" in="shadowOffsetOuter1" result="shadowBlurOuter1"/><feColorMatrix values="0 0 0 0 0 0 0 0 0 0 0 0 0 0 0 0 0 0 0.06 0" in="shadowBlurOuter1"/></filter><rect id="k" x="90" width="190" height="216" rx="12"/><filter x="-21.1%" y="-16.2%" width="142.1%" height="137%" filterUnits="objectBoundingBox" id="j"><feOffset dy="5" in="SourceAlpha" result="shadowOffsetOuter1"/><feGaussianBlur stdDeviation="12.5" in="shadowOffsetOuter1" result="shadowBlurOuter1"/><feColorMatrix values="0 0 0 0 0 0 0 0 0 0.337254902 0 0 0 0 0.819607843 0 0 0 0.14733356 0" in="shadowBlurOuter1"/></filter><linearGradient x1="50%" y1="0%" x2="50%" y2="100%" id="l"><stop stop-color="#6C61A8" offset="0%"/><stop stop-color="#1F1C33" offset="100%"/></linearGradient><linearGradient x1="50%" y1="0%" x2="50%" y2="100%" id="m"><stop stop-color="#8177B7" offset="0%"/><stop stop-color="#534B7D" offset="100%"/></linearGradient><filter x="-44.1%" y="-44.1%" width="188.2%" height="188.2%" filterUnits="objectBoundingBox" id="n"><feGaussianBlur stdDeviation="10" in="SourceGraphic"/></filter></defs><g transform="translate(25 20)" fill="none" fill-rule="evenodd"><g opacity=".6"><use fill="#000" filter="url(#a)" xlink:href="#b"/><use fill="#FFF" xlink:href="#b"/></g><g opacity=".6"><use fill="#000" filter="url(#c)" xlink:href="#d"/><use fill="#FFF" xlink:href="#d"/></g><g opacity=".8"><use fill="#000" filter="url(#e)" xlink:href="#f"/><use fill="#FFF" xlink:href="#f"/></g><path d="M92.137 72h35.757c9.355 0 17.46 6.485 19.512 15.612l7.138 31.736c2.423 10.776-4.348 21.477-15.125 23.9-1.44.324-2.913.488-4.39.488H85c-11.046 0-20-8.954-20-20 0-1.476.163-2.948.487-4.388l7.138-31.736C74.677 78.485 82.782 72 92.137 72z" fill="url(#g)"/><g opacity=".8"><use fill="#000" filter="url(#h)" xlink:href="#i"/><use fill="#FFF" xlink:href="#i"/></g><path d="M242.137 72h35.757c9.355 0 17.46 6.485 19.512 15.612l7.138 31.736c2.423 10.776-4.348 21.477-15.125 23.9-1.44.324-2.913.488-4.39.488H235c-11.046 0-20-8.954-20-20 0-1.476.163-2.948.487-4.388l7.138-31.736C224.677 78.485 232.782 72 242.137 72z" fill="url(#g)"/><use fill="#000" filter="url(#j)" xlink:href="#k"/><use fill="#FFF" xlink:href="#k"/><g transform="translate(128 45)"><path d="M41.52 29h52.068c9.355 0 17.46 6.485 19.513 15.612l11.022 49.004c2.423 10.777-4.348 21.478-15.125 23.9-1.44.325-2.912.49-4.388.49H30.5c-11.047 0-20-8.956-20-20 0-1.478.162-2.95.486-4.39l11.02-49.004C24.06 35.485 32.167 29 41.52 29z" fill="url(#l)"/><path d="M84 20c0-8.837-7.163-16-16-16s-16 7.163-16 16v26h-4V20C48 8.954 56.954 0 68 0s20 8.954 20 20v26h-4V20z" fill="#281E41" opacity=".7"/><path d="M31.52 29h52.068c9.355 0 17.46 6.485 19.513 15.612l11.022 49.004c2.423 10.777-4.348 21.478-15.125 23.9-1.44.325-2.912.49-4.388.49H20.5c-11.047 0-20-8.956-20-20 0-1.478.162-2.95.486-4.39l11.02-49.004C14.06 35.485 22.167 29 31.52 29z" fill="url(#m)"/><path d="M74 20c0-8.837-7.163-16-16-16s-16 7.163-16 16v26h-4V20C38 8.954 46.954 0 58 0s20 8.954 20 20v26h-4V20z" fill="#281E41"/><path d="M40 55c1.15 0 2.227-.324 3.14-.887C44.856 53.058 46 51.163 46 49c0-3.314-2.686-6-6-6s-6 2.686-6 6 2.686 6 6 6z" stroke="#EEE" stroke-width="3" fill="#281E41"/><circle stroke="#EEE" stroke-width="3" fill="#281E41" cx="76" cy="49" r="6"/><rect fill="#A79CE2" x="37" y="48" width="6" height="20" rx="3"/><rect fill="#A79CE2" x="73" y="48" width="6" height="20" rx="3"/><rect fill="#EEE" x="33" y="58" width="14" height="3" rx="1.5"/><rect fill="#EEE" x="69" y="58" width="14" height="3" rx="1.5"/></g><circle fill="#24CE74" filter="url(#n)" cx="251" cy="194" r="34"/><circle fill="#24CE74" cx="251" cy="184" r="46"/><path d="M229 202h8v-24h-8v24zm44-22c0-2.21-1.79-4-4-4h-12.63l1.91-9.14c.04-.2.07-.41.07-.63 0-.83-.34-1.58-.88-2.12l-2.13-2.11-13.17 13.17c-.72.73-1.17 1.73-1.17 2.83v20c0 2.21 1.79 4 4 4h18c1.66 0 3.08-1.01 3.68-2.44l6.03-14.1c.18-.46.29-.95.29-1.46v-3.83l-.02-.02.02-.15z" fill="#FFF" fill-rule="nonzero"/></g></svg>