<svg xmlns="http://www.w3.org/2000/svg" xmlns:xlink="http://www.w3.org/1999/xlink" width="247" height="143" viewBox="0 0 247 143"><defs><path id="a" d="M622.28 559c-1.6 0-2.28-.98-2.28-3.12V424.24a6.22 6.22 0 0 1 6.28-6.24h189.44c3.5 0 6.28 2.76 6.28 6.24v131.64c0 2.14-.68 3.12-2.28 3.12H622.28z"/><path id="b" d="M607.2 561c-5.74 0-7.98-2.08-9.63-2.96a1.04 1.04 0 0 1-.57-.9V553h247v4.15c0 .34-.2.7-.57.89-1.65.88-3.89 2.96-9.63 2.96H607.2z"/><path id="c" d="M705.22 556c-1.35 0-2.02-2.19-2.22-3h33c-.2.81-.87 3-2.22 3h-28.56z"/><path id="d" d="M626.28 427.13c-.16 0-.28 117.62-.28 117.58 0 .18 188.74.3 188.72.3.16 0 .28-117.62.28-117.59 0-.17-188.74-.29-188.72-.29z"/><path id="e" d="M718.78 422.86c0-.48.39-.86.86-.86s.86.38.86.85c0 .48-.39.86-.86.86a.86.86 0 0 1-.86-.85z"/><path id="f" d="M629.44 444.21v-13.67h182.13v13.67z"/><path id="g" d="M656.07 537.31V504h154.64v33.31z"/><path id="h" d="M656.07 499.73v-51.25h154.64v51.25z"/><path id="i" d="M736.9 520.85a3.89 3.89 0 0 1 3.85-3.93 3.89 3.89 0 0 1 3.83 3.93 3.89 3.89 0 0 1-3.83 3.92 3.89 3.89 0 0 1-3.85-3.92zm-14.72 0a3.89 3.89 0 0 1 3.84-3.93 3.89 3.89 0 0 1 3.84 3.93 3.89 3.89 0 0 1-3.84 3.92 3.89 3.89 0 0 1-3.84-3.92zm11.2-5.33a8.95 8.95 0 0 0-7.31-3.83c-4.97 0-9.01 4.1-9.01 9.16a9.1 9.1 0 0 0 9 9.15 8.95 8.95 0 0 0 7.32-3.83 8.95 8.95 0 0 0 7.32 3.83c4.96 0 9-4.1 9-9.15a9.1 9.1 0 0 0-9-9.16 8.95 8.95 0 0 0-7.32 3.83z"/><path id="j" d="M630 538v-89h22v89z"/></defs><g transform="translate(-597 -418)"><use fill="#cacad8" xlink:href="#a"/><use fill="#fff" fill-opacity="0" stroke="#222b58" stroke-miterlimit="50" stroke-width="2" xlink:href="#a"/></g><g transform="translate(-597 -418)"><use fill="#cacad8" xlink:href="#b"/><use fill="#fff" fill-opacity="0" stroke="#222b58" stroke-miterlimit="50" stroke-width="2" xlink:href="#b"/></g><g transform="translate(-597 -418)"><use fill="#222b58" xlink:href="#c"/><use fill="#fff" fill-opacity="0" stroke="#222b58" stroke-miterlimit="50" stroke-width="2" xlink:href="#c"/></g><use fill="#fff" xlink:href="#d" transform="translate(-597 -418)"/><use fill="#222b58" xlink:href="#e" transform="translate(-597 -418)"/><use fill="#2e2c55" xlink:href="#f" transform="translate(-597 -418)"/><use fill="#e4faff" xlink:href="#g" transform="translate(-597 -418)"/><use fill="#b19dba" xlink:href="#h" transform="translate(-597 -418)"/><use fill="#2e2c55" xlink:href="#i" transform="translate(-597 -418)"/><g transform="translate(-597 -418)"><use fill="#2e2c55" xlink:href="#j"/></g></svg>